<?xml version="1.0" standalone="no"?>
<!DOCTYPE svg PUBLIC "-//W3C//DTD SVG 20010904//EN"
 "http://www.w3.org/TR/2001/REC-SVG-20010904/DTD/svg10.dtd">
<svg version="1.0" xmlns="http://www.w3.org/2000/svg"
 width="1024.000000pt" height="1024.000000pt" viewBox="0 0 1024.000000 1024.000000"
 preserveAspectRatio="xMidYMid meet">

<g transform="translate(0.000000,1024.000000) scale(0.100000,-0.100000)"
fill="#000000" stroke="none">
<path d="M5688 10213 c6 -2 18 -2 25 0 6 3 1 5 -13 5 -14 0 -19 -2 -12 -5z"/>
<path d="M5333 7903 c54 -2 139 -2 190 0 51 1 7 3 -98 3 -104 0 -146 -2 -92
-3z"/>
<path d="M4335 7846 c-22 -19 -42 -33 -46 -31 -3 2 -6 -2 -6 -10 0 -8 18 0 46
23 66 52 66 52 55 52 -5 0 -27 -15 -49 -34z"/>
<path d="M4250 7780 c-8 -5 -12 -12 -9 -15 4 -3 12 1 19 10 14 17 11 19 -10 5z"/>
<path d="M4400 7643 c-41 -43 -55 -60 -30 -38 24 22 48 45 52 50 4 6 8 7 8 3
0 -12 46 36 46 50 0 6 0 12 0 12 -1 0 -35 -35 -76 -77z"/>
<path d="M5657 7658 c10 -13 63 -66 118 -118 l100 -95 -115 118 c-113 116
-138 138 -103 95z"/>
<path d="M4301 7551 c-7 -5 -11 -15 -9 -22 3 -10 8 -7 17 9 13 24 12 26 -8 13z"/>
<path d="M4200 7453 c-36 -37 -48 -53 -28 -36 20 17 43 35 50 40 21 13 62 63
52 63 -5 0 -39 -30 -74 -67z"/>
<path d="M6100 7471 c0 -5 7 -14 15 -21 16 -14 18 -10 9 14 -6 17 -24 22 -24
7z"/>
<path d="M6152 7414 c10 -10 20 -15 24 -12 3 4 -5 12 -18 18 -22 12 -22 12 -6
-6z"/>
<path d="M5890 7410 c0 -5 5 -10 11 -10 5 0 7 5 4 10 -3 6 -8 10 -11 10 -2 0
-4 -4 -4 -10z"/>
<path d="M5748 7403 c17 -2 47 -2 65 0 17 2 3 4 -33 4 -36 0 -50 -2 -32 -4z"/>
<path d="M6190 7365 c13 -14 25 -23 27 -21 6 6 -30 46 -41 46 -5 0 1 -11 14
-25z"/>
<path d="M6226 7317 c3 -10 9 -15 12 -12 3 3 0 11 -7 18 -10 9 -11 8 -5 -6z"/>
<path d="M6672 7293 c-43 -21 -36 -25 12 -9 21 7 34 16 29 19 -5 3 -23 -1 -41
-10z"/>
<path d="M6753 7303 c15 -2 37 -2 50 0 12 2 0 4 -28 4 -27 0 -38 -2 -22 -4z"/>
<path d="M3812 7280 c0 -14 2 -19 5 -12 2 6 2 18 0 25 -3 6 -5 1 -5 -13z"/>
<path d="M3153 7283 c9 -2 25 -2 35 0 9 3 1 5 -18 5 -19 0 -27 -2 -17 -5z"/>
<path d="M7680 7283 c8 -3 23 -13 33 -21 16 -14 19 -14 27 -2 11 18 13 16 -35
23 -22 4 -33 4 -25 0z"/>
<path d="M3099 7263 c-13 -17 -13 -17 6 -3 11 8 22 16 24 17 2 2 0 3 -6 3 -6
0 -17 -8 -24 -17z"/>
<path d="M4785 7253 c-22 -2 -89 -10 -150 -18 -73 -10 -198 -15 -381 -15
l-272 0 -4 -90 c-3 -75 -8 -93 -26 -113 -27 -29 -139 -83 -149 -73 -10 9 -10
90 -2 211 4 50 3 72 -1 50 -12 -71 -19 -82 -51 -82 -21 0 -29 5 -29 19 0 10
-7 18 -16 18 -8 0 -32 17 -52 38 -28 28 -46 38 -75 40 -51 3 -62 -5 -41 -29
14 -16 20 -49 26 -162 8 -124 11 -144 28 -156 34 -23 24 -53 -40 -115 -33 -32
-60 -63 -60 -69 0 -5 -47 -58 -104 -116 -100 -102 -160 -178 -287 -363 -33
-48 -71 -95 -85 -104 -15 -11 -21 -21 -16 -26 6 -6 -7 -39 -34 -86 -24 -43
-44 -82 -44 -89 0 -7 -21 -63 -46 -124 -52 -128 -117 -376 -135 -518 -15 -118
-15 -477 0 -586 18 -130 51 -270 98 -425 93 -298 299 -636 552 -904 70 -74
264 -216 376 -276 129 -69 225 -132 225 -146 0 -24 -69 -36 -245 -42 l-180 -7
115 -5 115 -5 9 -42 c5 -24 14 -43 20 -43 6 0 22 -16 35 -36 21 -30 22 -37 10
-46 -11 -8 -11 -9 3 -4 10 3 20 1 23 -4 4 -6 -9 -10 -27 -11 -18 0 -51 -4 -73
-9 -35 -7 -31 -8 32 -7 39 1 69 -1 67 -4 -5 -8 41 -51 48 -44 3 3 2 -13 -2
-36 -4 -22 -17 -50 -28 -61 -23 -23 -92 -34 -147 -24 -64 12 -106 79 -72 116
10 12 9 12 -5 1 -21 -16 -23 -39 -6 -78 15 -35 48 -79 48 -65 0 7 18 9 50 5
66 -7 88 0 141 42 27 21 51 33 62 29 12 -4 17 0 17 15 0 20 6 21 80 21 47 0
80 4 80 10 0 6 9 10 20 10 14 0 20 -7 21 -22 1 -22 1 -22 9 2 5 15 8 19 9 8 1
-9 6 -29 13 -45 6 -15 10 -32 9 -38 -2 -5 1 -7 5 -2 4 4 16 0 25 -9 24 -22
168 -20 210 2 41 21 36 26 -8 8 -26 -11 -60 -15 -109 -12 -60 3 -77 8 -98 27
-36 34 -35 79 3 115 34 33 117 45 174 27 48 -16 90 -66 83 -97 -5 -19 -1 -25
18 -30 15 -3 27 -15 30 -30 6 -23 26 -34 26 -14 0 6 9 10 20 10 11 0 20 6 20
13 0 9 24 11 97 8 54 -1 100 -7 103 -12 3 -4 24 -10 47 -11 32 -2 40 -7 38
-20 -2 -9 2 -15 10 -14 26 4 27 14 5 44 -26 34 -23 65 10 99 25 28 93 47 136
38 44 -8 87 -59 82 -96 -4 -27 -3 -27 44 -25 26 1 50 -3 52 -9 3 -6 8 -5 14 4
7 10 22 12 53 7 24 -4 83 -10 130 -14 48 -4 93 -13 101 -20 8 -6 18 -9 21 -6
4 4 17 0 30 -9 15 -10 29 -12 38 -6 8 5 39 9 69 10 46 2 41 3 -35 10 -111 10
-114 11 -112 18 1 3 -4 21 -12 39 -12 29 -12 38 2 68 20 42 49 54 128 54 69 0
110 -18 127 -55 14 -29 16 -76 5 -91 -5 -5 -1 -2 8 8 9 9 19 14 23 11 3 -4 6
-1 6 5 0 7 10 12 23 12 18 0 19 2 7 10 -11 7 -4 10 28 10 35 0 42 3 42 20 0
17 7 20 40 20 33 0 40 3 40 20 0 13 7 20 20 20 11 0 20 6 20 14 0 8 9 18 20
21 11 3 20 12 20 20 0 8 17 16 40 20 30 5 40 11 40 26 0 12 7 19 20 19 13 0
20 7 20 20 0 13 7 20 20 20 13 0 20 7 20 20 0 18 7 20 63 21 l62 2 -85 9 c-47
5 -113 11 -147 14 -33 3 -69 11 -79 19 -16 12 -10 18 66 68 47 30 105 65 130
77 89 45 314 227 435 352 125 129 270 325 366 496 50 88 127 264 149 337 16
55 59 242 66 285 2 19 12 76 20 125 22 132 29 360 15 499 -26 246 -75 447
-156 642 -25 59 -45 112 -45 118 0 6 -16 44 -35 85 -19 40 -33 76 -30 81 3 5
-9 23 -26 42 -17 18 -64 80 -104 138 -77 110 -147 193 -271 321 -41 42 -74 81
-74 86 0 5 -30 38 -66 73 -36 36 -70 73 -76 83 -14 27 15 55 68 63 41 6 63 24
29 24 -8 0 -15 7 -15 15 0 8 -4 15 -10 15 -5 0 -10 20 -10 45 0 38 -3 45 -20
45 -13 0 -20 7 -20 20 0 13 -7 20 -20 20 -11 0 -20 5 -20 10 0 6 7 10 15 10 8
0 15 4 15 10 0 6 -36 9 -89 7 l-89 -2 6 -77 c6 -96 -2 -102 -90 -64 -87 38
-158 114 -158 170 0 13 -7 31 -15 40 -14 13 -12 15 17 19 18 2 -50 5 -152 5
-102 1 -243 6 -315 12 -71 6 -218 17 -325 25 -178 14 -374 17 -475 8z m570
-168 c259 -41 505 -134 768 -292 147 -89 241 -164 380 -307 272 -281 422 -519
531 -846 82 -244 106 -374 113 -605 8 -294 -26 -507 -128 -784 -94 -256 -249
-496 -469 -725 -274 -286 -687 -513 -1076 -591 -539 -110 -1108 -2 -1565 297
-335 219 -597 511 -764 853 -54 109 -136 328 -156 415 -112 483 -55 978 163
1415 138 276 365 548 629 756 305 240 701 403 1044 429 133 11 418 2 530 -15z"/>
<path d="M4890 6944 c-444 -55 -775 -193 -1088 -457 -437 -368 -691 -883 -709
-1438 -8 -245 15 -414 88 -634 95 -285 253 -547 459 -759 261 -269 613 -475
934 -547 238 -53 244 -54 471 -53 214 0 224 1 391 36 304 65 561 181 792 357
93 71 253 226 310 303 22 29 60 78 83 108 52 67 114 171 176 293 321 640 237
1420 -217 2017 -133 174 -274 303 -490 449 -257 172 -465 255 -770 307 -84 15
-363 26 -430 18z m455 -140 c345 -57 644 -207 932 -469 173 -156 371 -448 463
-680 37 -93 91 -297 116 -440 63 -359 -37 -829 -252 -1177 -134 -219 -347
-437 -564 -578 -112 -72 -339 -177 -463 -215 -172 -51 -269 -66 -472 -72 -452
-13 -798 97 -1157 368 -367 277 -641 714 -717 1147 -66 370 7 821 185 1147
137 251 309 452 535 625 235 180 472 285 764 341 231 44 380 45 630 3z"/>
<path d="M4865 6689 c-106 -12 -309 -63 -420 -105 -199 -77 -434 -231 -592
-390 -158 -160 -313 -403 -399 -626 -125 -324 -136 -744 -28 -1074 84 -257
293 -576 490 -748 239 -209 483 -334 773 -397 153 -33 434 -38 626 -10 352 51
632 190 889 440 218 213 363 444 450 721 143 451 83 936 -167 1354 -91 153
-158 236 -289 361 -141 135 -264 221 -443 310 -288 144 -581 198 -890 164z
m503 -148 c405 -85 787 -368 1018 -755 79 -131 102 -183 149 -327 51 -157 64
-223 75 -361 20 -266 -38 -565 -156 -799 -191 -382 -522 -668 -928 -801 -158
-52 -284 -70 -486 -71 -186 -1 -317 19 -482 75 -476 159 -859 542 -1018 1016
-139 416 -68 945 177 1321 255 392 666 661 1103 721 117 16 432 5 548 -19z"/>
<path d="M4813 6395 c-166 -25 -387 -113 -536 -213 -191 -128 -417 -387 -513
-590 -35 -75 -91 -250 -111 -352 -26 -129 -23 -402 5 -535 95 -435 339 -754
742 -970 198 -106 344 -143 596 -152 127 -5 183 -2 265 12 377 63 670 237 888
527 182 242 275 474 302 752 24 247 -42 557 -168 784 -193 350 -554 627 -943
722 -112 28 -392 36 -527 15z m116 -189 c23 -25 23 -53 -1 -83 -25 -32 -88 0
-88 44 0 25 32 63 53 63 8 0 24 -11 36 -24z m-267 -73 c37 -33 13 -82 -33 -68
-33 11 -24 78 10 84 3 1 13 -6 23 -16z m-137 -49 c24 -36 13 -63 -43 -104 -86
-64 -137 -109 -176 -158 -21 -27 -51 -57 -67 -66 -29 -17 -30 -17 -59 13 -51
50 -37 84 78 192 83 78 192 149 228 149 12 0 29 -11 39 -26z m807 -71 c48 -24
82 -111 67 -168 -13 -46 -68 -101 -111 -108 -52 -10 -108 8 -146 46 -78 78
-40 202 75 242 40 14 70 11 115 -12z m-605 -139 c108 -88 108 -230 1 -317 -29
-23 -49 -30 -100 -34 -59 -5 -66 -3 -112 28 -64 44 -87 76 -93 132 -6 53 10
109 45 156 57 77 186 94 259 35z m1168 -63 c89 -41 132 -135 105 -231 -21 -76
-108 -140 -191 -140 -36 0 -123 44 -147 74 -29 38 -45 118 -32 166 32 117 159
180 265 131z m-1789 -134 l27 -24 -33 -61 c-58 -109 -108 -140 -157 -98 -39
34 -26 80 40 150 59 62 82 68 123 33z m842 -256 c94 -49 148 -163 123 -258
-32 -118 -156 -194 -268 -164 -96 26 -183 134 -183 225 0 48 37 131 71 163 59
54 185 71 257 34z m540 -15 c89 -47 138 -168 98 -244 -49 -93 -157 -128 -254
-81 -63 31 -96 86 -97 160 0 68 18 98 89 147 54 36 116 43 164 18z m714 -23
c25 -22 23 -55 -7 -87 -30 -33 -38 -33 -64 0 -25 32 -26 52 -5 82 18 26 50 28
76 5z m-1879 -30 c41 -21 71 -92 62 -149 -7 -52 -55 -99 -110 -110 -44 -8
-118 18 -140 49 -44 63 -39 140 13 190 51 49 107 55 175 20z m1800 -179 c42
-22 76 -53 94 -88 20 -39 20 -133 0 -172 -51 -99 -184 -131 -279 -69 -64 42
-102 147 -79 217 14 41 64 96 106 114 42 18 120 17 158 -2z m-2182 -159 c57
-30 64 -92 15 -141 -45 -45 -95 -47 -137 -5 -16 16 -29 39 -29 51 0 36 30 81
63 95 41 18 52 18 88 0z m714 -191 c69 -35 138 -107 173 -182 22 -47 26 -71
27 -142 0 -73 -4 -93 -28 -142 -35 -72 -89 -126 -169 -169 -58 -31 -70 -34
-148 -34 -73 0 -93 4 -141 29 -80 40 -146 107 -183 185 -28 59 -31 75 -30 156
0 68 5 101 21 136 22 49 78 117 123 149 80 57 257 64 355 14z m997 -1 c36 -32
11 -103 -35 -103 -26 0 -67 38 -67 61 0 20 45 59 68 59 9 0 24 -7 34 -17z
m-461 -52 c38 -38 39 -82 3 -110 -83 -65 -182 39 -108 113 35 34 68 33 105 -3z
m590 -151 c46 -13 118 -75 135 -117 8 -18 14 -53 14 -78 0 -63 -20 -105 -71
-148 -88 -76 -179 -73 -256 7 -48 50 -79 135 -68 189 25 118 127 180 246 147z
m-1807 -51 c45 -35 49 -53 19 -83 -32 -33 -67 -33 -98 -1 -32 31 -31 40 4 76
35 35 40 35 75 8z m2161 -4 c31 -30 32 -65 2 -94 -20 -18 -29 -20 -49 -12 -52
20 -73 78 -41 113 23 25 59 23 88 -7z m-855 -59 c0 -11 -19 -15 -25 -6 -3 5 1
10 9 10 9 0 16 -2 16 -4z m-153 -360 c80 -87 59 -212 -43 -258 -90 -39 -183 2
-220 98 -14 38 -15 51 -5 84 36 120 188 163 268 76z m378 -21 c30 -30 32 -64
4 -99 -40 -51 -129 -21 -129 42 0 31 15 54 45 70 31 18 54 14 80 -13z m-871
-136 c33 -26 35 -75 5 -113 -28 -35 -61 -33 -93 5 -34 40 -33 64 3 100 35 34
49 36 85 8z"/>
<path d="M5210 5940 c-27 -27 -27 -85 -1 -100 30 -16 76 -12 94 8 37 41 6 112
-48 112 -14 0 -34 -9 -45 -20z"/>
<path d="M4554 5821 c-30 -19 -54 -64 -54 -103 0 -11 15 -35 34 -54 56 -56
135 -44 171 26 30 59 18 103 -36 130 -48 25 -76 25 -115 1z m56 -66 c0 -21 -6
-35 -16 -39 -35 -13 -46 23 -18 62 20 29 34 20 34 -23z"/>
<path d="M5756 5695 c-35 -32 -36 -86 -1 -120 33 -34 102 -35 133 -2 36 38 38
78 7 115 -22 27 -34 32 -69 32 -32 0 -50 -6 -70 -25z"/>
<path d="M4788 5330 c-25 -15 -58 -74 -58 -104 0 -64 66 -136 125 -136 39 0
84 33 106 76 28 59 20 102 -27 143 -28 25 -43 31 -82 31 -26 0 -55 -5 -64 -10z
m70 -56 c2 -11 -6 -28 -17 -38 -17 -15 -23 -16 -36 -6 -19 16 -19 29 2 52 21
23 47 19 51 -8z"/>
<path d="M5362 5300 c-33 -31 -30 -92 4 -119 38 -30 80 -27 115 8 16 16 29 37
29 46 0 21 -19 57 -39 72 -26 20 -84 16 -109 -7z"/>
<path d="M4205 5270 c-23 -25 -13 -63 20 -78 49 -22 92 28 65 77 -14 27 -61
28 -85 1z"/>
<path d="M5976 5061 c-38 -40 -37 -77 3 -113 43 -39 92 -38 132 1 61 62 24
141 -65 141 -34 0 -48 -6 -70 -29z"/>
<path d="M4395 4723 c-106 -56 -147 -184 -96 -298 29 -65 64 -102 126 -131 61
-29 106 -30 165 -3 95 43 144 116 144 219 0 138 -98 230 -244 230 -39 -1 -77
-7 -95 -17z m73 -65 c20 -20 15 -91 -8 -116 -24 -26 -47 -28 -78 -6 -39 27
-25 91 26 118 33 19 45 19 60 4z"/>
<path d="M5687 4519 c-23 -13 -47 -62 -47 -95 0 -38 59 -94 100 -94 48 0 90
47 90 100 0 75 -81 125 -143 89z"/>
<path d="M4970 4070 c-41 -41 -13 -110 45 -110 37 0 75 37 75 71 0 29 -36 59
-70 59 -17 0 -39 -9 -50 -20z"/>
<path d="M7744 7248 c-3 -5 5 -21 17 -35 23 -23 24 -34 30 -191 l6 -167 0 190
1 191 -24 11 c-15 7 -26 8 -30 1z"/>
<path d="M6599 7233 c-13 -16 -12 -17 4 -4 9 7 17 15 17 17 0 8 -8 3 -21 -13z"/>
<path d="M6072 7150 c0 -19 2 -27 5 -17 2 9 2 25 0 35 -3 9 -5 1 -5 -18z"/>
<path d="M6368 7143 c6 -2 18 -2 25 0 6 3 1 5 -13 5 -14 0 -19 -2 -12 -5z"/>
<path d="M3230 7059 c0 -74 8 -75 11 -1 l3 52 40 -1 c35 -1 38 -2 16 -9 l-25
-8 25 -1 c14 0 31 3 39 8 15 10 40 -12 41 -34 0 -5 -5 -3 -11 5 -8 12 -9 9 -3
-9 3 -13 6 -42 6 -65 1 -64 16 -5 17 65 l1 56 -80 2 -80 2 0 -62z"/>
<path d="M6745 7102 c3 -8 5 -56 5 -108 l0 -94 63 0 c58 0 64 2 95 35 18 20
32 46 32 60 0 26 15 34 23 13 3 -9 11 -6 24 10 11 12 28 22 37 22 9 0 16 5 16
10 0 6 18 10 40 10 30 0 40 4 40 16 0 14 7 15 37 11 21 -4 39 -11 41 -17 2 -6
44 -10 103 -10 59 0 99 -4 99 -10 0 -5 18 -10 40 -10 36 0 40 3 40 25 0 18 5
25 20 25 15 0 20 -7 20 -25 0 -18 5 -25 19 -25 13 0 20 -9 24 -30 7 -32 0 -60
-14 -60 -14 0 -11 -28 4 -33 6 -3 -32 -3 -86 -1 -66 3 -96 1 -92 -6 4 -6 52
-10 118 -10 l112 0 2 108 2 108 -435 0 c-357 -1 -433 -3 -429 -14z"/>
<path d="M2728 7103 c6 -2 18 -2 25 0 6 3 1 5 -13 5 -14 0 -19 -2 -12 -5z"/>
<path d="M2817 7054 c45 -45 53 -59 59 -103 l7 -51 86 2 86 2 -82 3 -83 4 -1
32 c-2 31 -4 50 -8 72 -3 20 -40 56 -62 60 -11 2 -28 10 -37 17 -10 7 6 -10
35 -38z"/>
<path d="M2555 6930 c-33 -4 -51 -8 -40 -10 11 -1 27 -1 35 0 10 1 9 -3 -5
-14 -19 -14 -14 -15 63 -16 81 0 82 0 82 25 0 28 -10 29 -135 15z"/>
<path d="M6958 6913 c23 -2 61 -2 85 0 23 2 4 4 -43 4 -47 0 -66 -2 -42 -4z"/>
<path d="M3268 6903 c23 -2 61 -2 85 0 23 2 4 4 -43 4 -47 0 -66 -2 -42 -4z"/>
<path d="M7980 6756 c0 -2 8 -10 18 -17 15 -13 16 -12 3 4 -13 16 -21 21 -21
13z"/>
<path d="M2502 6713 c37 -2 100 -2 140 0 40 1 10 3 -67 3 -77 0 -110 -1 -73
-3z"/>
<path d="M2843 6713 c70 -2 184 -2 255 0 70 1 12 3 -128 3 -140 0 -198 -2
-127 -3z"/>
<path d="M3238 6713 c6 -2 18 -2 25 0 6 3 1 5 -13 5 -14 0 -19 -2 -12 -5z"/>
<path d="M3448 6713 c6 -2 18 -2 25 0 6 3 1 5 -13 5 -14 0 -19 -2 -12 -5z"/>
<path d="M6630 6713 c0 -7 323 -7 705 0 83 1 -42 4 -277 5 -236 1 -428 -1
-428 -5z"/>
<path d="M2336 6689 c-74 -25 -131 -64 -189 -128 -43 -48 -107 -165 -107 -193
1 -7 19 25 42 72 41 85 131 190 163 190 8 0 15 5 15 11 0 5 5 7 10 4 6 -3 10
0 10 7 0 9 3 9 10 -2 8 -13 10 -12 10 3 0 10 8 17 18 17 10 0 22 4 28 9 5 6
21 11 36 13 15 2 30 7 34 11 13 12 -20 7 -80 -14z"/>
<path d="M7767 6669 c7 -7 15 -10 18 -7 3 3 -2 9 -12 12 -14 6 -15 5 -6 -5z"/>
<path d="M7830 6637 c0 -3 17 -17 37 -33 20 -15 33 -23 29 -16 -8 13 -66 56
-66 49z"/>
<path d="M7920 6556 c0 -2 8 -10 18 -17 15 -13 16 -12 3 4 -13 16 -21 21 -21
13z"/>
<path d="M8140 6549 c0 -5 5 -7 10 -4 6 3 10 8 10 11 0 2 -4 4 -10 4 -5 0 -10
-5 -10 -11z"/>
<path d="M7323 6533 c9 -2 23 -2 30 0 6 3 -1 5 -18 5 -16 0 -22 -2 -12 -5z"/>
<path d="M7959 6501 c6 -10 7 -22 3 -26 -4 -5 -1 -5 6 -1 9 5 9 12 2 27 -6 10
-13 19 -16 19 -2 0 0 -8 5 -19z"/>
<path d="M8183 6450 c4 -14 9 -52 13 -83 4 -32 10 -54 14 -50 8 8 -16 143 -27
153 -3 3 -3 -6 0 -20z"/>
<path d="M7432 6420 c0 -14 2 -19 5 -12 2 6 2 18 0 25 -3 6 -5 1 -5 -13z"/>
<path d="M7992 6435 c0 -5 6 -26 13 -45 7 -19 14 -28 14 -20 0 8 -6 29 -14 45
-7 17 -13 26 -13 20z"/>
<path d="M2031 6334 c0 -11 3 -14 6 -6 3 7 2 16 -1 19 -3 4 -6 -2 -5 -13z"/>
<path d="M7280 6326 c0 -2 7 -7 16 -10 8 -3 12 -2 9 4 -6 10 -25 14 -25 6z"/>
<path d="M7328 6313 c6 -2 18 -2 25 0 6 3 1 5 -13 5 -14 0 -19 -2 -12 -5z"/>
<path d="M8213 6255 c0 -27 2 -38 4 -22 2 15 2 37 0 50 -2 12 -4 0 -4 -28z"/>
<path d="M2022 6140 c0 -14 2 -19 5 -12 2 6 2 18 0 25 -3 6 -5 1 -5 -13z"/>
<path d="M8341 6148 c2 -2 22 -19 44 -38 22 -19 32 -26 22 -14 -9 11 -14 24
-10 29 5 4 3 5 -3 2 -7 -4 -17 0 -24 8 -7 8 -17 15 -23 15 -6 0 -8 -1 -6 -2z"/>
<path d="M8430 6050 c6 -11 13 -20 16 -20 2 0 0 9 -6 20 -6 11 -13 20 -16 20
-2 0 0 -9 6 -20z"/>
<path d="M1789 5969 c-17 -17 -20 -29 -16 -56 7 -42 33 -74 53 -66 9 3 14 0
12 -8 -2 -10 15 -15 69 -20 40 -3 76 -8 79 -12 4 -3 16 10 26 31 11 20 34 52
51 70 l31 32 -40 0 c-22 0 -66 7 -98 15 -32 9 -73 14 -90 13 -28 -2 -32 -5
-28 -28 2 -15 -3 -33 -10 -41 -8 -8 -17 -21 -20 -29 -3 -9 -10 2 -18 27 -10
34 -11 45 0 58 7 8 16 13 19 10 4 -2 8 2 8 10 0 20 -3 19 -28 -6z m51 -93 c0
-2 -8 -10 -17 -17 -16 -13 -17 -12 -4 4 13 16 21 21 21 13z"/>
<path d="M1593 5920 c0 -25 2 -35 4 -22 2 12 2 32 0 45 -2 12 -4 2 -4 -23z"/>
<path d="M2778 5933 c7 -3 16 -2 19 1 4 3 -2 6 -13 5 -11 0 -14 -3 -6 -6z"/>
<path d="M2828 5933 c6 -2 18 -2 25 0 6 3 1 5 -13 5 -14 0 -19 -2 -12 -5z"/>
<path d="M8058 5933 c12 -2 30 -2 40 0 9 3 -1 5 -23 4 -22 0 -30 -2 -17 -4z"/>
<path d="M2158 5923 c7 -3 16 -2 19 1 4 3 -2 6 -13 5 -11 0 -14 -3 -6 -6z"/>
<path d="M2313 5923 c59 -2 155 -2 215 0 59 1 10 3 -108 3 -118 0 -167 -2
-107 -3z"/>
<path d="M7363 5923 c93 -2 241 -2 330 0 89 1 14 3 -168 3 -181 0 -254 -2
-162 -3z"/>
<path d="M8454 5855 c-5 -24 -7 -42 -2 -39 8 5 23 73 16 79 -2 2 -8 -16 -14
-40z"/>
<path d="M8220 5839 c-14 -6 -52 -7 -89 -3 -44 4 -62 3 -57 -4 3 -6 -2 -12
-11 -14 -10 -3 18 -2 62 0 44 3 94 10 110 17 35 16 22 18 -15 4z"/>
<path d="M1614 5815 c9 -13 16 -31 16 -40 0 -9 6 -18 14 -21 9 -3 12 -12 9
-21 -4 -11 -3 -14 6 -9 8 5 14 1 18 -13 3 -11 9 -18 14 -15 5 3 9 0 9 -5 0 -6
3 -10 8 -9 4 1 21 -5 37 -15 17 -9 26 -16 20 -17 -13 0 16 -20 30 -20 6 0 3 5
-5 11 -13 9 -13 10 0 5 8 -3 23 -9 32 -12 14 -5 18 -22 21 -103 l3 -96 2 107
2 106 -32 7 c-74 16 -153 79 -183 145 -10 22 -22 40 -28 40 -5 0 -2 -11 7 -25z"/>
<path d="M8415 5769 c-4 -6 -5 -12 -2 -15 2 -3 7 2 10 11 7 17 1 20 -8 4z"/>
<path d="M8365 5714 c-18 -16 -22 -22 -9 -15 18 9 53 42 43 41 -2 -1 -17 -12
-34 -26z"/>
<path d="M8290 5670 c-9 -6 -10 -10 -3 -10 6 0 15 5 18 10 8 12 4 12 -15 0z"/>
<path d="M8233 5653 c9 -2 23 -2 30 0 6 3 -1 5 -18 5 -16 0 -22 -2 -12 -5z"/>
<path d="M8223 5590 c0 -30 2 -43 4 -27 2 15 2 39 0 55 -2 15 -4 2 -4 -28z"/>
<path d="M8222 5415 c0 -16 2 -22 5 -12 2 9 2 23 0 30 -3 6 -5 -1 -5 -18z"/>
<path d="M8035 4620 c0 -234 1 -329 2 -213 2 117 2 309 0 425 -1 117 -2 22 -2
-212z"/>
<path d="M8223 3900 c0 -36 2 -50 4 -32 2 17 2 47 0 65 -2 17 -4 3 -4 -33z"/>
<path d="M8212 3740 c0 -14 2 -19 5 -12 2 6 2 18 0 25 -3 6 -5 1 -5 -13z"/>
<path d="M8212 3680 c0 -19 2 -27 5 -17 2 9 2 25 0 35 -3 9 -5 1 -5 -18z"/>
<path d="M2051 3574 c0 -11 3 -14 6 -6 3 7 2 16 -1 19 -3 4 -6 -2 -5 -13z"/>
<path d="M2071 3514 c0 -11 3 -14 6 -6 3 7 2 16 -1 19 -3 4 -6 -2 -5 -13z"/>
<path d="M2060 3185 c19 -19 36 -35 39 -35 3 0 -10 16 -29 35 -19 19 -36 35
-39 35 -3 0 10 -16 29 -35z"/>
<path d="M7939 3123 c-13 -17 -13 -17 6 -3 11 8 22 16 24 17 2 2 0 3 -6 3 -6
0 -17 -8 -24 -17z"/>
<path d="M2141 3108 c51 -45 71 -59 75 -55 3 3 -19 21 -48 41 -29 21 -41 27
-27 14z"/>
<path d="M2658 3083 c12 -2 32 -2 45 0 12 2 2 4 -23 4 -25 0 -35 -2 -22 -4z"/>
<path d="M6518 3083 c23 -2 61 -2 85 0 23 2 4 4 -43 4 -47 0 -66 -2 -42 -4z"/>
<path d="M7845 3054 c-58 -39 -67 -51 -17 -23 37 20 73 49 61 49 -3 0 -22 -12
-44 -26z"/>
<path d="M2320 2986 c0 -2 7 -7 16 -10 8 -3 12 -2 9 4 -6 10 -25 14 -25 6z"/>
<path d="M2360 2969 c0 -5 9 -9 20 -9 11 0 20 2 20 4 0 2 -9 6 -20 9 -11 3
-20 1 -20 -4z"/>
<path d="M2858 2893 c78 -2 206 -2 285 0 78 1 14 3 -143 3 -157 0 -221 -2
-142 -3z"/>
<path d="M3407 2893 c18 -2 50 -2 70 0 21 2 7 4 -32 4 -38 0 -55 -2 -38 -4z"/>
<path d="M6818 2893 c34 -2 90 -2 125 0 34 2 6 3 -63 3 -69 0 -97 -1 -62 -3z"/>
<path d="M7123 2893 c48 -2 125 -2 170 0 45 1 6 3 -88 3 -93 0 -130 -2 -82 -3z"/>
<path d="M6443 2883 c9 -2 23 -2 30 0 6 3 -1 5 -18 5 -16 0 -22 -2 -12 -5z"/>
<path d="M6588 2883 c17 -2 47 -2 65 0 17 2 3 4 -33 4 -36 0 -50 -2 -32 -4z"/>
<path d="M3125 2693 c-11 -3 -24 -9 -29 -14 -5 -5 5 -4 24 1 51 15 55 25 5 13z"/>
<path d="M6913 2693 c9 -2 25 -2 35 0 9 3 1 5 -18 5 -19 0 -27 -2 -17 -5z"/>
<path d="M6258 2683 c12 -2 32 -2 45 0 12 2 2 4 -23 4 -25 0 -35 -2 -22 -4z"/>
<path d="M3227 2669 c7 -7 15 -10 18 -7 3 3 -2 9 -12 12 -14 6 -15 5 -6 -5z"/>
<path d="M6208 2673 c7 -3 16 -2 19 1 4 3 -2 6 -13 5 -11 0 -14 -3 -6 -6z"/>
<path d="M6355 2669 c54 -32 71 -93 36 -128 -25 -25 -76 -35 -148 -29 -45 4
-53 3 -40 -7 9 -7 14 -15 11 -18 -4 -4 14 -6 40 -5 25 0 46 4 46 9 0 5 14 9
31 9 43 0 89 47 89 92 -1 38 -26 73 -61 82 -22 6 -22 6 -4 -5z"/>
<path d="M7003 2668 c17 -14 37 -59 37 -84 0 -9 -13 -29 -29 -45 -61 -61 -189
-25 -192 54 l-1 32 -8 -34 c-8 -34 5 -61 29 -61 6 0 8 -7 5 -15 -5 -12 3 -15
32 -16 22 -1 42 -1 47 0 4 0 7 -4 7 -10 0 -8 5 -8 15 1 8 7 15 9 15 6 0 -8 55
29 78 50 29 29 -3 134 -41 134 -6 0 -3 -6 6 -12z"/>
<path d="M3054 2648 l-19 -23 23 19 c12 11 22 21 22 23 0 8 -8 2 -26 -19z"/>
<path d="M3260 2631 c32 -61 -17 -116 -104 -115 -69 1 -113 30 -119 77 l-4 32
-1 -31 c-3 -51 34 -84 101 -91 49 -5 62 -2 102 21 45 27 46 28 43 73 -2 28 -8
48 -16 51 -11 3 -12 0 -2 -17z"/>
<path d="M3935 2530 c-3 -6 1 -7 9 -4 18 7 21 14 7 14 -6 0 -13 -4 -16 -10z"/>
</g>
</svg>
