<?xml version="1.0" standalone="no"?>
<!DOCTYPE svg PUBLIC "-//W3C//DTD SVG 20010904//EN"
 "http://www.w3.org/TR/2001/REC-SVG-20010904/DTD/svg10.dtd">
<svg version="1.0" xmlns="http://www.w3.org/2000/svg"
 width="270.000000pt" height="270.000000pt" viewBox="0 0 270.000000 270.000000"
 preserveAspectRatio="xMidYMid meet">

<g transform="translate(0.000000,270.000000) scale(0.100000,-0.100000)"
fill="#000000" stroke="none">
<path d="M254 2552 c-29 -19 -27 -95 3 -106 17 -7 43 10 43 27 0 7 -4 7 -12
-1 -24 -24 -38 -13 -38 27 0 38 19 68 28 43 2 -7 8 -12 14 -12 6 0 6 6 -2 15
-14 17 -20 18 -36 7z"/>
<path d="M496 2553 c-3 -3 -5 -29 -5 -57 l2 -51 7 40 6 40 17 -37 c24 -53 37
-47 36 15 -2 52 -2 52 -9 12 l-6 -40 -12 28 c-7 16 -12 32 -12 37 0 12 -16 21
-24 13z"/>
<path d="M588 2554 c-5 -4 -7 -30 -7 -58 l2 -51 7 40 6 40 17 -37 c24 -53 37
-47 36 15 -2 51 -2 51 -8 12 l-7 -40 -19 43 c-11 24 -23 40 -27 36z"/>
<path d="M677 2553 c-4 -3 -7 -28 -7 -55 0 -46 1 -48 28 -47 23 2 24 2 5 6
-13 2 -23 11 -23 19 0 8 10 19 23 24 l22 9 -22 0 c-14 1 -23 7 -23 16 0 9 10
20 23 25 21 8 21 9 1 9 -11 1 -24 -2 -27 -6z"/>
<path d="M153 2500 c0 -30 2 -43 4 -27 2 15 2 39 0 55 -2 15 -4 2 -4 -28z"/>
<path d="M323 2500 c0 -30 2 -43 4 -27 3 18 10 27 23 27 13 0 20 -9 23 -27 3
-23 4 -22 6 9 0 20 4 43 7 52 3 9 1 16 -5 16 -6 0 -11 -9 -11 -20 0 -29 -37
-27 -43 3 -2 12 -4 -3 -4 -33z"/>
<path d="M417 2503 c-14 -50 -12 -70 4 -40 12 21 39 23 39 2 0 -8 4 -15 10
-15 5 0 3 21 -5 48 -8 26 -15 48 -15 50 0 1 -4 2 -9 2 -6 0 -16 -21 -24 -47z
m33 7 c0 -11 -4 -20 -10 -20 -5 0 -10 9 -10 20 0 11 5 20 10 20 6 0 10 -9 10
-20z"/>
<path d="M740 2500 l0 -50 33 1 c23 1 26 3 10 6 -20 4 -23 11 -23 49 0 24 -4
44 -10 44 -5 0 -10 -22 -10 -50z"/>
<path d="M198 2493 c7 -3 16 -2 19 1 4 3 -2 6 -13 5 -11 0 -14 -3 -6 -6z"/>
<path d="M1684 2481 c-11 -5 -34 -25 -51 -44 -81 -92 -33 -215 100 -260 7 -2
2 -18 -11 -41 -27 -45 -27 -42 -2 -49 20 -5 20 -12 18 -284 l-3 -278 -292 -3
-293 -2 0 -90 c0 -50 -2 -90 -5 -90 -3 0 -24 9 -45 20 l-40 20 0 -20 c0 -19
-6 -20 -105 -20 -63 0 -105 -4 -105 -10 0 -6 40 -10 101 -10 92 0 101 -2 106
-20 5 -19 5 -19 44 0 21 11 40 20 43 20 3 0 7 -42 8 -92 l3 -93 293 -3 292 -2
0 -276 c0 -267 -1 -276 -20 -281 -25 -7 -25 -8 1 -49 24 -39 20 -49 -21 -58
-42 -8 -85 -53 -101 -104 -33 -112 76 -223 189 -193 44 12 100 66 111 107 l7
29 397 3 c250 1 397 6 397 12 0 6 -147 11 -397 12 l-397 3 -8 30 c-11 43 -63
93 -110 105 l-39 11 21 33 c24 40 25 56 5 56 -13 0 -15 38 -15 280 l0 280 290
0 290 0 0 195 0 195 -287 2 -288 3 -3 283 c-2 246 0 282 13 282 20 0 19 12 -5
53 l-20 34 40 12 c53 16 88 48 104 96 l14 40 396 3 c249 1 396 6 396 12 0 6
-147 11 -397 12 l-397 3 -8 30 c-4 17 -23 46 -43 65 -30 29 -42 34 -92 37 -32
1 -67 -1 -79 -6z m121 -23 c14 -6 25 -14 25 -18 0 -3 -18 -24 -40 -45 l-40
-39 -40 39 c-22 21 -40 42 -40 46 0 24 93 37 135 17z m-110 -78 l39 -40 -42
-42 c-48 -48 -60 -45 -69 21 -5 38 11 101 26 101 4 0 25 -18 46 -40z m175 10
c14 -33 8 -106 -9 -123 -8 -8 -23 0 -53 31 l-42 42 39 40 c21 22 42 40 46 40
4 0 12 -14 19 -30z m-75 -111 c39 -39 39 -41 21 -55 -11 -8 -41 -14 -66 -14
-25 0 -55 6 -66 14 -18 14 -18 16 21 55 21 23 42 41 45 41 3 0 24 -18 45 -41z
m525 -949 l0 -170 -570 0 -570 0 0 170 0 170 570 0 570 0 0 -170z m-515 -892
c14 -6 25 -14 25 -18 0 -3 -18 -24 -40 -45 l-40 -39 -40 39 c-22 21 -40 43
-40 47 0 25 92 36 135 16z m-110 -78 l39 -40 -42 -42 c-49 -50 -62 -44 -70 30
-4 46 9 92 26 92 5 0 26 -18 47 -40z m173 15 c7 -14 12 -39 12 -55 0 -30 -18
-80 -30 -80 -3 0 -24 18 -45 40 l-39 40 39 40 c21 22 42 40 45 40 4 0 12 -11
18 -25z m-76 -112 c21 -20 38 -40 38 -44 0 -15 -63 -31 -101 -26 -64 9 -69 21
-24 67 21 22 41 40 44 40 3 0 22 -17 43 -37z"/>
<path d="M1654 1356 c-7 -31 1 -46 26 -46 13 0 18 -5 14 -15 -4 -11 -13 -13
-28 -9 -17 5 -19 4 -8 -7 29 -31 61 22 48 77 -9 33 -44 32 -52 0z m43 -2 c8
-21 -13 -42 -28 -27 -13 13 -5 43 11 43 6 0 13 -7 17 -16z"/>
<path d="M1734 1366 c-3 -8 -4 -31 -2 -52 2 -31 7 -39 22 -39 25 0 40 43 27
78 -11 29 -38 36 -47 13z m34 -47 c-2 -19 -7 -33 -13 -32 -12 3 -19 49 -10 71
10 26 27 -2 23 -39z"/>
<path d="M1804 1369 c-10 -17 13 -36 27 -22 12 12 4 33 -11 33 -5 0 -12 -5
-16 -11z m26 -9 c0 -5 -4 -10 -10 -10 -5 0 -10 5 -10 10 0 6 5 10 10 10 6 0
10 -4 10 -10z"/>
<path d="M36 2383 c-3 -3 -6 -28 -6 -55 0 -53 19 -68 21 -15 l1 32 10 -32 c14
-43 24 -42 36 5 l10 37 1 -38 c1 -21 5 -36 9 -33 10 6 7 90 -4 96 -5 3 -13
-12 -18 -32 -12 -47 -22 -48 -30 -3 -7 35 -18 50 -30 38z"/>
<path d="M154 2376 c-3 -8 -4 -31 -2 -52 2 -32 7 -40 27 -42 13 -2 28 2 32 10
13 19 11 72 -3 86 -16 16 -47 15 -54 -2z m45 -18 c12 -32 2 -70 -18 -66 -27 5
-28 88 -1 88 6 0 14 -10 19 -22z"/>
<path d="M240 2335 c0 -52 1 -55 25 -55 41 0 61 63 29 94 -8 9 -24 16 -35 16
-16 0 -19 -7 -19 -55z m45 -1 c0 -29 -4 -40 -17 -42 -15 -3 -18 4 -18 36 0 21
3 42 7 46 15 15 28 -3 28 -40z"/>
<path d="M334 2335 c1 -47 3 -50 29 -53 27 -3 27 -3 25 50 l-2 53 -3 -47 c-3
-39 -8 -48 -23 -48 -15 0 -20 9 -23 48 l-4 47 1 -50z"/>
<path d="M422 2338 c-2 -57 -2 -58 26 -57 22 1 23 2 5 6 -19 4 -23 12 -26 56
l-3 52 -2 -57z"/>
<path d="M515 2380 c-13 -22 -32 -100 -24 -100 5 0 9 7 9 15 0 20 30 19 47 -2
13 -16 14 -16 9 -1 -3 9 -10 35 -16 57 -11 43 -15 47 -25 31z m15 -40 c0 -11
-4 -20 -10 -20 -5 0 -10 9 -10 20 0 11 5 20 10 20 6 0 10 -9 10 -20z"/>
<path d="M568 2383 c7 -3 12 -24 12 -54 0 -27 5 -49 10 -49 6 0 10 22 10 49 0
30 5 51 13 54 6 3 -4 5 -23 5 -19 0 -29 -2 -22 -5z"/>
<path d="M645 2379 c-11 -16 -8 -80 3 -91 32 -32 76 29 54 77 -12 26 -45 34
-57 14z m43 -48 c3 -37 1 -42 -15 -39 -19 3 -30 46 -19 75 11 28 31 7 34 -36z"/>
<path d="M731 2333 c1 -40 3 -50 8 -33 9 31 35 33 39 3 2 -13 7 -23 12 -23 5
0 7 7 4 15 -3 8 -7 32 -7 52 -2 34 -5 38 -29 41 -28 3 -28 3 -27 -55z m47 24
c2 -12 -3 -17 -17 -17 -15 0 -21 6 -21 21 0 25 33 22 38 -4z"/>
<path d="M1500 2371 c0 -21 -3 -21 -325 -21 -210 0 -325 -4 -325 -10 0 -6 115
-10 325 -10 318 0 325 0 325 -20 0 -11 2 -20 4 -20 11 0 76 43 76 49 0 4 -18
17 -40 30 -40 22 -40 22 -40 2z"/>
<path d="M447 2213 c-11 -10 -8 -91 3 -98 6 -4 10 15 10 49 0 57 -1 61 -13 49z"/>
<path d="M486 2213 c-10 -10 -7 -93 4 -93 6 0 10 15 11 33 l1 32 15 -37 c22
-54 33 -47 31 20 l-1 57 -6 -45 -6 -45 -13 37 c-14 39 -25 52 -36 41z"/>
<path d="M577 2213 c-11 -10 -8 -91 3 -98 6 -4 10 5 10 19 0 19 5 26 19 26 25
0 34 14 26 40 -6 19 -44 28 -58 13z m43 -23 c0 -11 -7 -20 -15 -20 -8 0 -15 9
-15 20 0 11 7 20 15 20 8 0 15 -9 15 -20z"/>
<path d="M657 2208 c-13 -25 -4 -80 14 -91 33 -21 49 -1 47 55 l-1 53 -6 -50
c-4 -36 -11 -51 -23 -53 -14 -3 -17 6 -20 50 -2 35 -6 47 -11 36z"/>
<path d="M748 2213 c7 -3 12 -24 12 -54 0 -31 4 -48 10 -44 6 3 10 26 10 50 0
25 5 45 13 48 6 3 -4 5 -23 5 -19 0 -29 -2 -22 -5z"/>
<path d="M2622 1328 l3 -193 38 -3 c28 -2 37 0 37 12 0 10 -9 16 -25 16 l-25
0 0 170 0 170 25 0 c14 0 25 5 25 10 0 6 -18 10 -40 10 l-40 0 2 -192z"/>
<path d="M657 1469 c-5 -9 -7 -34 -5 -55 3 -35 6 -39 33 -41 19 -1 22 1 8 4
-19 4 -22 12 -25 56 -2 35 -6 46 -11 36z"/>
<path d="M729 1456 c-17 -36 1 -81 32 -81 17 0 26 8 33 27 21 59 -40 109 -65
54z m49 -28 c-4 -51 -31 -61 -36 -15 -4 37 4 57 23 57 13 0 15 -9 13 -42z"/>
<path d="M447 1303 c-11 -10 -8 -93 3 -93 6 0 10 23 10 50 0 51 -1 55 -13 43z"/>
<path d="M480 1260 c0 -57 20 -69 21 -12 l1 37 12 -34 c20 -56 36 -51 35 11
-2 52 -2 53 -9 13 l-6 -40 -12 28 c-7 16 -12 33 -12 38 0 5 -7 9 -15 9 -11 0
-15 -12 -15 -50z"/>
<path d="M570 1261 c0 -28 5 -51 10 -51 6 0 10 8 10 18 0 9 10 22 23 27 12 6
22 19 22 30 0 15 -8 21 -32 23 l-33 3 0 -50z m50 19 c0 -11 -7 -20 -15 -20 -8
0 -15 9 -15 20 0 11 7 20 15 20 8 0 15 -9 15 -20z"/>
<path d="M658 1304 c-13 -12 -9 -69 5 -88 10 -13 20 -16 35 -12 19 6 22 14 20
59 l-1 52 -6 -50 c-8 -69 -34 -70 -41 -2 -3 27 -8 45 -12 41z"/>
<path d="M748 1303 c7 -3 12 -23 12 -49 0 -24 5 -44 10 -44 6 0 10 20 10 44 0
26 5 46 13 49 6 3 -4 5 -23 5 -19 0 -29 -2 -22 -5z"/>
<path d="M111 546 c-7 -8 -11 -32 -9 -53 3 -35 6 -38 36 -41 32 -3 32 -3 32
40 0 60 -31 88 -59 54z m45 -23 c8 -29 -6 -58 -27 -58 -16 0 -23 27 -15 61 8
32 34 31 42 -3z"/>
<path d="M240 534 c-15 -39 0 -79 31 -79 16 0 25 7 27 20 4 20 3 20 -11 1 -19
-26 -37 -12 -37 29 0 39 14 52 37 33 14 -11 16 -11 11 2 -2 8 -14 16 -26 18
-16 3 -25 -4 -32 -24z"/>
<path d="M322 505 c1 -33 3 -48 5 -32 6 38 43 39 43 0 0 -14 3 -23 6 -20 9 9
10 97 2 97 -5 0 -8 -9 -8 -21 0 -29 -32 -21 -41 11 -5 16 -7 4 -7 -35z"/>
<path d="M430 553 c0 -5 -7 -29 -15 -55 -8 -27 -10 -48 -5 -48 6 0 10 7 10 15
0 8 9 15 20 15 11 0 20 -7 20 -15 0 -8 5 -15 11 -15 6 0 9 6 6 14 -3 8 -11 33
-17 55 -6 23 -15 41 -20 41 -6 0 -10 -3 -10 -7z m20 -43 c0 -11 -4 -20 -10
-20 -5 0 -10 9 -10 20 0 11 5 20 10 20 6 0 10 -9 10 -20z"/>
<path d="M496 553 c-3 -3 -5 -29 -4 -57 1 -43 2 -45 5 -13 5 45 17 48 29 5 16
-56 34 -46 32 19 l-1 58 -7 -45 -6 -45 -12 28 c-7 16 -12 32 -12 37 0 12 -16
21 -24 13z"/>
<path d="M582 503 c1 -43 2 -48 5 -20 5 45 17 48 29 5 16 -56 34 -46 32 19
l-1 58 -7 -45 c-6 -45 -9 -44 -29 13 -17 46 -31 31 -29 -30z"/>
<path d="M670 505 c0 -53 1 -55 28 -54 26 0 26 1 5 9 -13 5 -23 16 -23 25 0 9
9 15 23 16 l22 0 -22 9 c-13 5 -23 14 -23 20 0 6 10 15 23 20 21 8 21 9 -5 9
-27 1 -28 -1 -28 -54z"/>
<path d="M742 503 c3 -46 5 -48 33 -50 20 -1 23 0 8 4 -20 4 -23 11 -23 49 0
24 -5 44 -11 44 -6 0 -9 -19 -7 -47z"/>
<path d="M198 493 c7 -3 16 -2 19 1 4 3 -2 6 -13 5 -11 0 -14 -3 -6 -6z"/>
<path d="M37 383 c-11 -10 -8 -93 3 -93 6 0 10 15 11 33 l1 32 10 -37 c6 -21
13 -38 17 -38 4 0 12 17 18 38 l10 37 2 -32 c0 -18 4 -33 9 -33 11 0 6 94 -6
98 -5 1 -13 -13 -16 -32 -10 -50 -23 -53 -31 -6 -7 39 -14 48 -28 33z"/>
<path d="M154 376 c-3 -8 -4 -31 -2 -52 2 -29 8 -40 22 -43 37 -6 63 68 34 97
-16 16 -47 15 -54 -2z m48 -18 c6 -40 -3 -69 -21 -66 -16 3 -27 48 -17 74 8
22 34 16 38 -8z"/>
<path d="M240 334 c0 -54 1 -55 27 -52 55 6 54 108 -2 108 -24 0 -25 -3 -25
-56z m45 1 c0 -30 -4 -41 -17 -43 -15 -3 -18 4 -18 43 0 39 3 46 18 43 13 -2
17 -13 17 -43z"/>
<path d="M334 340 c1 -52 3 -55 26 -55 23 0 25 3 26 55 l1 55 -6 -50 c-4 -35
-10 -50 -21 -50 -11 0 -17 15 -21 50 l-6 50 1 -55z"/>
<path d="M422 338 c-2 -57 -2 -58 26 -57 22 1 23 2 5 6 -19 4 -23 12 -26 56
l-3 52 -2 -57z"/>
<path d="M500 339 c-7 -27 -9 -53 -6 -56 3 -4 6 1 6 10 0 22 36 22 44 1 4 -9
9 -15 11 -12 8 7 -25 108 -34 108 -5 0 -14 -23 -21 -51z m30 1 c0 -11 -4 -20
-10 -20 -5 0 -10 9 -10 20 0 11 5 20 10 20 6 0 10 -9 10 -20z"/>
<path d="M568 383 c7 -3 12 -23 12 -49 0 -24 5 -44 10 -44 6 0 10 20 10 44 0
26 5 46 13 49 6 3 -4 5 -23 5 -19 0 -29 -2 -22 -5z"/>
<path d="M640 366 c-5 -13 -5 -37 -1 -53 10 -39 51 -40 65 -1 21 58 -42 111
-64 54z m45 -32 c0 -28 -4 -39 -15 -39 -16 0 -26 45 -16 72 11 28 31 7 31 -33z"/>
<path d="M731 333 c1 -32 4 -45 6 -30 5 35 34 33 44 -3 5 -16 6 -6 5 30 -1 52
-2 55 -28 58 -28 3 -28 3 -27 -55z m44 27 c0 -8 -8 -16 -17 -18 -13 -2 -18 3
-18 18 0 15 5 20 18 18 9 -2 17 -10 17 -18z"/>
<path d="M1500 350 c0 -20 -6 -20 -325 -20 -210 0 -325 -4 -325 -10 0 -6 115
-10 325 -10 322 0 325 0 325 -21 0 -20 0 -20 40 2 22 13 40 26 40 31 0 4 -18
17 -40 28 l-40 20 0 -20z"/>
<path d="M447 213 c-11 -10 -8 -93 3 -93 6 0 10 23 10 50 0 51 -1 55 -13 43z"/>
<path d="M480 170 c0 -54 19 -71 21 -17 l1 32 15 -38 c22 -53 33 -46 32 21 -2
54 -2 55 -9 17 l-6 -40 -12 28 c-7 16 -12 33 -12 38 0 5 -7 9 -15 9 -11 0 -15
-12 -15 -50z"/>
<path d="M577 214 c-11 -11 -8 -94 3 -94 6 0 10 8 10 18 0 9 10 22 23 27 31
14 29 49 -3 53 -14 2 -29 0 -33 -4z m43 -24 c0 -11 -7 -20 -15 -20 -8 0 -15 9
-15 20 0 11 7 20 15 20 8 0 15 -9 15 -20z"/>
<path d="M658 214 c-13 -12 -9 -69 5 -88 7 -10 22 -17 33 -14 16 3 19 12 20
58 l1 55 -6 -50 c-8 -68 -34 -69 -41 -2 -3 27 -8 45 -12 41z"/>
<path d="M748 213 c7 -3 12 -23 12 -49 0 -24 5 -44 10 -44 6 0 10 20 10 44 0
26 5 46 13 49 6 3 -4 5 -23 5 -19 0 -29 -2 -22 -5z"/>
</g>
</svg>
