<?xml version="1.0" standalone="no"?>
<!DOCTYPE svg PUBLIC "-//W3C//DTD SVG 20010904//EN"
 "http://www.w3.org/TR/2001/REC-SVG-20010904/DTD/svg10.dtd">
<svg version="1.0" xmlns="http://www.w3.org/2000/svg"
 width="801.000000pt" height="796.000000pt" viewBox="0 0 801.000000 796.000000"
 preserveAspectRatio="xMidYMid meet">

<g transform="translate(0.000000,796.000000) scale(0.100000,-0.100000)"
fill="#000000" stroke="none">
<path d="M116 7953 c-4 -4 -31 -10 -59 -13 l-52 -5 -2 -156 -2 -157 31 -6 c17
-3 50 -6 74 -6 24 0 44 -4 44 -9 0 -11 -55 -31 -87 -31 -13 0 -33 -8 -43 -18
-20 -18 -20 -34 -18 -785 l3 -766 40 27 c162 109 174 121 178 177 2 23 -27 22
417 16 l245 -3 29 121 c17 66 27 124 22 128 -4 4 -40 7 -79 7 -154 -3 -513 -2
-537 1 -14 2 -33 4 -42 4 -11 1 -18 9 -18 21 0 18 7 20 85 20 52 0 97 6 117
15 18 8 77 17 131 20 96 7 107 11 86 32 -6 6 -8 16 -5 22 7 10 24 7 63 -11 15
-8 26 -8 35 -1 22 18 80 26 88 13 4 -6 35 -13 69 -14 l62 -2 63 125 c63 128
155 291 209 370 17 25 26 46 20 48 -13 5 -5 43 8 43 5 0 9 -5 9 -11 0 -15 30
9 30 25 1 18 122 89 168 98 37 6 50 4 92 -19 46 -25 65 -46 113 -125 13 -20
26 -28 54 -30 l38 -3 3 -63 c3 -56 1 -64 -17 -69 -17 -4 -19 -12 -15 -51 8
-86 11 -92 47 -92 53 0 60 -10 52 -73 -9 -70 1 -123 19 -104 7 7 18 22 25 35
21 39 26 24 23 -62 -3 -76 -1 -85 18 -99 17 -12 20 -22 17 -73 l-3 -59 -42 -3
-42 -3 0 -49 0 -49 -42 -12 c-42 -11 -233 -7 -245 5 -4 3 -8 31 -11 61 l-4 55
-112 1 c-61 0 -181 3 -266 5 l-155 4 -21 -67 c-12 -38 -18 -72 -13 -77 4 -5
20 -4 36 1 16 6 53 7 88 2 78 -10 220 -11 229 -2 7 7 -97 63 -117 63 -7 0 -23
12 -36 25 -44 47 57 21 109 -28 73 -69 91 -75 240 -76 l86 -1 -1 -42 c0 -66
-19 -84 -25 -25 l-5 48 -168 5 c-117 4 -167 2 -162 -5 3 -6 0 -11 -9 -11 -8 0
-16 4 -18 9 -3 8 -75 14 -130 11 -15 -1 -15 -3 0 -20 12 -15 18 -16 24 -7 4 6
8 8 8 3 0 -5 -7 -17 -16 -27 -13 -15 -20 -16 -38 -6 -11 7 -24 16 -27 20 -3 4
-20 0 -38 -10 -31 -18 -31 -19 -30 -92 1 -59 -2 -77 -15 -86 -9 -7 -16 -18
-16 -26 0 -8 5 -6 14 6 12 17 13 17 18 -8 5 -24 2 -26 -31 -29 l-36 -3 1 -100
c1 -55 4 -139 8 -187 7 -75 10 -88 26 -88 14 0 19 -12 25 -72 6 -67 5 -74 -15
-90 -21 -17 -22 -21 -12 -137 11 -140 8 -175 -19 -168 -23 6 -23 4 -5 -150 8
-65 18 -148 21 -185 l7 -68 34 0 34 0 0 -71 c0 -54 3 -68 13 -62 17 11 205 4
252 -10 l39 -11 -34 -8 c-19 -4 -88 -5 -153 -1 l-117 6 6 -34 c13 -74 58 -108
144 -109 30 0 100 -5 155 -10 138 -14 311 -14 364 -2 75 18 91 4 91 -84 0 -54
-3 -62 -21 -67 -17 -5 -20 -13 -19 -44 1 -21 -1 -48 -5 -61 -6 -19 -9 -20 -19
-8 -8 10 -49 15 -151 20 -77 3 -229 11 -337 18 -109 6 -200 9 -203 6 -3 -3 -1
-28 5 -55 l11 -50 262 -7 c299 -8 442 -18 453 -29 10 -10 29 -170 50 -417 12
-144 14 -256 10 -430 -3 -129 -6 -252 -6 -273 0 -23 -4 -36 -10 -32 -5 3 -10
17 -10 30 l0 24 -59 -30 c-33 -17 -87 -36 -120 -42 -34 -6 -61 -14 -61 -18 0
-4 24 -55 54 -115 51 -105 81 -173 141 -317 30 -71 43 -87 54 -68 8 13 158 -4
178 -20 7 -7 14 -6 18 1 4 6 14 8 24 5 9 -3 37 -6 61 -6 25 -1 59 -9 75 -18
l30 -16 -51 -3 c-28 -2 -116 1 -195 6 -79 6 -145 9 -147 7 -3 -3 95 -256 168
-435 29 -69 86 -215 127 -325 41 -110 79 -205 85 -212 10 -12 74 -20 218 -28
122 -7 117 -6 210 -16 47 -5 184 -18 305 -29 121 -11 234 -22 250 -25 17 -2
107 -12 200 -20 505 -47 823 -79 865 -89 14 -4 84 -11 155 -16 148 -11 528
-47 565 -54 62 -12 206 -28 325 -37 72 -5 157 -14 190 -19 33 -6 125 -14 205
-20 152 -10 187 -13 365 -36 159 -20 182 -22 370 -39 94 -8 242 -22 330 -31
266 -27 330 -32 337 -28 4 3 9 0 13 -6 3 -5 39 -10 78 -10 40 0 110 -5 157
-10 47 -6 153 -17 235 -25 83 -9 157 -18 165 -21 8 -3 49 -7 90 -9 41 -2 99
-7 128 -10 l52 -5 0 109 0 109 -67 6 c-38 4 -108 11 -158 16 -49 5 -142 14
-205 20 -63 6 -153 15 -200 20 -47 6 -168 19 -270 31 -102 11 -215 24 -251 29
-79 11 -514 55 -694 70 -160 14 -477 49 -483 54 -2 2 41 7 95 11 226 18 1039
-29 1583 -90 306 -34 602 -65 625 -65 l25 0 0 1364 0 1365 -52 10 c-29 6 -147
15 -263 20 -115 6 -291 15 -390 21 -99 5 -260 14 -357 20 -98 5 -219 19 -270
29 -51 11 -172 34 -268 51 -236 41 -328 58 -440 80 -166 33 -451 80 -700 115
-223 31 -385 63 -595 120 -96 25 -288 87 -330 106 -11 5 -60 23 -109 40 -49
16 -102 37 -117 45 -38 19 -56 18 -62 -6 -5 -19 -11 -20 -79 -15 -40 3 -86 9
-103 14 -25 7 -14 9 60 15 115 9 118 11 67 26 -53 16 -64 30 -60 72 3 32 4 33
57 38 42 4 56 9 62 25 6 15 8 16 8 4 1 -21 56 -24 691 -39 245 -6 767 -20
1160 -30 393 -11 884 -24 1090 -30 206 -5 476 -14 600 -20 124 -6 264 -10 313
-10 l87 0 0 228 0 229 -127 6 c-71 4 -162 7 -205 7 l-76 0 -7 -75 c-6 -57 -12
-78 -25 -85 -10 -5 -19 -7 -22 -5 -2 2 -184 9 -403 15 -220 5 -431 12 -470 15
-38 3 -218 10 -400 15 -181 5 -458 14 -615 20 -157 5 -429 14 -605 20 -176 6
-435 15 -576 21 -141 6 -316 9 -388 7 -72 -3 -131 -2 -131 1 0 14 47 34 85 36
43 2 761 -18 1225 -35 157 -5 413 -13 570 -16 157 -3 288 -8 291 -10 4 -2 181
-8 395 -14 368 -9 935 -28 998 -33 32 -2 38 9 40 78 l1 40 -115 1 c-63 1 -225
4 -360 8 -406 11 -644 15 -1335 26 -363 5 -678 12 -700 15 -22 2 -194 6 -382
7 -318 3 -341 4 -332 20 6 11 26 19 57 23 26 3 76 10 112 16 36 6 132 19 214
29 93 11 151 22 156 30 5 8 25 13 47 12 21 -1 85 7 143 17 58 11 143 24 190
29 72 9 87 14 105 35 11 14 34 31 50 38 23 9 26 13 12 16 -20 5 -13 23 9 23 8
0 14 -9 14 -19 0 -29 38 -51 87 -51 l43 0 0 39 c0 22 5 43 11 47 7 4 10 -9 8
-40 -2 -25 -1 -48 2 -51 7 -6 82 7 227 42 l113 27 232 -29 c128 -16 281 -30
340 -30 l108 0 -5 -45 c-3 -25 -8 -75 -12 -112 l-6 -67 443 -3 c287 -2 448 1
455 7 11 10 21 91 61 480 16 159 19 171 45 201 22 25 27 38 22 63 -4 17 -13
36 -20 42 -8 6 -14 18 -14 25 0 17 -24 18 -50 2 -17 -11 -22 -10 -28 0 -7 10
-98 12 -423 10 l-414 -3 -3 -25 c-2 -14 -6 -32 -9 -40 -10 -26 -15 -63 -14
-112 0 -27 -4 -48 -9 -48 -5 0 -8 -15 -8 -32 0 -51 -16 -111 -31 -116 -13 -4
-13 7 4 138 l5 45 -25 -27 c-21 -23 -34 -28 -74 -28 -26 0 -90 -9 -140 -19
-60 -13 -101 -17 -115 -11 -13 4 -83 5 -157 1 l-134 -8 140 -2 c90 -1 134 -5
124 -11 -40 -23 -212 -72 -293 -83 -60 -9 -90 -17 -89 -25 2 -6 -9 -14 -25
-18 -15 -3 -52 -13 -82 -21 -68 -18 -104 -21 -109 -8 -2 6 -11 15 -20 22 -19
13 -20 88 -2 106 10 9 11 6 7 -13 -12 -51 2 -56 116 -37 57 9 144 22 193 28
222 29 224 30 54 34 -58 2 -162 8 -230 15 -91 9 -124 10 -127 1 -6 -18 -19
-13 -25 9 -4 15 -14 20 -40 20 -19 0 -40 6 -46 14 -9 11 -2 13 41 10 53 -3 53
-3 -15 11 -57 12 -76 22 -110 55 -36 34 -170 110 -195 110 -13 0 -117 70 -107
72 11 1 48 3 143 6 57 2 62 4 62 25 0 30 45 95 57 83 3 -3 -18 -52 -37 -87 -5
-9 -7 -25 -5 -35 2 -11 4 -25 4 -32 2 -26 21 0 21 28 l0 28 95 7 96 7 57 -39
c130 -91 314 -178 417 -198 39 -7 39 -8 15 -17 -24 -10 -203 -5 -365 9 -48 4
-67 2 -60 -5 17 -17 298 -32 575 -29 l265 2 78 38 c42 21 77 42 77 47 0 15
-17 12 -62 -11 -100 -51 -245 -78 -263 -49 -3 6 0 10 9 10 26 0 301 92 315
106 25 23 8 24 -54 3 -160 -54 -350 -109 -379 -109 -17 0 -82 13 -144 30 -125
33 -258 96 -353 167 -57 43 -67 62 -31 61 9 0 67 5 127 11 61 7 151 16 200 21
274 26 418 41 424 44 3 2 42 7 86 11 44 4 87 11 97 16 9 5 45 9 80 9 43 1 58
4 47 10 -8 5 -327 14 -710 20 -382 5 -883 15 -1114 20 -231 6 -532 10 -669 10
-137 -1 -250 1 -252 2 -1 2 1 10 6 17 7 12 84 14 447 12 432 -2 525 -3 1378
-18 622 -11 790 -9 802 10 2 4 11 3 18 -3 9 -7 15 -7 19 -1 4 5 27 13 51 17
29 4 45 11 45 20 0 14 -13 13 -72 -3 -10 -2 -18 1 -18 8 0 8 -7 6 -19 -5 -13
-12 -21 -14 -26 -6 -3 5 -12 7 -18 3 -18 -11 -77 -13 -77 -2 0 5 3 9 8 10 13
1 46 7 87 16 22 4 347 7 723 5 l682 -3 0 135 0 136 -258 0 c-238 0 -260 1
-275 18 -10 10 -17 28 -17 39 0 12 -13 34 -30 50 -16 15 -30 35 -30 43 0 8 -9
26 -20 40 -11 14 -20 29 -20 34 0 5 -18 33 -40 62 -22 29 -40 61 -40 71 0 23
-36 83 -50 83 -20 0 -50 65 -50 108 0 27 -7 54 -19 71 -11 15 -28 47 -37 71
-17 42 -64 93 -108 116 -11 7 -54 17 -93 24 -40 6 -73 15 -73 18 1 4 5 27 10
52 12 58 -7 187 -22 154 -6 -12 -21 -27 -35 -33 -25 -11 -25 -11 -20 17 4 18
0 39 -12 58 -24 39 -51 121 -51 154 0 28 16 50 37 50 10 0 11 -5 3 -19 -13
-25 -13 -61 0 -61 6 0 22 8 37 17 24 16 26 16 39 -2 8 -10 16 -17 18 -14 3 2
10 51 16 109 6 58 17 111 24 118 11 11 108 15 457 22 418 7 445 7 463 -10 20
-19 21 -3 -19 -320 -8 -63 -28 -232 -45 -375 -37 -312 -66 -524 -75 -547 -6
-15 -2 -18 23 -18 33 0 196 62 222 84 8 7 32 21 53 31 43 20 49 39 10 31 -16
-3 -48 -6 -73 -8 -35 -2 -45 1 -48 14 -4 20 36 34 70 25 29 -8 80 3 75 17 -2
6 -26 11 -53 12 -27 0 -71 1 -98 2 l-49 2 6 67 c6 85 16 93 119 93 l78 0 0
125 0 125 -26 0 -26 0 6 83 c3 45 12 118 21 162 11 49 19 154 22 273 l6 192
-664 0 -664 0 35 -28 c62 -48 100 -91 100 -112 0 -12 5 -30 10 -41 8 -14 7
-19 -2 -20 -30 -3 -52 4 -71 22 -16 15 -18 21 -7 34 14 17 15 17 -80 34 -56
10 -70 10 -95 -3 -17 -9 -34 -16 -39 -16 -6 0 -19 -9 -30 -19 -43 -40 -187
-113 -223 -113 -43 -1 -56 21 -49 79 l6 53 -72 1 c-40 0 -82 4 -92 8 -18 7
-17 9 10 28 22 15 37 18 62 13 38 -9 43 6 6 20 -45 17 -68 11 -111 -33 -33
-33 -44 -53 -50 -91 -9 -53 -33 -76 -33 -32 0 13 -3 27 -7 29 -5 3 -8 27 -8
53 0 46 2 49 30 54 26 4 30 10 33 42 l3 37 -925 1 -925 0 -3 -32 c-4 -45 -32
-45 -36 0 l-3 32 -534 0 c-345 0 -536 -4 -540 -10 -9 -14 -63 -12 -68 3 -3 9
-8 8 -22 -3 -14 -11 -19 -12 -22 -2 -3 6 -11 12 -19 12 -13 0 -14 -12 -8 -69
7 -74 -1 -135 -15 -112 -6 9 -16 4 -40 -19 -17 -17 -31 -37 -31 -43 0 -7 -3
-23 -7 -36 -5 -21 -4 -22 14 -13 14 8 175 12 483 13 l463 1 18 -23 c10 -13 16
-26 14 -29 -2 -3 -6 -116 -10 -250 -3 -134 -7 -246 -10 -248 -2 -3 -39 10 -82
27 l-78 33 3 150 3 149 -88 -4 c-48 -3 -122 -11 -163 -17 -41 -7 -93 -13 -115
-14 -35 -1 -40 2 -38 20 2 20 -1 21 -130 18 l-132 -3 -8 -88 c-4 -48 -7 -203
-5 -343 l3 -255 153 -3 152 -3 -15 -29 c-11 -21 -23 -30 -47 -32 -26 -2 -32
-7 -30 -22 2 -11 -1 -16 -10 -14 -7 3 -12 12 -10 21 2 13 -7 14 -60 10 -35 -3
-79 -9 -98 -13 l-35 -8 33 -1 c45 -1 37 -24 -9 -24 -65 1 -70 3 -84 36 -8 19
-35 52 -60 74 l-45 39 -5 369 c-3 302 -6 371 -18 380 -7 5 -12 15 -10 20 2 6
-38 10 -109 9 -93 -1 -115 2 -125 15 -18 25 3 41 54 41 24 0 60 7 80 15 20 8
55 16 77 17 49 1 56 9 56 68 0 25 7 72 15 105 17 72 18 78 6 71 -5 -3 -12 -22
-16 -42 -9 -50 -21 -31 -27 44 -2 20 -192 17 -209 -4 -7 -8 -21 -13 -31 -11
-14 4 -18 -1 -18 -25 0 -25 3 -28 20 -23 15 5 18 3 14 -8 -7 -18 -45 -30 -57
-18 -5 5 -8 30 -6 55 l4 46 -460 0 -461 0 4 -42 c4 -35 2 -40 -13 -35 -9 4
-19 7 -21 7 -2 0 -4 9 -4 20 0 11 -7 20 -15 20 -9 0 -15 -10 -15 -26 0 -14 -4
-23 -9 -20 -4 3 -17 -4 -27 -15 l-19 -21 100 2 c98 3 145 -4 145 -21 0 -4 -5
-11 -11 -15 -10 -6 -309 -7 -315 -1 -2 2 0 35 4 75 8 70 7 72 -14 72 -23 0
-34 -30 -34 -91 0 -54 -19 -29 -22 29 l-3 57 -62 3 c-35 2 -72 -2 -83 -8 -14
-7 -20 -7 -20 0 0 16 -358 9 -365 -7 -6 -18 -34 -16 -41 2 -7 17 -44 21 -44 5
0 -5 -11 -10 -25 -10 -14 0 -25 5 -25 10 0 12 -502 14 -514 3z m1115 -153 c3
-30 7 -62 10 -70 3 -10 -4 -15 -21 -15 -27 0 -37 23 -39 91 -1 45 5 56 29 52
10 -2 17 -20 21 -58z m4699 0 c0 -33 -4 -60 -10 -60 -11 0 -14 78 -4 104 11
28 14 18 14 -44z m-1753 44 c30 -8 19 -24 -17 -24 -29 0 -45 12 -33 24 8 7 21
8 50 0z m2438 -24 c3 -5 2 -10 -4 -10 -5 0 -13 5 -16 10 -3 6 -2 10 4 10 5 0
13 -4 16 -10z m-4909 -71 c8 -7 13 -18 10 -25 -3 -8 5 -14 22 -16 20 -2 28 -9
30 -27 3 -17 0 -22 -11 -18 -20 8 -107 -13 -107 -25 0 -7 22 -9 60 -6 42 3 60
1 60 -8 0 -19 -52 -24 -246 -24 -119 0 -185 4 -189 11 -12 18 2 21 112 24 128
2 223 27 223 57 0 18 -8 19 -136 14 -75 -3 -149 -2 -165 1 -29 6 -39 29 -20
49 15 14 339 8 357 -7z m2304 -28 c11 -13 67 -10 102 5 25 11 53 15 88 12 62
-6 74 -16 61 -49 -5 -13 -10 -19 -10 -13 -1 7 -16 8 -48 3 -27 -4 -71 -8 -98
-8 -28 -1 -56 -6 -63 -13 -9 -9 -12 -8 -12 6 0 14 -5 17 -21 13 -15 -4 -23 1
-30 21 l-10 27 -21 -27 c-11 -16 -23 -28 -28 -28 -17 0 -20 34 -4 52 14 14 25
17 53 12 20 -4 38 -10 41 -13z m2055 -41 c-6 -19 -2 -20 64 -20 71 0 84 -7 56
-30 -22 -18 -223 -20 -230 -2 -18 48 6 71 73 72 39 0 43 -2 37 -20z m-4457 3
c-10 -2 -28 -2 -40 0 -13 2 -5 4 17 4 22 1 32 -1 23 -4z m4324 -28 c-4 -26
-16 -32 -27 -15 -8 12 13 52 24 46 5 -3 6 -17 3 -31z m-1970 -17 c-9 -9 -12
-7 -12 12 0 19 3 21 12 12 9 -9 9 -15 0 -24z m332 -15 c-6 -10 -24 -25 -41
-34 l-30 -17 6 31 c4 20 16 37 31 44 31 15 50 1 34 -24z m3636 27 c0 -5 -9
-10 -21 -10 -11 0 -17 5 -14 10 3 6 13 10 21 10 8 0 14 -4 14 -10z m-6650 -30
c0 -13 -60 -17 -70 -5 -5 7 -8 14 -5 16 7 8 75 -2 75 -11z m2860 5 c0 -8 4
-15 9 -15 5 0 11 7 15 15 3 8 10 15 16 15 16 0 12 -66 -5 -80 -12 -10 -15 -10
-15 4 0 9 -4 16 -10 16 -5 0 -10 -4 -10 -10 0 -5 -7 -10 -15 -10 -16 0 -19 20
-9 58 7 25 24 30 24 7z m-125 -173 c-5 -14 -8 -13 -23 1 -14 14 -14 21 -4 37
7 12 8 20 2 20 -13 0 0 93 14 102 12 8 22 -133 11 -160z m-69 91 c-11 -105
-17 -133 -31 -133 -19 0 -24 56 -12 133 9 56 14 67 30 67 18 0 19 -5 13 -67z
m2754 8 c0 -14 10 -42 21 -61 15 -24 21 -49 20 -80 -4 -118 -30 -130 -102 -47
-26 29 -67 64 -93 77 -25 14 -47 31 -48 39 -2 7 -19 19 -38 25 -28 9 -35 16
-35 36 0 19 5 24 19 22 10 -2 29 7 42 19 20 18 27 20 51 11 40 -15 97 -14 119
3 17 12 21 12 32 -2 6 -9 12 -28 12 -42z m-4080 4 c15 -18 8 -21 -63 -29 l-48
-6 18 25 c21 28 73 34 93 10z m5290 -35 c0 -5 -10 -10 -22 -10 -19 0 -20 2 -8
10 19 13 30 13 30 0z m-5604 -29 c-7 -10 -66 -20 -66 -11 0 13 14 20 42 20 16
0 27 -4 24 -9z m-1036 -80 c0 -11 -5 -23 -11 -27 -15 -9 -33 12 -26 30 9 23
37 20 37 -3z m2740 -3 c0 -12 -3 -19 -6 -15 -3 3 -14 -2 -24 -11 -47 -43 -50
-44 -50 -22 0 11 8 23 18 27 9 3 25 14 35 25 23 23 27 23 27 -4z m157 12 c8 0
13 -6 11 -12 -5 -14 -86 -19 -94 -6 -7 10 37 28 54 22 8 -2 20 -4 29 -4z
m-2732 -9 c-6 -5 -38 -12 -72 -15 -53 -6 -63 -5 -63 9 0 12 14 15 72 15 42 0
68 -4 63 -9z m2468 -28 c9 -9 -12 -33 -30 -33 -11 0 -11 4 -3 20 11 21 22 25
33 13z m167 -2 c0 -13 -37 -24 -51 -15 -8 4 -7 9 2 15 19 12 49 11 49 0z m-76
-58 c-2 -21 -3 -42 -3 -46 -1 -5 -5 -6 -10 -3 -14 9 -3 86 13 86 2 0 2 -17 0
-37z m236 -5 c0 -5 -16 -8 -35 -8 -19 0 -35 5 -35 10 0 6 9 10 19 10 11 0 23
5 27 11 6 11 23 -6 24 -23z m-363 -10 c-3 -7 -5 -2 -5 12 0 14 2 19 5 13 2 -7
2 -19 0 -25z m217 17 c11 -8 15 -15 9 -15 -18 0 -55 -83 -41 -91 9 -6 9 -14 0
-34 -7 -14 -12 -34 -12 -44 0 -10 -8 -25 -18 -34 -17 -16 -18 -14 -11 41 3 31
4 71 1 88 -3 27 0 33 19 39 l23 8 -27 19 c-15 11 -25 24 -21 29 8 14 57 10 78
-6z m-145 -79 c9 -10 8 -15 -4 -20 -10 -4 -15 1 -15 14 0 24 4 25 19 6z m52
-37 c-4 -61 -14 -72 -22 -25 -7 46 -1 78 15 73 7 -2 10 -21 7 -48z m-107 -11
c16 -62 -5 -112 -46 -106 -34 5 -36 43 -4 73 14 13 26 31 26 40 0 23 17 18 24
-7z m390 -47 c-7 -7 -34 21 -28 31 3 5 12 1 19 -9 7 -10 12 -20 9 -22z m3599
28 c7 0 3 -4 -8 -8 -22 -9 -35 -5 -35 11 0 5 7 7 16 4 9 -3 21 -6 27 -7z
m-4193 -39 c0 -5 -4 -10 -10 -10 -21 0 -8 -17 25 -33 44 -21 65 -22 65 -2 0 8
5 15 10 15 13 0 13 -17 -1 -26 -8 -4 -8 -9 0 -17 6 -6 11 -23 11 -38 0 -49 6
-54 62 -50 l51 3 -7 -32 c-3 -18 -6 -40 -6 -50 0 -21 -80 -36 -92 -17 -12 19
-9 -32 3 -54 12 -23 45 -18 67 9 9 12 15 13 23 5 8 -8 6 -19 -8 -40 -10 -15
-24 -37 -29 -48 -20 -37 -56 -31 -102 18 -20 21 -38 22 -46 2 -4 -11 -21 -15
-60 -15 -45 0 -55 -3 -55 -17 -1 -44 -17 -98 -30 -98 -8 0 -15 -8 -17 -17 -2
-16 7 -18 62 -18 35 0 64 2 64 4 0 2 3 12 7 21 5 15 0 17 -35 13 -23 -2 -42 0
-42 4 0 5 8 8 18 9 9 0 53 3 97 5 78 6 101 -6 28 -13 -20 -2 -43 -9 -49 -14
-19 -16 -5 -39 24 -39 14 0 23 -2 20 -5 -3 -3 -45 -8 -94 -11 -126 -7 -306
-32 -354 -49 -23 -8 -60 -25 -83 -37 -29 -17 -41 -20 -44 -10 -3 6 -9 10 -14
6 -5 -3 -9 -1 -9 4 0 5 10 13 23 17 21 7 21 8 -7 12 -16 3 -33 0 -39 -6 -6 -6
-20 -11 -31 -11 -19 0 -19 0 0 21 41 46 104 59 298 64 109 2 110 2 138 34 15
17 32 31 38 31 5 0 10 7 10 15 0 8 -7 15 -15 15 -8 0 -15 4 -15 9 0 5 7 11 15
15 8 3 15 14 15 25 0 14 -5 19 -15 15 -8 -4 -15 -1 -15 5 0 6 5 11 10 11 6 0
10 8 10 19 0 13 7 19 26 19 14 0 30 4 35 9 5 5 10 70 10 145 0 123 2 137 21
161 22 28 38 35 38 17z m50 -20 c0 -5 -4 -10 -10 -10 -5 0 -10 5 -10 10 0 6 5
10 10 10 6 0 10 -4 10 -10z m260 -5 c0 -8 -4 -15 -10 -15 -5 0 -10 7 -10 15 0
8 5 15 10 15 6 0 10 -7 10 -15z m310 1 c0 -16 -28 -42 -36 -33 -3 3 -3 15 1
26 7 23 35 29 35 7z m1450 -9 c0 -33 -50 -48 -90 -27 -13 7 -21 7 -25 -1 -9
-14 -193 -8 -206 7 -6 7 -6 14 -2 17 4 3 70 5 146 5 77 0 141 3 145 6 10 11
32 6 32 -7z m-1769 -60 c-8 -8 -11 -7 -11 4 0 20 13 34 18 19 3 -7 -1 -17 -7
-23z m59 -7 c0 -5 -4 -10 -10 -10 -5 0 -10 5 -10 10 0 6 5 10 10 10 6 0 10 -4
10 -10z m1650 -13 c0 -24 -28 -56 -67 -76 -13 -6 -23 -18 -23 -26 0 -8 -2 -15
-4 -15 -2 0 -11 -3 -20 -6 -29 -11 -17 20 14 38 31 18 41 48 15 48 -11 0 -8 8
12 30 33 37 73 41 73 7z m-1365 -39 c-10 -34 -23 -44 -31 -25 -6 18 11 47 28
47 5 0 6 -10 3 -22z m1062 -5 c4 -9 1 -19 -5 -21 -17 -5 -15 -32 4 -53 21 -23
26 -112 8 -136 -7 -10 -14 -21 -14 -25 -1 -23 311 9 336 34 15 15 10 16 -79
13 -80 -2 -101 -6 -127 -25 -23 -17 -34 -20 -43 -11 -19 19 13 40 66 42 40 2
47 6 47 23 0 26 16 51 23 39 4 -5 21 -8 39 -6 31 4 32 3 14 -11 -11 -9 -23
-16 -28 -16 -4 0 -8 -5 -8 -11 0 -8 15 -9 48 -5 73 11 78 14 92 56 13 39 30
54 30 26 0 -19 69 -14 81 6 6 9 8 5 7 -13 -2 -23 -6 -25 -33 -22 -37 4 -75
-15 -75 -38 0 -9 -4 -19 -9 -21 -4 -1 -11 -12 -15 -23 -5 -18 -2 -20 42 -17
26 2 54 6 62 9 17 6 27 7 150 18 47 3 141 13 210 21 273 31 408 44 463 44 33
0 57 4 57 11 0 5 -4 8 -9 4 -5 -3 -12 -1 -16 5 -7 11 -6 11 42 15 18 1 44 5
58 9 18 5 25 2 25 -8 0 -16 -54 -41 -69 -31 -6 3 -11 1 -11 -6 0 -8 12 -10 41
-5 26 4 38 3 34 -4 -3 -5 -1 -10 4 -10 6 0 11 -4 11 -8 0 -4 -96 -16 -212 -26
-117 -9 -269 -24 -338 -31 -69 -8 -174 -17 -235 -20 -60 -4 -148 -10 -195 -15
-47 -5 -123 -11 -170 -15 -118 -8 -404 -33 -530 -45 -143 -14 -350 -29 -560
-40 -96 -5 -230 -13 -297 -16 -90 -5 -123 -4 -123 4 0 7 16 12 38 12 21 0 63
4 93 9 64 11 256 29 389 36 115 6 210 13 268 19 23 3 77 8 120 11 42 4 79 8
81 11 28 28 -197 21 -245 -8 -5 -3 -14 0 -21 7 -10 10 -9 16 1 24 7 6 15 8 19
5 3 -3 14 -1 25 5 14 8 21 8 24 0 2 -7 12 -7 32 1 37 14 27 24 -24 22 -22 -1
-40 3 -40 8 0 6 12 10 28 11 15 1 41 2 59 4 26 2 32 -2 38 -22 5 -21 9 -23 42
-17 35 7 67 9 141 13 25 1 35 7 44 29 9 21 12 23 15 10 6 -25 32 -22 43 5 l9
22 0 -24 c1 -19 4 -22 13 -13 9 9 9 17 0 34 -6 13 -18 40 -26 61 -8 20 -20 37
-25 37 -17 0 -13 18 9 40 24 24 48 26 57 3z m778 -8 c22 -8 47 -15 56 -15 9 0
16 -6 16 -13 0 -10 -11 -11 -54 -2 -37 7 -88 7 -173 0 -96 -8 -120 -8 -120 2
0 7 -4 13 -10 13 -5 0 -10 -6 -10 -14 0 -8 -13 -21 -30 -29 l-30 -15 4 29 c1
17 7 34 12 39 21 21 285 24 339 5z m-2124 -38 c-16 -16 -26 0 -10 19 9 11 15
12 17 4 2 -6 -1 -17 -7 -23z m2432 14 c3 -15 17 -21 53 -26 27 -3 64 -8 83
-11 18 -2 41 -9 50 -14 13 -8 10 -10 -14 -11 -16 -1 -34 0 -40 1 -5 2 -44 7
-85 12 -41 4 -76 13 -78 18 -2 6 -10 10 -17 10 -17 0 -28 17 -20 30 11 18 62
12 68 -9z m-998 -11 c-3 -5 -19 -10 -35 -10 -16 0 -32 5 -35 10 -4 6 10 10 35
10 25 0 39 -4 35 -10z m221 -4 c23 -17 20 -21 -28 -30 -33 -6 -38 -4 -38 13 0
31 34 40 66 17z m-1636 -18 c-1 -19 -29 -53 -37 -45 -8 9 14 57 27 57 5 0 10
-6 10 -12z m77 -30 c-3 -7 -5 -2 -5 12 0 14 2 19 5 13 2 -7 2 -19 0 -25z
m1022 25 c-3 -34 -18 -47 -57 -50 -23 -1 -52 -9 -65 -18 -19 -12 -27 -12 -48
-1 -20 10 -27 10 -37 -1 -16 -16 -32 -17 -32 0 0 8 -2 9 -8 1 -4 -6 -17 -14
-29 -18 -19 -6 -22 -4 -16 10 6 15 4 15 -19 0 -20 -13 -27 -14 -30 -4 -4 11
-8 11 -21 0 -9 -8 -21 -11 -26 -7 -6 3 -19 1 -30 -5 -13 -7 -22 -7 -26 0 -10
16 -21 12 -33 -14 -7 -17 -7 -27 1 -35 6 -6 7 -11 3 -11 -5 0 -24 15 -42 34
-25 26 -36 31 -43 22 -7 -8 -35 -12 -78 -10 -37 1 -72 -1 -77 -4 -15 -9 -76
-9 -76 0 0 4 -16 8 -36 8 -20 0 -33 -4 -29 -10 3 -5 12 -7 20 -3 16 5 19 -5 9
-31 -7 -19 -40 -21 -47 -3 -3 7 -3 25 0 40 6 29 1 32 -26 18 -21 -12 -46 2
-38 22 6 16 56 29 75 18 7 -4 47 -4 90 0 42 4 120 10 172 13 52 3 142 10 200
17 58 6 168 14 245 18 77 5 143 9 148 9 4 1 7 -1 6 -5z m156 -12 c7 -13 -27
-31 -59 -31 -19 0 -26 5 -26 20 0 17 7 20 39 20 22 0 42 -4 46 -9z m1065 5 c0
-3 -4 -8 -10 -11 -5 -3 -10 -1 -10 4 0 6 5 11 10 11 6 0 10 -2 10 -4z m-1178
-31 c-2 -15 0 -25 7 -25 6 0 11 -7 11 -15 0 -16 -17 -19 -44 -9 -15 6 -14 40
1 67 11 19 30 5 25 -18z m1005 9 c-3 -3 -12 -4 -19 -1 -8 3 -5 6 6 6 11 1 17
-2 13 -5z m-2868 -67 c1 -5 -3 -5 -9 -2 -5 3 -10 16 -9 28 0 21 1 21 9 2 5
-11 9 -24 9 -28z m-569 14 c0 -3 16 -17 35 -30 21 -14 35 -32 35 -44 0 -16
-10 -10 -50 31 -53 54 -60 65 -35 56 8 -4 15 -9 15 -13z m1303 2 c14 -13 -17
-33 -51 -33 -34 0 -35 0 -17 20 18 19 55 27 68 13z m107 -2 c0 -16 -28 -33
-35 -21 -3 5 -17 7 -31 4 -14 -4 -24 -2 -24 4 0 10 24 16 73 21 9 0 17 -3 17
-8z m1680 -13 c0 -11 -29 -37 -42 -38 -14 0 -9 23 8 41 17 19 34 17 34 -3z
m-2422 -4 c6 -12 18 -15 36 -12 20 4 26 1 26 -13 0 -10 5 -21 10 -24 7 -4 6
-13 -1 -26 -7 -15 -7 -24 2 -35 6 -8 7 -14 2 -14 -5 0 -15 -11 -21 -25 -8 -18
-19 -25 -39 -25 l-28 0 28 23 c22 17 29 33 34 77 l6 55 -24 -16 c-13 -9 -28
-26 -34 -37 -5 -12 -12 -22 -15 -22 -3 0 -20 19 -38 42 -29 38 -30 42 -14 54
24 19 59 17 70 -2z m506 -16 c-4 -7 -14 -21 -22 -30 -14 -17 -13 -18 11 -18
14 0 29 5 32 10 10 16 55 12 55 -5 0 -8 -4 -15 -9 -15 -5 0 -16 -7 -25 -15
-11 -11 -20 -13 -33 -6 -10 6 -35 13 -55 16 -21 3 -38 9 -38 12 0 15 55 63 72
63 13 0 17 -4 12 -12z m-3026 -15 c-5 -25 -28 -28 -28 -4 0 12 6 21 16 21 9 0
14 -7 12 -17z m4007 -2 c-2 -5 -17 -6 -32 -3 l-28 6 25 6 c27 7 43 3 35 -9z
m865 9 c0 -5 -5 -10 -11 -10 -5 0 -7 5 -4 10 3 6 8 10 11 10 2 0 4 -4 4 -10z
m-1002 -14 c3 -3 -6 -6 -21 -6 -14 0 -32 -3 -41 -6 -10 -4 -16 -1 -16 9 0 11
9 14 36 12 20 -2 39 -6 42 -9z m44 2 c-9 -9 -15 -9 -24 0 -9 9 -7 12 12 12 19
0 21 -3 12 -12z m613 2 c-3 -5 -10 -10 -16 -10 -5 0 -9 5 -9 10 0 6 7 10 16
10 8 0 12 -4 9 -10z m-905 -19 c0 -4 -34 -11 -76 -15 -43 -3 -83 -11 -90 -17
-11 -9 -15 -7 -20 6 -8 19 17 40 27 23 4 -5 15 -7 26 -4 10 3 38 7 61 8 24 1
45 5 48 10 6 9 24 1 24 -11z m54 -1 c-21 -8 -37 -3 -29 10 3 4 15 6 27 2 21
-5 21 -6 2 -12z m286 -27 c0 -9 -16 -13 -47 -14 -27 -1 -73 -3 -103 -4 -309
-17 -320 -17 -320 -6 0 8 15 12 43 10 24 -2 48 1 55 5 7 4 16 4 22 1 5 -3 18
-1 29 5 13 7 22 7 26 0 4 -6 10 -8 15 -5 4 3 52 7 105 9 54 3 99 7 101 9 10
10 74 2 74 -10z m-715 -20 c-5 -10 -7 -24 -6 -30 1 -9 -16 -13 -61 -13 -42 0
-71 -5 -87 -16 -17 -12 -26 -13 -34 -5 -6 6 -38 12 -71 12 l-61 2 60 8 c33 5
98 10 145 12 74 4 85 7 89 23 3 19 22 37 29 29 3 -2 1 -12 -3 -22z m145 23 c0
-3 -4 -8 -10 -11 -5 -3 -10 -1 -10 4 0 6 5 11 10 11 6 0 10 -2 10 -4z m-1003
-22 c21 -21 4 -37 -31 -28 -29 7 -32 14 -14 32 16 16 26 15 45 -4z m2809 -6
c-10 -6 -20 -7 -24 -3 -9 8 20 25 31 18 5 -3 2 -10 -7 -15z m-3046 -9 c0 -5
-7 -9 -15 -9 -15 0 -20 12 -9 23 8 8 24 -1 24 -14z m44 0 c-3 -5 -10 -7 -15
-3 -5 3 -7 10 -3 15 3 5 10 7 15 3 5 -3 7 -10 3 -15z m1256 2 c0 -15 -62 -33
-74 -21 -8 8 -6 14 4 20 19 12 70 13 70 1z m-90 -11 c0 -5 -18 -14 -40 -20
-33 -9 -43 -8 -55 4 -11 11 -12 16 -2 19 22 10 97 7 97 -3z m1544 -42 c19 -13
-15 -28 -36 -17 -23 12 -23 35 0 48 13 8 18 6 21 -7 2 -9 8 -20 15 -24z m33
36 c-3 -3 -12 -4 -19 -1 -8 3 -5 6 6 6 11 1 17 -2 13 -5z m-5552 -14 c4 -6 14
-9 23 -6 10 2 36 7 58 11 35 5 42 3 46 -12 9 -33 -1 -41 -45 -36 -51 5 -117
24 -117 33 0 19 25 26 35 10z m475 -4 c0 -3 -4 -8 -10 -11 -5 -3 -10 -1 -10 4
0 6 5 11 10 11 6 0 10 -2 10 -4z m2280 -13 c0 -7 -8 -13 -17 -14 -10 0 -39 -2
-66 -4 -26 -1 -50 1 -53 6 -5 10 7 12 43 10 11 -1 24 2 27 7 8 14 66 9 66 -5z
m2430 7 c0 -5 -7 -10 -16 -10 -8 0 -12 5 -9 10 3 6 10 10 16 10 5 0 9 -4 9
-10z m-2157 -31 c-5 -5 -40 -11 -78 -14 -42 -3 -65 -2 -60 4 19 18 155 27 138
10z m2705 -1 c-5 -16 -48 -24 -48 -10 0 11 17 20 38 21 8 1 12 -5 10 -11z
m-2969 -29 c-8 -5 -34 -11 -59 -15 -25 -4 -53 -14 -63 -22 -16 -14 -19 -14
-28 -2 -18 28 -5 45 33 45 20 1 39 3 42 6 3 2 24 3 47 1 28 -3 37 -7 28 -13z
m1711 7 c0 -11 -19 -15 -25 -6 -3 5 1 10 9 10 9 0 16 -2 16 -4z m-151 -38 c-5
-18 -16 -36 -24 -41 -8 -4 -15 -16 -15 -25 0 -13 3 -12 16 6 17 25 44 29 44 7
0 -21 26 -19 60 7 32 23 51 18 34 -10 -12 -18 -63 -34 -106 -33 -21 0 -28 -5
-28 -19 0 -24 7 -24 51 -6 22 9 42 11 63 5 37 -11 107 -9 123 3 16 13 19 0 12
-57 -3 -27 -7 -44 -7 -36 -1 9 -8 11 -19 6 -10 -4 -29 -8 -43 -9 -16 -1 -26
-8 -28 -20 -3 -12 0 -16 7 -11 7 3 29 8 50 9 34 3 39 1 39 -20 0 -17 -9 -26
-33 -34 -23 -8 -37 -20 -44 -41 -13 -38 -31 -37 -31 1 0 21 4 28 14 24 15 -6
42 31 29 39 -5 3 -24 4 -43 2 -19 -2 -41 -4 -48 -4 -21 -1 -3 -21 19 -21 10 0
19 -6 19 -13 0 -10 -19 -14 -67 -16 -37 -1 -70 -4 -74 -6 -4 -3 -10 5 -13 18
-6 21 -7 21 -20 5 -16 -22 -30 -24 -23 -3 8 18 -9 29 -31 20 -9 -4 -35 -9 -56
-10 -21 -2 -42 -9 -47 -16 -5 -9 -11 -10 -21 -2 -11 9 -82 11 -98 3 -3 -1 -15
-1 -27 0 -13 1 -23 -4 -23 -12 0 -10 -3 -9 -10 2 -7 12 -13 12 -27 4 -13 -8
-23 -8 -35 0 -20 12 -29 5 -35 -26 -18 -110 -21 -114 -21 -23 0 111 1 108 -14
99 -7 -5 -24 -8 -38 -8 -31 -1 -42 -36 -11 -36 12 0 21 5 21 11 0 5 5 7 10 4
6 -3 10 -17 10 -31 0 -13 -4 -24 -10 -24 -5 0 -10 5 -10 11 0 6 -21 8 -60 5
-64 -6 -66 -5 -50 24 16 30 -10 37 -31 9 l-19 -24 0 23 c0 25 -12 29 -30 7
-17 -20 -8 -50 15 -51 68 -5 124 -34 64 -34 -31 0 -32 -1 -14 -20 11 -12 15
-26 10 -37 -6 -17 -7 -17 -20 1 -10 13 -26 18 -55 18 -35 -1 -40 2 -35 17 8
27 -27 31 -273 31 -210 0 -216 -1 -240 -22 -17 -16 -26 -19 -29 -10 -3 9 -39
12 -133 12 -86 0 -131 4 -136 12 -5 7 -11 5 -21 -8 -12 -16 -15 -17 -23 -4
-27 42 -23 42 254 39 145 -2 267 -1 270 2 3 3 8 19 10 35 2 16 7 37 11 47 5
11 3 17 -6 17 -10 0 -10 3 -2 11 6 6 49 13 95 15 45 2 111 6 145 8 l62 5 -6
-30 c-5 -25 -2 -29 16 -29 17 0 21 6 21 31 0 16 4 28 9 25 5 -3 7 -15 4 -25
-3 -10 0 -22 7 -26 16 -10 42 16 37 37 -3 10 -1 18 4 18 5 0 9 -12 9 -26 0
-33 34 -29 38 5 l4 24 11 -23 c16 -31 31 -30 35 3 l3 27 -108 0 c-235 0 -1048
13 -1052 17 -3 2 1 9 7 15 9 9 116 12 433 9 328 -2 423 0 429 9 5 8 15 10 26
5 29 -13 98 -13 107 -1 5 8 9 7 15 -1 12 -19 244 -22 250 -4 3 10 -2 12 -22 7
-34 -8 -51 1 -35 20 15 19 4 45 -17 37 -12 -4 -14 -14 -10 -34 4 -20 1 -29 -8
-29 -10 0 -12 14 -10 55 3 47 1 55 -15 55 -28 0 -33 -12 -14 -32 14 -16 15
-21 4 -28 -8 -4 -20 -6 -28 -3 -18 7 -45 -17 -39 -34 3 -7 -1 -13 -8 -13 -9 0
-12 8 -8 25 5 28 0 30 -29 14 -15 -7 -24 -7 -34 1 -10 8 -16 7 -24 -7 -9 -16
-12 -16 -21 -3 -8 12 -13 13 -30 2 -12 -7 -20 -8 -20 -2 0 18 -35 10 -55 -12
-13 -15 -20 -18 -23 -10 -6 20 28 52 52 49 15 -1 22 4 24 21 5 32 -18 28 -59
-13 -28 -27 -46 -35 -81 -38 -25 -2 -50 -7 -56 -10 -14 -9 -25 24 -12 37 7 7
10 6 10 -2 0 -8 13 -11 36 -10 28 3 39 9 45 26 7 18 5 22 -11 22 -11 0 -20 -3
-20 -7 0 -5 -15 -7 -32 -6 -45 2 -46 3 -22 13 30 12 291 25 281 14 -5 -5 -21
-9 -35 -9 -16 0 -28 -6 -30 -16 -5 -25 75 -23 89 2 5 11 6 19 2 19 -4 0 -3 4
3 9 11 11 292 26 281 15 -4 -5 -29 -8 -55 -9 -35 0 -47 -4 -50 -17 -3 -13 5
-16 42 -16 25 1 46 6 46 11 0 5 6 4 14 -2 8 -7 25 -9 41 -5 21 5 27 4 23 -7
-3 -10 -21 -14 -59 -14 -48 0 -54 -2 -57 -22 -3 -23 16 -32 32 -15 4 4 31 7
59 7 50 0 52 1 50 27 -2 26 1 27 65 34 37 3 77 10 90 15 14 6 30 4 42 -3 16
-10 23 -9 43 10 13 12 35 22 49 22 14 0 31 7 38 15 7 8 27 15 46 15 32 0 32
-1 23 -32z m63 25 c-29 -6 -24 -26 9 -33 17 -4 20 -8 11 -14 -7 -4 -16 -5 -19
-2 -3 3 -12 1 -20 -6 -19 -16 -26 -4 -18 31 5 26 11 31 33 30 25 -2 25 -2 4
-6z m-348 -19 c9 -3 16 -14 16 -23 -1 -15 -2 -14 -14 1 -8 11 -21 15 -37 12
-19 -5 -21 -3 -9 5 18 12 23 13 44 5z m429 -9 c0 -6 -7 -11 -16 -13 -12 -3
-15 1 -11 13 7 17 25 17 27 0z m375 -7 c-2 -13 -11 -24 -20 -26 -21 -4 -24 18
-6 36 19 19 30 14 26 -10z m462 12 c0 -5 -5 -10 -11 -10 -5 0 -7 5 -4 10 3 6
8 10 11 10 2 0 4 -4 4 -10z m-5210 -10 c22 -7 21 -8 -12 -9 -21 -1 -38 4 -38
9 0 11 14 11 50 0z m3805 0 c-3 -5 -11 -10 -16 -10 -6 0 -7 5 -4 10 3 6 11 10
16 10 6 0 7 -4 4 -10z m58 3 c-7 -2 -19 -2 -25 0 -7 3 -2 5 12 5 14 0 19 -2
13 -5z m-1241 -27 c7 4 8 2 4 -4 -11 -18 -26 -14 -25 6 0 10 3 12 6 4 2 -6 10
-9 15 -6z m1796 -33 c-7 -16 -23 -29 -36 -31 -18 -3 -22 1 -22 26 0 24 5 31
33 39 38 11 43 4 25 -34z m565 23 c3 -8 -1 -20 -9 -26 -12 -10 -14 -8 -12 14
3 28 13 34 21 12z m-1923 -21 c-10 -9 -24 -12 -40 -8 -22 6 -22 7 -4 14 10 4
28 8 39 8 17 1 18 -1 5 -14z m52 3 c-17 -17 -15 -38 3 -38 16 0 20 -16 6 -24
-5 -3 -24 -3 -42 1 -31 6 -31 7 -10 15 18 6 22 14 19 33 -4 20 -1 25 15 25 16
0 18 -3 9 -12z m1348 -4 c0 -8 -5 -12 -10 -9 -6 4 -8 11 -5 16 9 14 15 11 15
-7z m128 9 c-10 -2 -28 -2 -40 0 -13 2 -5 4 17 4 22 1 32 -1 23 -4z m572 -5
c0 -6 -3 -9 -6 -5 -3 3 -17 2 -30 -3 -14 -6 -26 -6 -29 0 -3 5 7 11 22 13 16
2 31 5 36 6 4 0 7 -4 7 -11z m45 2 c-3 -5 -12 -7 -20 -3 -21 7 -19 13 6 13 11
0 18 -4 14 -10z m1225 -20 c0 -5 -4 -10 -10 -10 -5 0 -10 5 -10 10 0 6 5 10
10 10 6 0 10 -4 10 -10z m-1615 -10 c3 -5 1 -10 -4 -10 -6 0 -11 5 -11 10 0 6
2 10 4 10 3 0 8 -4 11 -10z m57 -2 c-17 -8 -26 -8 -34 0 -9 9 -4 12 23 11 32
0 33 -1 11 -11z m484 -6 c1 -7 0 -8 -2 -3 -3 6 -20 8 -37 5 -26 -3 -28 -3 -12
5 26 13 48 10 51 -7z m267 -1 c-3 -11 -11 -22 -19 -25 -20 -8 -31 24 -13 35
23 15 37 10 32 -10z m-906 -4 c3 -4 -7 -7 -23 -8 -16 0 -49 -2 -74 -5 -104
-10 -121 -11 -126 -3 -3 5 1 9 8 9 16 1 92 11 95 14 5 4 114 -2 120 -7z m533
3 c0 -5 -8 -10 -17 -10 -15 0 -16 2 -3 10 19 12 20 12 20 0z m-40 -10 c0 -5
-3 -10 -7 -11 -5 0 -23 -2 -40 -3 -18 -2 -33 0 -33 5 0 4 15 10 33 12 17 2 35
5 40 5 4 1 7 -2 7 -8z m352 -12 c-7 -7 -12 -8 -12 -2 0 14 12 26 19 19 2 -3
-1 -11 -7 -17z m-520 -11 c-17 -8 -26 -7 -35 3 -10 10 -9 12 5 7 10 -3 20 -2
23 4 4 5 11 6 18 2 7 -4 3 -10 -11 -16z m63 13 c3 -5 2 -10 -4 -10 -5 0 -13 5
-16 10 -3 6 -2 10 4 10 5 0 13 -4 16 -10z m-1505 -10 c12 -8 11 -10 -7 -10
-13 0 -23 5 -23 10 0 13 11 13 30 0z m1320 -6 c0 -2 -7 -4 -15 -4 -8 0 -15 4
-15 10 0 5 7 7 15 4 8 -4 15 -8 15 -10z m-52 -8 c3 -3 1 -6 -4 -7 -57 -5 -96
-9 -129 -13 -22 -3 -74 -8 -115 -12 -41 -3 -80 -10 -87 -16 -14 -11 -57 8 -48
23 4 5 35 9 71 9 36 0 74 5 84 10 10 6 21 6 24 2 3 -5 33 -3 68 3 62 12 124
12 136 1z m408 -5 c-4 -5 12 -7 36 -4 24 3 40 3 37 -1 -8 -8 -169 -19 -169
-11 0 9 42 24 73 24 16 1 26 -3 23 -8z m-136 -23 c0 -5 -8 -8 -17 -9 -10 0
-33 -2 -51 -3 -26 -3 -30 -1 -21 10 11 14 89 15 89 2z m-134 -16 c-3 -3 -25
-6 -49 -7 -77 -4 -157 -17 -157 -26 0 -5 9 -9 20 -9 13 0 18 -5 13 -16 -3 -8
-12 -13 -19 -10 -7 3 -16 1 -19 -4 -4 -6 -18 -10 -33 -9 l-27 1 25 8 c17 5 19
8 8 9 -10 1 -18 8 -18 16 0 12 -12 14 -67 8 -38 -3 -77 -5 -88 -5 -10 1 -25
-4 -32 -10 -17 -14 -28 -4 -16 14 9 15 7 14 163 24 63 3 120 9 125 12 6 4 17
5 27 4 9 -2 18 1 21 5 3 4 33 6 67 5 34 -2 59 -6 56 -10z m-4307 -16 c7 -8 28
-17 47 -21 30 -5 74 -35 74 -50 0 -6 -67 19 -128 48 -32 14 -40 22 -30 28 18
12 24 11 37 -5z m1231 -76 c0 -20 -5 -30 -15 -30 -15 0 -21 40 -8 53 14 15 23
6 23 -23z m90 0 c0 -20 -5 -30 -15 -30 -15 0 -21 40 -8 53 14 15 23 6 23 -23z
m98 -6 c-5 -28 -28 -29 -28 -1 0 13 3 27 7 30 10 11 25 -9 21 -29z m2566 11
c-21 -6 -50 -9 -63 -6 l-25 4 23 9 c13 5 32 6 42 3 9 -3 20 -1 23 4 4 6 14 7
23 4 12 -5 5 -10 -23 -18z m-126 -10 c-7 -6 -92 -15 -86 -9 10 9 71 22 81 16
5 -2 7 -5 5 -7z m-487 -38 c-13 -13 -104 -20 -96 -8 3 6 11 8 18 5 7 -2 21 2
31 9 22 16 64 11 47 -6z m-2261 -12 c0 -14 -4 -25 -9 -25 -12 0 -23 29 -15 41
10 18 24 9 24 -16z m410 15 c0 -5 -11 -17 -25 -26 -20 -13 -47 -16 -123 -15
-53 1 -120 -3 -149 -7 -53 -9 -83 -1 -83 22 0 9 41 12 177 12 133 -1 177 2
180 12 5 14 23 16 23 2z m60 -20 c0 -25 -4 -30 -25 -30 -15 0 -25 6 -25 14 0
28 12 46 31 46 14 0 19 -7 19 -30z m150 10 c-20 -38 -100 -58 -100 -25 0 18
26 20 34 3 3 -9 13 -4 28 15 26 32 55 38 38 7z m1897 -7 c-3 -3 -11 -2 -17 2
-9 6 -9 10 1 16 14 8 27 -7 16 -18z m-2657 -2 c0 -10 -6 -21 -14 -24 -19 -7
-25 0 -19 24 7 25 33 25 33 0z m2220 3 c0 -8 -5 -12 -10 -9 -6 4 -8 11 -5 16
9 14 15 11 15 -7z m65 6 c3 -5 -3 -10 -15 -10 -12 0 -18 5 -15 10 3 6 10 10
15 10 5 0 12 -4 15 -10z m-1465 -10 c-19 -12 -50 -13 -50 -2 0 5 14 9 32 10
23 1 28 -2 18 -8z m1305 0 c3 -6 -4 -10 -17 -10 -18 0 -20 2 -8 10 19 12 18
12 25 0z m45 0 c0 -5 -5 -10 -11 -10 -5 0 -7 5 -4 10 3 6 8 10 11 10 2 0 4 -4
4 -10z m-2870 -23 c0 -29 -7 -37 -26 -30 -14 5 -19 35 -7 46 14 15 33 6 33
-16z m97 5 c21 1 39 -1 41 -7 1 -6 -20 -10 -50 -10 -44 0 -53 3 -57 20 -3 17
-1 18 12 6 9 -7 33 -11 54 -9z m121 -10 c3 -17 -2 -22 -17 -22 -14 0 -21 6
-21 18 0 38 33 41 38 4z m2942 19 c0 -5 -7 -11 -15 -15 -9 -3 -15 0 -15 9 0 8
7 15 15 15 8 0 15 -4 15 -9z m-378 -43 c-7 -7 -12 -8 -12 -2 0 14 12 26 19 19
2 -3 -1 -11 -7 -17z m-2155 -10 c-3 -8 -6 -5 -6 6 -1 11 2 17 5 13 3 -3 4 -12
1 -19z m1597 4 c-1 -7 -2 -21 -2 -32 -1 -11 -9 -20 -17 -20 -13 0 -15 22 -6
68 2 10 26 -6 25 -16z m76 -11 c0 -16 -6 -34 -14 -40 -17 -14 -29 -1 -21 23 3
9 7 23 10 31 8 26 25 16 25 -14z m1145 19 c18 -3 -30 -19 -59 -19 -24 -1 -27
1 -16 14 8 9 23 14 39 11 14 -2 31 -5 36 -6z m-3655 -30 c-6 -11 -15 -20 -20
-20 -14 0 -12 27 3 33 23 10 28 7 17 -13z m70 -40 c-6 -11 -17 -20 -26 -20
-23 0 -28 28 -9 56 17 26 17 26 31 5 11 -16 12 -26 4 -41z m1878 14 c3 -39 1
-42 -27 -46 -30 -4 -31 -4 -31 38 0 42 10 55 40 51 10 -2 16 -16 18 -43z m150
-2 c2 -32 0 -42 -12 -42 -8 0 -21 -3 -30 -6 -13 -5 -16 1 -16 33 0 74 53 88
58 15z m1267 38 c3 -5 -1 -10 -9 -10 -9 0 -16 5 -16 10 0 6 4 10 9 10 6 0 13
-4 16 -10z m-1599 -37 c-11 -11 -19 6 -11 24 8 17 8 17 12 0 3 -10 2 -21 -1
-24z m37 22 c-3 -9 -8 -14 -10 -11 -3 3 -2 9 2 15 9 16 15 13 8 -4z m907 -11
c35 -14 60 -38 60 -58 0 -13 -28 -4 -45 14 -22 24 -33 25 -57 3 -10 -9 -21
-13 -26 -9 -4 4 2 15 13 23 14 11 16 17 7 20 -6 3 -10 9 -6 14 7 12 7 12 54
-7z m2580 1 c0 -8 -7 -15 -15 -15 -16 0 -20 12 -8 23 11 12 23 8 23 -8z m45
-6 c-8 -12 -35 -12 -35 0 0 11 22 20 33 14 4 -2 5 -9 2 -14z m-4485 -9 c0 -5
-7 -10 -15 -10 -8 0 -15 5 -15 10 0 6 7 10 15 10 8 0 15 -4 15 -10z m1766 -36
c9 -36 -15 -60 -45 -45 -11 7 -21 19 -21 28 0 9 3 13 7 10 3 -4 12 2 20 13 19
27 31 25 39 -6z m-2582 -10 c9 -3 13 -10 10 -15 -7 -11 -64 -12 -64 -1 0 21
24 28 54 16z m1766 -4 c0 -5 -7 -10 -16 -10 -8 0 -12 5 -9 10 3 6 10 10 16 10
5 0 9 -4 9 -10z m-490 -25 c66 -34 76 -121 19 -169 -35 -30 -67 -33 -109 -11
-37 19 -50 43 -50 90 0 46 13 71 48 89 35 19 56 20 92 1z m1646 -12 c-10 -10
-19 5 -10 18 6 11 8 11 12 0 2 -7 1 -15 -2 -18z m589 0 c-27 -3 -54 -8 -60
-13 -7 -6 -16 -5 -22 1 -6 6 -17 8 -24 3 -15 -9 -70 -12 -84 -5 -17 10 56 18
150 18 50 0 68 -2 40 -4z m-905 -28 c0 -11 -12 -15 -45 -15 -33 0 -45 4 -45
15 0 11 12 15 45 15 33 0 45 -4 45 -15z m540 -6 c0 -13 -27 -11 -36 3 -4 7 -3
8 4 4 7 -4 12 -2 12 4 0 6 5 8 10 5 6 -3 10 -10 10 -16z m106 12 c-8 -13 -76
-19 -76 -6 0 5 18 11 41 12 22 2 38 -1 35 -6z m-316 -12 c0 -7 10 -9 26 -5 19
5 25 3 22 -6 -3 -7 -14 -12 -26 -10 -23 3 -37 -24 -26 -52 5 -14 24 -16 130
-16 78 0 124 -4 124 -10 0 -7 -39 -10 -107 -9 -73 1 -108 -2 -111 -10 -5 -16
-32 -14 -32 4 0 11 -12 14 -53 13 -29 -1 -59 2 -65 6 -25 15 -10 23 38 20 l50
-4 0 45 c0 33 4 45 15 45 8 0 15 -5 15 -11z m101 -12 c-13 -13 -26 -3 -16 12
3 6 11 8 17 5 6 -4 6 -10 -1 -17z m59 13 c0 -5 -4 -10 -10 -10 -5 0 -10 5 -10
10 0 6 5 10 10 10 6 0 10 -4 10 -10z m-264 -42 c-14 -9 -30 7 -22 21 5 8 11 7
20 -2 10 -9 11 -14 2 -19z m54 18 c0 -3 -4 -8 -10 -11 -5 -3 -10 -1 -10 4 0 6
5 11 10 11 6 0 10 -2 10 -4z m-2480 -21 c0 -8 -4 -15 -9 -15 -5 0 -11 7 -15
15 -3 9 0 15 9 15 8 0 15 -7 15 -15z m-276 -16 c-8 -14 -24 -10 -24 6 0 9 6
12 15 9 8 -4 12 -10 9 -15z m2321 -9 c3 -5 -1 -10 -10 -10 -9 0 -13 5 -10 10
3 6 8 10 10 10 2 0 7 -4 10 -10z m150 -12 c-4 -40 -5 -41 -12 -34 -14 14 -14
56 0 56 9 0 13 -9 12 -22z m-2440 -28 c8 -13 -20 -24 -41 -16 -20 8 -9 26 16
26 10 0 22 -5 25 -10z m3390 -16 c50 -8 107 -20 128 -25 50 -13 38 -33 -17
-26 -22 3 -90 13 -151 21 -60 9 -156 16 -212 16 -82 0 -103 3 -103 14 0 8 4
16 10 18 25 8 264 -4 345 -18z m274 -38 c-2 -2 -26 -6 -54 -9 -34 -4 -42 -3
-25 3 25 8 87 13 79 6z m-3609 -22 c0 -2 -9 -4 -21 -4 -11 0 -18 4 -14 10 5 8
35 3 35 -6z m5364 0 c13 -33 -36 -82 -65 -63 -12 7 -12 9 1 9 10 1 7 5 -7 13
-21 12 -22 14 -7 35 18 26 69 30 78 6z m-5142 -6 c-8 -8 -17 -8 -34 0 -22 10
-21 11 12 11 26 1 31 -2 22 -11z m2518 2 c0 -5 -5 -10 -11 -10 -5 0 -7 5 -4
10 3 6 8 10 11 10 2 0 4 -4 4 -10z m495 -3 c55 0 115 2 134 6 27 6 32 4 27 -8
-6 -17 -5 -18 94 -20 58 -2 91 -9 144 -32 122 -52 91 -72 -44 -29 -76 24 -226
46 -465 66 -71 6 -134 16 -140 21 -7 7 16 8 70 3 44 -3 125 -7 180 -7z m2396
-20 c-13 -13 -26 -3 -16 12 3 6 11 8 17 5 6 -4 6 -10 -1 -17z m-1884 -26 c75
-37 101 -56 91 -66 -5 -5 -208 93 -208 100 0 14 46 1 117 -34z m1678 29 c-3
-5 -10 -10 -16 -10 -5 0 -9 5 -9 10 0 6 7 10 16 10 8 0 12 -4 9 -10z m70 0
c-3 -5 -13 -10 -21 -10 -8 0 -14 5 -14 10 0 6 9 10 21 10 11 0 17 -4 14 -10z
m80 0 c-3 -5 -13 -10 -21 -10 -8 0 -14 5 -14 10 0 6 9 10 21 10 11 0 17 -4 14
-10z m590 1 c-15 -14 -55 -23 -55 -13 0 15 12 22 39 22 15 0 21 -4 16 -9z
m-5932 -50 c-13 -24 -22 -50 -18 -59 4 -12 3 -13 -10 -2 -14 11 -22 90 -11
101 2 2 18 4 34 4 l30 0 -25 -44z m452 29 c79 0 89 -5 98 -40 11 -44 -1 -48
-143 -55 -171 -8 -174 -8 -178 5 -5 14 -105 13 -120 -2 -9 -9 -12 -8 -12 8 0
10 -9 34 -20 52 -11 18 -20 35 -20 39 0 3 73 3 163 0 89 -4 194 -7 232 -7z
m1625 0 c0 -5 -5 -10 -11 -10 -5 0 -7 5 -4 10 3 6 8 10 11 10 2 0 4 -4 4 -10z
m840 -10 c11 -7 -2 -10 -45 -11 -33 -1 -69 -2 -79 -3 -11 0 -21 5 -24 12 -5
15 125 17 148 2z m-2860 -29 c15 -28 13 -31 -20 -31 -28 0 -29 1 -18 25 13 30
24 32 38 6z m2450 9 c0 -5 -4 -10 -10 -10 -5 0 -10 5 -10 10 0 6 5 10 10 10 6
0 10 -4 10 -10z m365 -39 c-10 -10 -117 -32 -124 -26 -2 2 -1 11 2 20 5 11 22
15 69 15 38 0 58 -4 53 -9z m245 5 c0 -2 -42 -21 -94 -42 -86 -34 -98 -36
-126 -24 -37 15 -34 19 38 46 49 19 182 33 182 20z m233 -3 c-7 -2 -19 -2 -25
0 -7 3 -2 5 12 5 14 0 19 -2 13 -5z m1817 3 c0 -2 -7 -9 -15 -16 -12 -10 -15
-10 -15 4 0 9 7 16 15 16 8 0 15 -2 15 -4z m-4547 -23 c-7 -2 -21 -2 -30 0
-10 3 -4 5 12 5 17 0 24 -2 18 -5z m1164 1 c-3 -3 -12 -4 -19 -1 -8 3 -5 6 6
6 11 1 17 -2 13 -5z m1608 -23 c81 -25 83 -41 3 -42 -34 -1 -74 -5 -88 -10
-16 -5 14 -6 78 -3 97 5 106 4 158 -21 97 -48 62 -61 -135 -52 -75 4 -163 14
-195 23 -56 15 -119 12 -100 -5 16 -15 187 -42 296 -48 66 -4 130 -1 167 6 57
11 63 10 101 -11 22 -13 40 -28 40 -35 0 -17 -78 -78 -164 -127 -41 -24 -73
-46 -70 -48 3 -3 -44 -6 -103 -7 -59 -1 -128 -4 -152 -7 -31 -5 -42 -3 -37 5
4 6 14 11 23 11 8 0 28 9 43 20 69 49 137 70 228 70 83 0 91 2 138 33 l49 32
-72 3 c-52 2 -88 -3 -133 -18 -34 -12 -109 -25 -165 -30 -88 -8 -120 -16 -217
-56 -62 -25 -114 -50 -116 -55 -4 -11 -56 -11 -169 -2 -68 5 -83 9 -83 22 0
12 -9 17 -32 17 -120 2 -349 18 -354 25 -3 5 -2 41 2 80 l7 71 188 -3 c104 -2
192 0 196 4 4 4 7 22 7 40 l1 32 90 8 c112 10 119 10 178 1 32 -4 47 -3 47 5
0 6 -9 11 -19 11 -60 0 -2 36 109 69 85 25 159 22 255 -8z m-3212 12 c-7 -2
-21 -2 -30 0 -10 3 -4 5 12 5 17 0 24 -2 18 -5z m867 -3 c0 -5 -2 -10 -4 -10
-3 0 -8 5 -11 10 -3 6 -1 10 4 10 6 0 11 -4 11 -10z m659 -23 c-1 -17 -2 -18
-6 -4 -2 9 -9 17 -14 17 -6 0 -7 5 -4 10 10 16 25 1 24 -23z m2117 -58 c8 -16
11 -29 7 -29 -18 0 -103 95 -103 115 0 15 82 -59 96 -86z m-182 51 c36 -17 66
-34 66 -39 0 -5 9 -11 20 -14 11 -3 20 -13 20 -22 0 -22 -27 -14 -103 31 -32
19 -61 34 -65 34 -4 0 -18 9 -32 20 l-25 20 26 0 c14 0 56 -14 93 -30z m-3594
0 c0 -17 -94 -22 -124 -7 -27 14 -25 15 48 15 42 0 76 -3 76 -8z m1960 -6 c0
-2 -14 -4 -31 -4 -16 0 -28 4 -25 9 5 8 56 3 56 -5z m843 -4 c5 0 5 -4 2 -10
-3 -5 -31 -10 -61 -10 -40 0 -54 4 -54 14 0 20 18 24 65 15 22 -5 44 -8 48 -9z
m-2969 -26 c18 -7 23 -69 6 -79 -5 -3 -10 3 -10 14 0 12 -4 21 -10 21 -5 0
-10 -9 -10 -19 0 -11 -5 -23 -11 -27 -8 -4 -9 1 -4 15 5 18 2 24 -14 28 -14 3
-21 13 -21 29 0 20 5 24 29 24 16 0 36 -3 45 -6z m106 -14 c0 -5 -5 -10 -11
-10 -5 0 -7 5 -4 10 3 6 8 10 11 10 2 0 4 -4 4 -10z m140 1 c0 -6 -4 -13 -10
-16 -15 -9 -12 -27 3 -19 6 4 4 -1 -5 -11 -23 -25 -33 -12 -29 38 1 17 41 25
41 8z m412 -53 c-9 -9 -12 -4 -11 23 0 32 1 33 11 11 8 -17 8 -26 0 -34z m95
46 c-3 -3 -12 -4 -19 -1 -8 3 -5 6 6 6 11 1 17 -2 13 -5z m453 -10 c0 -9 -7
-14 -17 -12 -25 5 -28 28 -4 28 12 0 21 -6 21 -16z m911 6 c5 0 9 -4 9 -10 0
-5 -13 -10 -30 -10 -29 0 -38 9 -23 24 4 3 13 4 21 1 7 -3 18 -5 23 -5z
m-1931 -35 c0 -19 -2 -35 -4 -35 -2 0 -6 16 -8 35 -2 19 0 35 4 35 4 0 8 -16
8 -35z m960 25 c0 -5 -9 -10 -21 -10 -11 0 -17 5 -14 10 3 6 13 10 21 10 8 0
14 -4 14 -10z m-525 -29 c-8 -13 -35 -15 -35 -2 0 5 8 11 18 13 21 5 26 2 17
-11z m127 9 c27 0 38 -4 35 -12 -2 -7 -13 -12 -23 -11 -10 2 -34 4 -51 5 -20
2 -33 8 -33 17 0 8 6 11 16 7 9 -3 34 -6 56 -6z m1868 0 c0 -5 -5 -10 -11 -10
-5 0 -7 5 -4 10 3 6 8 10 11 10 2 0 4 -4 4 -10z m2223 -15 c4 -8 3 -16 -1 -18
-9 -5 -242 -78 -342 -107 -90 -26 -109 -40 -55 -40 21 0 35 -3 32 -7 -9 -8
-206 18 -213 28 -2 4 10 11 28 15 31 6 188 51 378 107 74 22 99 28 156 36 7 0
14 -6 17 -14z m-3626 -10 c-2 -5 -13 -11 -25 -13 -12 -2 -22 -8 -22 -15 0 -6
-7 -2 -15 9 -13 17 -14 17 -15 2 0 -22 -16 -23 -24 -2 -11 30 -6 34 49 32 33
-1 54 -6 52 -13z m603 -25 c0 -28 -4 -40 -14 -40 -26 0 -14 78 12 80 1 0 2
-18 2 -40z m122 0 c-3 -18 0 -30 7 -30 6 0 11 11 11 25 0 18 5 25 20 25 16 0
20 -7 20 -30 0 -16 5 -30 12 -30 6 0 9 -2 6 -5 -7 -7 -108 15 -108 24 0 7 29
51 34 51 1 0 1 -13 -2 -30z m134 -22 c-6 -10 -18 -18 -27 -18 -22 0 -13 58 10
62 21 5 31 -22 17 -44z m44 0 c0 -30 -1 -31 -16 -16 -14 14 -14 18 -3 32 19
21 19 21 19 -16z m50 18 c0 -7 -6 -19 -14 -25 -11 -9 -12 -6 -8 14 5 26 22 35
22 11z m-2160 -21 c0 -14 -4 -25 -9 -25 -6 0 -8 36 -2 48 5 10 11 -2 11 -23z
m117 13 c-2 -7 -14 -12 -27 -10 -15 3 -21 -1 -18 -10 3 -7 15 -12 27 -11 23 3
26 -4 10 -27 -8 -11 -12 -12 -16 -2 -2 6 -16 12 -29 12 -26 0 -27 3 -18 38 5
17 14 22 41 22 23 0 33 -4 30 -12z m48 2 c3 -5 -3 -10 -15 -10 -12 0 -18 5
-15 10 3 6 10 10 15 10 5 0 12 -4 15 -10z m3863 -25 c20 -43 13 -50 -18 -20
-35 33 -38 45 -12 45 11 0 24 -11 30 -25z m-3860 -16 c-11 -6 -18 -22 -18 -39
0 -16 -4 -31 -8 -34 -12 -7 -10 68 2 76 6 4 18 8 26 8 12 -1 11 -3 -2 -11z
m4934 -16 c-3 -16 -11 -32 -18 -36 -12 -7 -11 -12 1 -31 14 -21 13 -24 -4 -40
-11 -10 -43 -20 -75 -23 -59 -6 -266 15 -266 27 0 8 132 20 220 20 66 0 100 8
100 24 0 9 -21 10 -79 5 -176 -15 -376 -21 -366 -11 6 6 60 25 120 43 81 24
139 35 220 39 61 4 120 7 131 8 18 2 20 -2 16 -25z m-3522 -14 c0 -5 -11 -9
-25 -9 -26 0 -34 15 -12 23 16 5 37 -3 37 -14z m-435 1 c3 -5 -1 -10 -10 -10
-9 0 -13 5 -10 10 3 6 8 10 10 10 2 0 7 -4 10 -10z m595 0 c0 -12 -28 -25 -36
-17 -9 9 6 27 22 27 8 0 14 -5 14 -10z m1975 1 c-6 -5 -28 -11 -50 -15 -37 -6
-39 -5 -21 9 21 16 87 22 71 6z m2259 -12 c-3 -5 -10 -7 -15 -3 -5 3 -7 10 -3
15 3 5 10 7 15 3 5 -3 7 -10 3 -15z m-6124 -14 c0 -12 -9 -15 -35 -13 -51 3
-45 28 7 28 18 0 28 -5 28 -15z m530 -20 c-31 -61 -38 -65 -101 -65 -33 0 -59
1 -59 3 0 4 33 68 43 85 5 7 32 12 72 12 l63 0 -18 -35z m170 19 c0 -7 -4 -16
-10 -19 -15 -9 -12 -25 4 -25 8 0 17 11 20 25 5 21 12 25 41 25 19 0 36 -3 36
-7 15 -88 5 -97 -111 -88 -52 4 -101 12 -107 17 -15 12 -17 78 -3 78 6 0 10
-11 10 -25 0 -16 6 -25 15 -25 10 0 15 10 15 28 0 27 2 29 45 29 30 0 45 -5
45 -13z m248 -11 c2 -9 -9 -13 -37 -13 -32 0 -39 -3 -35 -15 4 -10 0 -15 -14
-15 -22 0 -31 16 -24 43 4 15 13 17 55 15 29 -2 52 -8 55 -15z m3012 8 c0 -5
-3 -11 -7 -13 -5 -2 -21 -18 -37 -36 -42 -46 -14 -40 39 9 l44 40 17 -25 c28
-43 2 -60 -106 -70 -25 -3 -64 -9 -87 -14 -50 -11 -55 -3 -14 21 16 9 53 35
82 57 54 41 69 47 69 31z m-2632 -23 c-6 -17 -98 -17 -98 -1 0 9 16 13 51 13
35 0 49 -4 47 -12z m649 -18 c3 -10 2 -11 -4 -4 -4 6 -15 14 -23 17 -11 5 -9
6 4 4 11 -1 21 -9 23 -17z m1553 0 c-14 -11 -34 -23 -45 -26 -11 -4 -36 -17
-55 -29 -28 -19 -49 -23 -110 -23 l-74 0 53 24 c80 37 192 73 226 74 l30 0
-25 -20z m-1812 -2 c-3 -7 -11 -13 -18 -13 -7 0 -15 6 -17 13 -3 7 4 12 17 12
13 0 20 -5 18 -12z m177 -9 c-8 -12 -35 -12 -35 0 0 11 22 20 33 14 4 -2 5 -9
2 -14z m-1875 1 c0 -16 -27 -23 -55 -16 -39 10 -29 26 15 26 22 0 40 -5 40
-10z m901 -12 c-7 -20 -51 -46 -51 -30 0 6 49 52 56 52 2 0 0 -10 -5 -22z
m1414 12 c-3 -5 -10 -10 -16 -10 -5 0 -9 5 -9 10 0 6 7 10 16 10 8 0 12 -4 9
-10z m-2215 -7 c12 -4 11 -7 -4 -12 -24 -9 -73 -1 -57 9 15 8 41 10 61 3z
m821 -16 c-10 -9 -11 -8 -5 6 3 10 9 15 12 12 3 -3 0 -11 -7 -18z m299 -12
c-7 -8 -17 -12 -22 -9 -5 3 -1 12 9 19 22 17 30 11 13 -10z m40 10 c0 -8 -4
-15 -10 -15 -5 0 -7 7 -4 15 4 8 8 15 10 15 2 0 4 -7 4 -15z m21 -12 c-12 -20
-14 -14 -5 12 4 9 9 14 11 11 3 -2 0 -13 -6 -23z m259 -2 c0 -30 -11 -51 -26
-51 -11 0 -13 7 -8 28 9 34 13 42 25 42 5 0 9 -9 9 -19z m68 -13 c-3 -35 -28
-52 -28 -20 0 28 10 52 22 52 5 0 8 -14 6 -32z m-1168 0 c347 -12 379 -15 354
-41 -6 -6 -6 -110 -1 -196 1 -13 -4 -26 -10 -28 -10 -4 -13 21 -13 100 l0 105
-167 6 c-93 3 -215 8 -273 11 -58 2 -153 5 -212 5 -65 0 -108 4 -108 10 0 17
41 52 55 46 8 -3 176 -11 375 -18z m1508 -10 c-3 -34 -20 -42 -26 -13 -5 22 5
45 18 45 7 0 10 -14 8 -32z m72 3 c0 -29 -14 -49 -23 -34 -8 12 4 63 14 63 5
0 9 -13 9 -29z m715 19 c-3 -5 -13 -10 -21 -10 -8 0 -12 5 -9 10 3 6 13 10 21
10 8 0 12 -4 9 -10z m2462 -17 c-9 -9 -19 -14 -23 -11 -10 10 6 28 24 28 15 0
15 -1 -1 -17z m-1252 -23 c-20 -22 -64 -30 -181 -34 -61 -1 -81 1 -77 10 2 7
31 15 66 18 34 2 85 9 112 14 28 5 61 10 74 11 23 1 24 0 6 -19z m-2247 -8 c2
-7 -6 -12 -17 -12 -21 0 -27 11 -14 24 9 9 26 2 31 -12z m1338 3 c-21 -16 -76
-21 -76 -7 0 17 14 22 54 22 38 -1 40 -2 22 -15z m-1166 -4 c0 -14 -18 -23
-31 -15 -8 4 -7 9 2 15 18 11 29 11 29 0z m1430 -1 c0 -15 -100 -59 -160 -70
-74 -14 -153 -12 -175 3 -11 9 -14 16 -8 20 18 11 144 27 218 27 41 0 80 7 95
15 30 17 30 17 30 5z m300 2 c0 -5 -15 -15 -32 -23 -27 -13 -39 -13 -68 -3
-42 15 -80 17 -99 5 -11 -7 -8 -12 14 -23 l28 -15 -49 -16 c-125 -40 -434 -82
-434 -58 0 7 20 11 53 11 28 1 81 8 117 16 36 9 102 21 148 27 45 5 82 14 82
19 0 4 -4 8 -10 8 -5 0 -10 4 -10 10 0 8 39 29 80 43 25 9 180 8 180 -1z
m-870 -12 c0 -5 -4 -10 -10 -10 -5 0 -10 5 -10 10 0 6 5 10 10 10 6 0 10 -4
10 -10z m-1740 -16 c0 -2 -12 -4 -27 -4 -21 0 -24 3 -14 9 13 8 41 5 41 -5z
m700 -44 c0 -5 -7 -10 -15 -10 -8 0 -15 5 -15 10 0 6 7 10 15 10 8 0 15 -4 15
-10z m174 -5 c-6 -16 -24 -21 -24 -7 0 11 11 22 21 22 5 0 6 -7 3 -15z m866
-5 c0 -5 -7 -10 -15 -10 -8 0 -15 5 -15 10 0 6 7 10 15 10 8 0 15 -4 15 -10z
m2574 -46 c18 -18 18 -17 10 -38 -10 -26 -41 -38 -64 -26 -24 13 -26 37 -3 62
20 22 37 23 57 2z m-3848 -14 c18 -7 20 -14 15 -52 l-6 -43 -119 4 c-65 2
-191 6 -280 10 l-161 6 -3 33 c-7 67 -20 65 271 57 144 -4 271 -11 283 -15z
m4632 -11 c2 -15 -5 -32 -18 -44 -17 -15 -24 -16 -45 -7 -14 6 -25 19 -25 28
0 52 82 74 88 23z m-5941 -21 c-3 -8 -6 -5 -6 6 -1 11 2 17 5 13 3 -3 4 -12 1
-19z m100 0 c-3 -8 -6 -5 -6 6 -1 11 2 17 5 13 3 -3 4 -12 1 -19z m1453 1 c0
-5 -7 -9 -15 -9 -8 0 -15 7 -15 15 0 9 6 12 15 9 8 -4 15 -10 15 -15z m165 1
c-3 -5 -16 -10 -28 -10 -18 0 -19 2 -7 10 20 13 43 13 35 0z m395 1 c0 -11
-25 -21 -56 -21 -15 0 -24 6 -24 15 0 11 11 15 40 15 22 0 40 -4 40 -9z m630
-40 c22 -5 -26 -8 -127 -7 -132 1 -163 4 -163 15 0 11 22 13 128 7 70 -4 143
-11 162 -15z m-650 -26 c0 -10 -10 -15 -30 -15 -20 0 -30 5 -30 15 0 10 10 15
30 15 20 0 30 -5 30 -15z m-2308 -47 c-15 -15 -21 4 -9 32 l10 25 5 -24 c2
-13 -1 -28 -6 -33z m1758 42 c0 -5 -4 -10 -10 -10 -5 0 -10 5 -10 10 0 6 5 10
10 10 6 0 10 -4 10 -10z m170 0 c0 -5 -7 -10 -16 -10 -8 0 -12 5 -9 10 3 6 10
10 16 10 5 0 9 -4 9 -10z m820 -11 c0 -11 -4 -18 -10 -14 -5 3 -7 12 -3 20 7
21 13 19 13 -6z m-1658 -11 c-5 -7 -12 -24 -14 -37 -1 -14 -9 -26 -15 -29 -19
-6 -16 38 4 60 18 20 42 26 25 6z m-176 -56 c-12 -12 -18 8 -10 35 l8 28 4
-28 c2 -16 1 -31 -2 -35z m486 46 c-5 -7 -12 -24 -14 -37 -3 -26 -28 -42 -28
-19 0 25 25 68 39 68 10 0 11 -4 3 -12z m-172 -32 c0 -14 -4 -28 -10 -31 -6
-4 -10 7 -10 24 0 17 5 31 10 31 6 0 10 -11 10 -24z m470 -11 c0 -19 -4 -35
-10 -35 -11 0 -13 30 -4 54 10 25 14 19 14 -19z m3480 25 c0 -5 -2 -10 -4 -10
-3 0 -8 5 -11 10 -3 6 -1 10 4 10 6 0 11 -4 11 -10z m-3637 -47 c-3 -7 -9 -13
-14 -13 -11 0 -12 44 -2 54 9 9 22 -25 16 -41z m628 -26 c-8 -8 -11 -2 -11 19
0 40 14 54 18 19 2 -15 -1 -32 -7 -38z m-151 29 c0 -24 -16 -43 -27 -32 -8 8
6 56 17 56 6 0 10 -11 10 -24z m329 -5 c8 -14 6 -23 -10 -37 -27 -25 -47 -5
-31 31 14 30 28 32 41 6z m-1309 -16 c0 -8 -3 -14 -7 -14 -22 4 -33 -3 -34
-18 0 -10 -3 -13 -5 -6 -7 17 14 53 31 53 8 0 15 -7 15 -15z m-1035 -5 c-3 -5
-12 -10 -20 -10 -8 0 -17 5 -20 10 -4 6 5 10 20 10 15 0 24 -4 20 -10z m1185
0 c0 -5 -7 -10 -15 -10 -7 0 -19 -8 -24 -17 -9 -16 -10 -16 -11 3 0 11 3 24 7
27 10 11 43 8 43 -3z m168 -2 c-6 -18 -58 -30 -58 -13 0 15 15 23 43 24 10 1
17 -4 15 -11z m1392 -57 c0 -61 -8 -90 -21 -77 -8 8 3 146 12 146 5 0 9 -31 9
-69z m-1240 49 c0 -5 -9 -10 -20 -10 -10 0 -24 -8 -29 -17 -11 -20 -15 -4 -5
21 7 17 54 22 54 6z m145 0 c3 -6 -2 -13 -12 -17 -10 -4 -21 -11 -25 -17 -5
-7 -8 -5 -8 5 0 28 32 49 45 29z m155 -10 c13 -8 13 -10 -2 -10 -9 0 -24 -7
-32 -16 -18 -18 -21 -11 -6 17 12 21 18 23 40 9z m170 -9 c0 -5 -11 -11 -25
-13 -26 -5 -35 6 -12 15 20 9 37 8 37 -2z m144 3 c20 -8 11 -24 -14 -24 -10 0
-21 -8 -23 -17 -4 -15 -5 -14 -6 3 0 11 4 25 11 32 14 14 12 14 32 6z m176
-14 c0 -5 -9 -10 -20 -10 -10 0 -24 -8 -29 -17 -9 -15 -10 -15 -11 -2 0 8 5
20 12 27 15 15 48 16 48 2z m-902 -17 c-10 -2 -26 -2 -35 0 -10 3 -2 5 17 5
19 0 27 -2 18 -5z m315 -15 c-16 -8 -32 -8 -55 0 -32 9 -31 10 22 10 46 1 52
-1 33 -10z m167 2 c0 -5 -12 -10 -27 -10 -22 0 -25 2 -13 10 20 13 40 13 40 0z
m2338 3 c-10 -2 -28 -2 -40 0 -13 2 -5 4 17 4 22 1 32 -1 23 -4z m-2184 -13
c-6 -6 -21 -6 -39 -1 -30 9 -30 9 10 10 25 1 36 -2 29 -9z m139 -7 c-7 -2 -21
-2 -30 0 -10 3 -4 5 12 5 17 0 24 -2 18 -5z m197 -3 c0 -5 -21 -10 -46 -10
-27 0 -43 4 -39 10 3 6 24 10 46 10 21 0 39 -4 39 -10z m-2519 -70 c10 -6 19
-17 19 -26 0 -12 -8 -14 -37 -8 -49 9 -52 13 -29 30 24 17 22 17 47 4z m-23
-69 c12 -11 22 -25 22 -33 -1 -8 -7 -5 -18 8 -10 11 -30 24 -44 27 -19 5 -25
12 -22 22 7 16 22 10 62 -24z m2723 -57 c13 -16 9 -17 -41 -14 -42 2 -46 5
-31 23 13 17 55 11 72 -9z m13 -54 c-6 -6 -28 -13 -50 -16 -39 -5 -39 -5 -14
10 29 18 80 22 64 6z m-1171 -37 c-7 -2 -19 -2 -25 0 -7 3 -2 5 12 5 14 0 19
-2 13 -5z m1057 -43 c11 -7 -5 -10 -52 -10 -39 0 -68 4 -68 10 0 13 100 13
120 0z m367 -106 c277 -103 300 -110 443 -152 216 -63 432 -109 685 -147 204
-31 350 -56 435 -76 167 -40 217 -47 374 -54 88 -4 171 -8 185 -10 14 -2 87
-6 161 -10 138 -6 258 -19 268 -29 12 -12 -351 -1 -623 19 -38 3 -115 8 -170
11 -55 3 -127 7 -160 9 -33 2 -118 10 -190 19 -131 15 -349 31 -570 41 -256
12 -778 42 -945 55 -69 5 -206 12 -305 15 -99 4 -216 10 -260 13 l-80 7 -18
105 c-9 58 -15 111 -12 118 3 9 18 12 47 8 24 -3 136 -8 251 -11 l207 -7 35
35 c24 24 35 44 35 64 0 30 7 43 22 43 4 0 88 -30 185 -66z m-952 -73 c7 -13
-66 -72 -85 -69 -19 4 -25 45 -10 64 14 15 85 19 95 5z m-1728 -137 c-3 -3
-12 -4 -19 -1 -8 3 -5 6 6 6 11 1 17 -2 13 -5z m4108 -294 c50 -15 349 -27
543 -22 196 4 257 -1 249 -22 -4 -9 26 -19 106 -35 143 -29 181 -50 218 -121
17 -30 41 -71 55 -90 16 -21 23 -42 20 -55 -3 -12 1 -30 8 -41 19 -27 52 -137
65 -217 9 -50 9 -78 0 -110 -14 -52 -52 -129 -73 -146 -9 -8 -16 -19 -16 -26
0 -24 -96 -99 -176 -139 -44 -22 -91 -48 -106 -58 -15 -10 -71 -28 -125 -39
-54 -11 -118 -27 -143 -35 -57 -18 -105 -18 -256 1 -157 19 -212 30 -314 62
-99 30 -140 49 -140 65 0 15 -31 37 -53 38 -21 0 -29 6 -165 116 -78 64 -91
78 -86 98 4 18 -2 28 -30 49 -19 15 -43 27 -54 27 -27 0 -84 20 -101 35 -10
10 -1 10 45 -1 32 -7 60 -11 62 -9 2 2 -5 16 -17 31 -11 15 -21 35 -21 45 0
10 -9 42 -21 71 -52 131 -57 286 -15 382 47 105 125 134 366 137 102 0 127 3
103 10 -18 5 -33 12 -33 15 0 6 62 -4 105 -16z m-35 -1090 c0 -5 -4 -10 -10
-10 -5 0 -10 5 -10 10 0 6 5 10 10 10 6 0 10 -4 10 -10z m273 -97 c-7 -2 -19
-2 -25 0 -7 3 -2 5 12 5 14 0 19 -2 13 -5z m-998 -88 c28 -3 65 -5 83 -5 29 0
33 -3 30 -22 -2 -18 -10 -23 -35 -24 -18 0 -36 -3 -39 -7 -11 -10 -192 -9
-198 2 -3 5 -1 23 5 40 11 30 13 31 57 26 26 -3 70 -8 97 -10z m662 9 c-3 -3
-12 -4 -19 -1 -8 3 -5 6 6 6 11 1 17 -2 13 -5z m-249 -21 c17 -3 32 -11 32
-18 0 -17 -39 -25 -105 -24 -27 1 -54 0 -60 -1 -28 -6 -83 2 -101 14 -18 14
-18 15 6 25 27 11 174 13 228 4z m32 -93 c0 -15 -16 -19 -78 -21 -41 -1 -63
-6 -66 -15 -7 -19 -60 -18 -76 1 -7 8 -20 15 -29 16 -46 1 39 19 121 25 51 3
95 8 96 9 7 6 32 -7 32 -15z m-427 1 c73 -1 87 -4 87 -17 0 -12 -7 -15 -30
-12 -18 3 -35 -1 -41 -9 -15 -17 -79 -17 -79 0 0 8 -17 11 -60 9 -33 -2 -60 0
-60 5 0 19 23 30 58 27 20 -2 76 -3 125 -3z m42 -82 c6 0 23 3 39 7 29 7 29 6
22 -27 -7 -37 -24 -53 -43 -38 -8 7 -19 7 -34 -1 -20 -11 -59 -10 -182 5 -38
5 -39 7 -27 40 l10 27 103 -7 c56 -3 107 -6 112 -6z m421 -22 c16 -15 -18 -26
-106 -33 -30 -3 -76 -7 -101 -10 -41 -5 -47 -3 -52 16 -5 18 -9 20 -25 11 -21
-11 -32 -6 -32 15 0 10 35 12 155 10 85 -1 157 -5 161 -9z m-421 -69 c6 1 22
4 38 8 26 6 27 5 27 -30 0 -31 -3 -36 -24 -36 -13 0 -27 6 -29 13 -4 9 -7 9
-14 -1 -11 -15 -151 -16 -200 -1 -31 10 -44 35 -26 53 4 4 55 4 113 0 58 -4
110 -7 115 -6z m287 -9 l81 1 -23 -25 c-26 -27 -49 -32 -68 -13 -9 9 -12 9
-12 0 0 -8 -19 -12 -55 -12 -44 0 -53 3 -49 15 7 18 -22 21 -29 3 -4 -10 -8
-9 -16 2 -6 8 -7 18 -3 22 8 7 73 15 85 10 4 -2 44 -3 89 -3z m-347 -81 c112
0 126 -2 123 -17 -3 -14 -20 -16 -147 -13 -80 1 -146 4 -149 7 -2 2 -2 11 2
20 4 11 12 14 26 10 11 -3 76 -6 145 -7z m324 -7 c10 -7 11 -13 2 -30 -17 -30
-86 -30 -94 0 -5 18 -8 19 -27 9 -23 -12 -48 0 -36 18 7 11 136 14 155 3z
m-251 -96 c55 -3 67 -15 67 -71 0 -34 3 -44 15 -42 10 2 17 19 20 47 7 60 27
64 35 7 9 -60 2 -80 -29 -72 -15 4 -31 -1 -46 -14 -23 -20 -42 -25 -53 -14 -3
3 -65 6 -137 7 l-130 0 6 36 c9 51 10 52 67 46 64 -6 61 -6 120 1 39 5 47 3
47 -11 0 -9 5 -13 10 -10 6 3 10 16 10 28 0 21 -4 22 -112 24 -82 2 -115 6
-126 17 -30 30 -4 39 97 31 53 -5 115 -9 139 -10z m427 -15 c-3 -5 -11 -10
-16 -10 -6 0 -7 5 -4 10 3 6 11 10 16 10 6 0 7 -4 4 -10z m-205 -14 c0 -17
-27 -28 -51 -21 -36 12 -20 35 23 35 17 0 28 -5 28 -14z m475 -2 c17 -1 91 -5
165 -8 228 -10 411 -39 273 -45 -45 -1 -268 15 -308 23 -36 7 -119 15 -208 21
-48 3 -98 10 -110 16 -20 8 53 6 188 -7z m-489 -86 c-4 -23 -12 -45 -18 -49
-20 -13 -38 2 -34 27 9 50 18 64 38 64 19 0 20 -4 14 -42z m222 -10 c2 -14 -4
-31 -14 -39 -12 -9 -15 -10 -10 -1 4 6 2 12 -3 12 -6 0 -11 -4 -11 -10 0 -5
-9 -10 -20 -10 -28 0 -25 26 5 56 30 30 49 27 53 -8z m1172 -3 c52 -7 79 -13
60 -14 -19 -1 -48 -8 -65 -17 -23 -12 -45 -14 -90 -9 -33 4 -64 11 -70 15 -5
4 -30 10 -54 13 -24 3 -51 13 -60 22 -15 15 -9 16 84 9 55 -3 143 -12 195 -19z
m270 -15 c63 -5 162 -12 220 -15 141 -8 139 -7 135 -58 -3 -41 -25 -171 -46
-275 -10 -52 -11 -53 -42 -50 -34 3 -34 2 -22 83 l7 41 -44 9 c-51 12 -62 41
-28 75 16 16 20 31 18 63 l-3 42 -120 14 c-99 11 -125 17 -148 37 -15 13 -44
26 -63 30 -25 5 -32 9 -22 15 7 5 20 6 28 3 8 -3 67 -10 130 -14z m-1745 -19
c-6 -19 13 -34 45 -35 21 -1 14 -102 -8 -136 -10 -14 -19 -41 -22 -60 -3 -22
-10 -34 -19 -32 -7 1 -18 -4 -25 -12 -6 -8 -24 -18 -39 -22 -23 -5 -29 -3 -34
15 -7 29 -18 26 -18 -5 l0 -26 70 7 c67 7 69 6 53 -11 -22 -23 -115 -35 -203
-28 -78 7 -93 12 -74 25 10 6 2 9 -21 9 -48 0 -60 10 -65 54 l-5 38 62 -2 c35
-1 74 -1 88 0 24 2 24 3 -5 10 -16 4 -52 8 -80 9 -73 2 -77 7 -80 100 l-3 81
36 2 c21 1 92 2 159 3 l122 2 7 -56 c4 -31 11 -67 16 -81 17 -46 30 3 24 91
-4 66 -3 79 10 79 10 0 13 -6 9 -19z m305 -71 c0 -11 -4 -20 -10 -20 -5 0 -10
9 -10 20 0 11 5 20 10 20 6 0 10 -9 10 -20z m-43 -26 c-3 -3 -12 -4 -19 -1 -8
3 -5 6 6 6 11 1 17 -2 13 -5z m-47 -105 c0 -16 -4 -29 -10 -29 -5 0 -10 16
-10 36 0 21 4 33 10 29 6 -3 10 -19 10 -36z m57 9 c-4 -38 -22 -48 -31 -16
-10 38 -7 48 15 48 17 0 20 -5 16 -32z m51 -19 c-1 -13 -7 -23 -13 -22 -13 3
-18 30 -11 50 10 24 29 1 24 -28z m-95 -61 c3 -13 9 -34 13 -46 6 -21 4 -23
-17 -20 -18 2 -25 10 -27 31 -6 52 20 81 31 35z m214 16 c-3 -3 -12 -4 -19 -1
-8 3 -5 6 6 6 11 1 17 -2 13 -5z m-105 -27 c-2 -10 16 -36 41 -62 24 -24 42
-47 39 -49 -2 -3 -25 -3 -51 1 -57 7 -49 -4 16 -21 l48 -13 -37 -8 c-25 -5
-51 -2 -80 8 -24 9 -36 16 -27 16 15 1 16 6 2 61 -19 72 -13 92 24 88 20 -2
27 -8 25 -21z m1613 -17 c0 -8 -10 -16 -22 -18 -22 -3 -32 16 -16 32 12 11 38
2 38 -14z m-1709 -61 c7 -12 -33 -49 -55 -49 -29 0 -36 32 -12 51 20 17 56 15
67 -2z m254 -25 c0 -17 -22 -14 -28 4 -2 7 3 12 12 12 9 0 16 -7 16 -16z m358
-49 c-7 -6 -68 8 -68 15 0 15 55 16 63 2 5 -8 7 -15 5 -17z"/>
<path d="M3921 7574 c0 -11 3 -14 6 -6 3 7 2 16 -1 19 -3 4 -6 -2 -5 -13z"/>
<path d="M3915 7521 c-3 -5 -1 -12 5 -16 5 -3 10 1 10 9 0 18 -6 21 -15 7z"/>
<path d="M3788 6925 c-4 -20 -3 -23 8 -14 7 6 22 8 33 4 10 -3 22 -1 25 4 7
11 1 16 -35 25 -23 5 -27 2 -31 -19z"/>
<path d="M5335 6770 c-11 -5 -41 -9 -66 -9 -41 -1 -59 -11 -59 -34 0 -4 116 4
138 9 14 3 22 12 22 24 0 22 -5 23 -35 10z"/>
<path d="M4580 6564 c0 -8 5 -12 10 -9 6 3 10 10 10 16 0 5 -4 9 -10 9 -5 0
-10 -7 -10 -16z"/>
<path d="M4524 6536 c-4 -11 -13 -15 -25 -11 -10 3 -26 2 -36 -4 -10 -5 -37
-14 -60 -20 -24 -7 -43 -17 -43 -24 0 -7 -3 -22 -6 -34 -4 -14 -2 -23 5 -23 6
0 11 11 11 24 0 23 23 41 40 31 5 -3 25 4 46 15 26 15 40 18 47 11 16 -16 47
-13 54 5 3 8 -1 23 -10 32 -15 14 -17 14 -23 -2z"/>
<path d="M3887 6533 c-14 -13 -6 -33 13 -33 13 0 20 7 20 20 0 19 -20 27 -33
13z"/>
<path d="M3933 6524 c-7 -20 17 -37 34 -23 15 13 6 39 -13 39 -8 0 -17 -7 -21
-16z"/>
<path d="M4257 6504 c-16 -16 -6 -35 16 -32 12 2 22 10 22 18 0 16 -26 25 -38
14z"/>
<path d="M4310 6490 c0 -24 25 -27 34 -4 9 23 8 24 -14 24 -13 0 -20 -7 -20
-20z"/>
<path d="M4560 6465 c-7 -9 -10 -18 -7 -21 9 -9 48 16 42 27 -9 13 -21 11 -35
-6z"/>
<path d="M4450 6450 c-9 -16 -8 -20 5 -20 8 0 15 9 15 20 0 11 -2 20 -5 20 -2
0 -9 -9 -15 -20z"/>
<path d="M4500 6448 c0 -19 2 -20 10 -8 13 19 13 30 0 30 -5 0 -10 -10 -10
-22z"/>
<path d="M4313 6453 c-7 -2 -13 -14 -13 -25 0 -28 34 -19 38 10 3 22 -2 25
-25 15z"/>
<path d="M4400 6440 c0 -11 5 -20 10 -20 6 0 10 9 10 20 0 11 -4 20 -10 20 -5
0 -10 -9 -10 -20z"/>
<path d="M4206 6443 c-4 -4 -19 -7 -34 -8 -17 0 -28 -6 -30 -17 -2 -13 3 -18
17 -18 12 0 21 5 21 11 0 8 5 7 16 -1 12 -11 18 -11 31 2 8 9 12 21 9 27 -8
13 -20 14 -30 4z"/>
<path d="M4250 6430 c0 -23 10 -26 28 -8 18 18 15 28 -8 28 -13 0 -20 -7 -20
-20z"/>
<path d="M4830 6430 c-8 -5 -25 -7 -37 -4 -16 4 -25 1 -29 -10 -9 -23 1 -30
24 -17 11 6 23 6 28 1 13 -13 37 4 32 23 -2 12 -7 14 -18 7z"/>
<path d="M4716 6421 c-4 -6 -13 -8 -21 -4 -8 3 -22 2 -31 -1 -13 -5 -14 -9 -4
-21 7 -8 17 -12 23 -8 5 3 22 6 36 7 15 1 26 7 26 15 0 18 -21 26 -29 12z"/>
<path d="M4570 6412 c-5 -2 -10 -10 -10 -17 0 -8 14 -13 40 -13 33 -1 40 3 40
18 0 15 -6 19 -30 17 -16 -1 -34 -3 -40 -5z"/>
<path d="M4417 6402 c-10 -2 -16 -9 -14 -15 5 -16 87 -21 87 -6 0 8 4 8 15 -1
16 -13 35 -6 35 15 0 16 -67 18 -76 3 -3 -5 -11 -5 -17 0 -7 5 -20 7 -30 4z"/>
<path d="M4307 6393 c-10 -9 -8 -43 2 -43 5 0 14 7 21 15 17 21 -4 48 -23 28z"/>
<path d="M4353 6385 c-3 -9 -3 -18 0 -22 10 -10 37 6 37 22 0 20 -29 20 -37 0z"/>
<path d="M4196 6373 c-8 -19 8 -38 23 -29 16 10 13 46 -3 46 -8 0 -17 -8 -20
-17z"/>
<path d="M4247 6370 c-4 -15 0 -20 14 -20 12 0 19 7 19 20 0 11 -6 20 -14 20
-7 0 -16 -9 -19 -20z"/>
<path d="M4038 6355 c-7 -34 7 -40 32 -15 15 15 20 17 20 5 0 -20 16 -19 24 1
9 24 -2 34 -38 34 -28 0 -34 -4 -38 -25z"/>
<path d="M4143 6365 c-3 -9 -3 -18 0 -22 10 -10 37 6 37 22 0 20 -29 20 -37 0z"/>
<path d="M4562 6344 c4 -21 22 -23 26 -1 2 10 -3 17 -13 17 -10 0 -15 -6 -13
-16z"/>
<path d="M4604 6349 c-8 -14 11 -33 25 -25 16 10 13 36 -3 36 -8 0 -18 -5 -22
-11z"/>
<path d="M4656 6344 c-6 -17 10 -28 27 -17 6 4 19 6 28 5 9 -2 21 4 28 12 10
12 5 14 -33 14 -27 -1 -47 -6 -50 -14z"/>
<path d="M3670 6335 c-16 -19 -6 -46 15 -39 16 7 21 39 6 48 -5 3 -14 -1 -21
-9z"/>
<path d="M3721 6331 c-11 -20 -5 -31 16 -31 7 0 13 11 13 25 0 29 -15 33 -29
6z"/>
<path d="M3770 6329 c0 -25 33 -22 38 4 2 12 -3 17 -17 17 -15 0 -21 -6 -21
-21z"/>
<path d="M4407 6343 c-10 -9 -8 -43 2 -43 5 0 14 7 21 15 17 21 -4 48 -23 28z"/>
<path d="M4457 6343 c-12 -11 -7 -33 7 -33 12 0 26 20 26 36 0 7 -26 5 -33 -3z"/>
<path d="M4516 6343 c-11 -11 -6 -23 9 -23 8 0 15 4 15 9 0 13 -16 22 -24 14z"/>
<path d="M4298 6323 c-7 -9 -5 -15 8 -20 10 -4 19 -2 22 5 2 8 9 8 23 -1 16
-10 21 -9 29 3 5 8 10 18 10 22 0 12 -81 4 -92 -9z"/>
<path d="M3553 6315 c-3 -9 -3 -18 0 -22 10 -10 37 6 37 22 0 20 -29 20 -37 0z"/>
<path d="M3610 6310 c0 -24 25 -27 34 -4 9 23 8 24 -14 24 -13 0 -20 -7 -20
-20z"/>
<path d="M4203 6323 c-7 -2 -13 -11 -13 -20 0 -20 34 -12 38 10 3 17 -3 20
-25 10z"/>
<path d="M4140 6299 c0 -25 33 -22 38 4 2 12 -3 17 -17 17 -15 0 -21 -6 -21
-21z"/>
<path d="M3991 6301 c-8 -5 -11 -16 -7 -26 5 -14 9 -15 21 -5 16 13 21 40 8
40 -5 0 -14 -4 -22 -9z"/>
<path d="M4265 6300 c3 -5 8 -10 11 -10 2 0 4 5 4 10 0 6 -5 10 -11 10 -5 0
-7 -4 -4 -10z"/>
<path d="M3825 6284 c-11 -11 -13 -20 -6 -27 13 -13 41 -2 41 17 0 23 -17 28
-35 10z"/>
<path d="M3770 6265 c0 -29 15 -33 29 -6 11 20 5 31 -16 31 -7 0 -13 -11 -13
-25z"/>
<path d="M3603 6264 c-3 -8 -1 -20 6 -27 14 -14 47 15 37 32 -10 16 -36 13
-43 -5z"/>
<path d="M3660 6262 c0 -26 11 -34 27 -21 20 17 16 39 -7 39 -13 0 -20 -7 -20
-18z"/>
<path d="M3714 6265 c-4 -9 -3 -19 0 -23 9 -8 42 12 39 24 -4 16 -33 16 -39
-1z"/>
<path d="M3547 6250 c-4 -16 0 -20 19 -20 17 0 24 6 24 20 0 13 -7 20 -19 20
-10 0 -21 -9 -24 -20z"/>
<path d="M3825 6230 c-3 -5 1 -10 9 -10 8 0 18 5 21 10 3 6 -1 10 -9 10 -8 0
-18 -4 -21 -10z"/>
<path d="M4795 6510 c-3 -5 -1 -10 4 -10 6 0 11 5 11 10 0 6 -2 10 -4 10 -3 0
-8 -4 -11 -10z"/>
<path d="M3068 6118 c9 -9 15 -9 24 0 9 9 7 12 -12 12 -19 0 -21 -3 -12 -12z"/>
<path d="M3215 6120 c-3 -5 1 -10 9 -10 8 0 18 5 21 10 3 6 -1 10 -9 10 -8 0
-18 -4 -21 -10z"/>
<path d="M1756 5751 c-10 -16 5 -41 24 -41 10 0 20 6 23 14 10 25 -33 50 -47
27z m26 -23 c-7 -7 -12 -8 -12 -2 0 14 12 26 19 19 2 -3 -1 -11 -7 -17z"/>
<path d="M1820 5734 c0 -14 4 -23 9 -20 5 3 7 15 4 26 -7 28 -13 25 -13 -6z"/>
<path d="M1850 5740 c0 -26 34 -44 49 -26 14 17 2 29 -16 15 -10 -9 -13 -8
-13 4 0 8 6 18 13 20 6 3 2 6 -10 6 -16 1 -23 -5 -23 -19z"/>
<path d="M1998 5735 c-5 -26 5 -41 21 -31 10 6 2 56 -9 56 -4 0 -10 -11 -12
-25z"/>
<path d="M2124 5746 c-3 -8 -1 -22 4 -32 8 -14 10 -13 14 10 6 29 -9 47 -18
22z"/>
<path d="M1920 5730 c0 -11 5 -20 10 -20 6 0 10 9 10 20 0 11 -4 20 -10 20 -5
0 -10 -9 -10 -20z"/>
<path d="M1950 5731 c0 -19 17 -38 25 -29 7 7 -7 48 -16 48 -5 0 -9 -9 -9 -19z"/>
<path d="M2044 5739 c-7 -12 5 -31 16 -24 5 3 11 1 15 -5 11 -18 25 -11 25 13
0 16 -6 22 -25 23 -14 1 -28 -2 -31 -7z"/>
<path d="M1495 5590 c-3 -5 1 -10 9 -10 9 0 16 5 16 10 0 6 -4 10 -9 10 -6 0
-13 -4 -16 -10z"/>
<path d="M6318 5523 c6 -2 18 -2 25 0 6 3 1 5 -13 5 -14 0 -19 -2 -12 -5z"/>
<path d="M1814 5386 c-11 -29 1 -51 26 -51 31 0 40 33 14 52 -23 17 -33 16
-40 -1z"/>
<path d="M2018 5384 c-5 -4 -8 -18 -8 -31 0 -18 5 -23 27 -23 23 0 25 2 11 13
-9 6 -18 20 -20 30 -1 11 -6 15 -10 11z"/>
<path d="M2150 5374 c0 -8 5 -12 10 -9 6 4 8 11 5 16 -9 14 -15 11 -15 -7z"/>
<path d="M2106 5355 c-8 -23 -8 -35 3 -35 13 0 23 32 13 42 -6 6 -12 3 -16 -7z"/>
<path d="M2322 5083 c3 -25 8 -28 41 -31 37 -3 38 -2 35 25 -3 25 -8 28 -41
31 -37 3 -38 2 -35 -25z m48 3 c0 -8 -4 -18 -10 -21 -5 -3 -10 3 -10 14 0 12
5 21 10 21 6 0 10 -6 10 -14z"/>
<path d="M2424 5085 c-9 -14 -14 -28 -11 -31 9 -9 27 6 27 22 0 8 5 14 11 14
6 0 9 -6 6 -14 -5 -13 20 -32 30 -22 6 6 -28 56 -38 56 -5 0 -16 -11 -25 -25z"/>
<path d="M2507 5103 c-13 -12 -7 -51 9 -57 37 -14 54 -7 54 23 0 17 -6 31 -16
35 -20 8 -39 8 -47 -1z m38 -43 c-3 -5 -11 -10 -16 -10 -6 0 -7 5 -4 10 3 6
11 10 16 10 6 0 7 -4 4 -10z"/>
<path d="M2590 5095 c0 -6 8 -19 16 -30 15 -20 15 -20 30 -1 19 27 18 39 -4
27 -13 -7 -23 -6 -30 1 -7 7 -12 8 -12 3z"/>
<path d="M2670 5071 c0 -29 3 -31 36 -31 32 0 35 2 32 27 -2 22 -9 27 -35 30
-31 4 -33 2 -33 -26z m44 -12 c-3 -5 -10 -7 -15 -3 -5 3 -7 10 -3 15 3 5 10 7
15 3 5 -3 7 -10 3 -15z"/>
<path d="M2798 5083 c12 -2 22 -11 22 -19 0 -8 -10 -14 -22 -15 -19 -1 -18 -2
6 -9 36 -11 46 -6 46 26 0 21 -4 24 -37 23 -24 -1 -29 -3 -15 -6z"/>
<path d="M5026 1891 c-3 -5 1 -11 9 -15 8 -3 15 -1 15 4 0 13 -18 22 -24 11z"/>
<path d="M4885 1871 c-3 -5 -1 -12 5 -16 5 -3 10 1 10 9 0 18 -6 21 -15 7z"/>
<path d="M4677 1849 c7 -7 15 -10 18 -7 3 3 -2 9 -12 12 -14 6 -15 5 -6 -5z"/>
<path d="M5042 1835 c0 -16 2 -22 5 -12 2 9 2 23 0 30 -3 6 -5 -1 -5 -18z"/>
<path d="M4720 1840 c0 -12 49 -30 55 -20 3 5 0 12 -7 16 -16 10 -48 13 -48 4z"/>
<path d="M4880 1825 c0 -8 2 -15 4 -15 2 0 6 7 10 15 3 8 1 15 -4 15 -6 0 -10
-7 -10 -15z"/>
<path d="M4967 1764 c-9 -9 22 -66 33 -59 14 8 4 60 -12 63 -8 1 -17 0 -21 -4z"/>
<path d="M4860 1740 l-35 -6 35 -11 c20 -6 39 -6 45 -2 16 15 -8 25 -45 19z"/>
<path d="M4774 1639 c-3 -5 9 -9 25 -9 17 0 31 2 31 4 0 8 -51 13 -56 5z"/>
<path d="M2857 7901 c-9 -32 -19 -78 -22 -102 -10 -73 13 -22 34 76 22 96 13
115 -12 26z"/>
<path d="M7410 7480 c-12 -7 -11 -10 5 -15 11 -4 31 -13 45 -21 78 -46 83 -47
126 -28 l39 17 -87 21 c-48 12 -90 24 -94 29 -9 9 -16 9 -34 -3z"/>
<path d="M7400 7430 c-12 -8 -12 -10 2 -15 26 -10 43 -2 26 12 -8 7 -19 8 -28
3z"/>
<path d="M7483 7383 c9 -9 19 -14 23 -11 10 10 -6 28 -24 28 -15 0 -15 -1 1
-17z"/>
<path d="M1505 7211 c-22 -10 -51 -31 -65 -47 -17 -19 -18 -24 -5 -13 33 26
95 51 111 45 29 -11 10 -40 -31 -48 -103 -21 -151 -70 -250 -253 -21 -38 -41
-75 -46 -81 -4 -5 -6 -19 -3 -31 4 -14 0 -22 -13 -25 -12 -3 -34 -35 -56 -81
-20 -42 -37 -78 -37 -81 0 -3 104 -6 231 -6 l231 0 -7 68 c-3 37 -11 84 -17
104 -13 45 -2 63 43 73 17 4 33 13 36 21 2 7 0 55 -5 106 -6 51 -7 97 -2 101
4 5 17 4 27 -2 25 -13 63 -3 63 17 0 8 -3 12 -7 9 -11 -12 -33 14 -33 39 0 33
-58 93 -95 99 -18 3 -46 -2 -70 -14z m119 -106 c7 -20 -24 -35 -72 -35 -39 0
-60 19 -46 41 9 16 111 11 118 -6z m-61 -192 c-13 -2 -35 -2 -50 0 -16 2 -5 4
22 4 28 0 40 -2 28 -4z m-16 -59 c-3 -3 -12 -4 -19 -1 -8 3 -5 6 6 6 11 1 17
-2 13 -5z"/>
<path d="M1698 7003 c7 -3 16 -2 19 1 4 3 -2 6 -13 5 -11 0 -14 -3 -6 -6z"/>
<path d="M1705 6960 c-3 -5 -2 -10 4 -10 5 0 13 5 16 10 3 6 2 10 -4 10 -5 0
-13 -4 -16 -10z"/>
<path d="M7852 6931 c-22 -13 -11 -65 14 -69 26 -4 42 28 21 43 -7 5 -16 15
-18 22 -2 8 -9 9 -17 4z"/>
<path d="M7954 6915 c-4 -8 -3 -26 0 -39 4 -18 11 -23 25 -19 29 7 34 33 12
55 -24 22 -30 22 -37 3z"/>
<path d="M7955 6707 c-27 -12 -72 -37 -100 -54 -27 -18 -65 -35 -83 -39 -39
-8 -49 -20 -23 -29 12 -4 18 -12 14 -21 -3 -9 1 -14 14 -14 11 0 52 -16 92
-36 40 -19 88 -38 107 -41 33 -6 34 -5 34 29 0 33 -2 36 -37 42 -21 3 -57 6
-79 6 -41 0 -62 18 -49 41 9 13 75 29 123 29 l42 0 0 55 c0 30 -1 55 -2 55 -2
-1 -25 -11 -53 -23z"/>
<path d="M7990 6580 c-13 -8 -12 -10 3 -10 9 0 17 5 17 10 0 12 -1 12 -20 0z"/>
<path d="M7580 6573 c-71 -4 -97 -17 -79 -39 16 -19 148 -19 174 0 22 16 14
47 -12 44 -10 -1 -47 -3 -83 -5z"/>
<path d="M1508 6453 c12 -2 32 -2 45 0 12 2 2 4 -23 4 -25 0 -35 -2 -22 -4z"/>
<path d="M1898 6443 c12 -2 30 -2 40 0 9 3 -1 5 -23 4 -22 0 -30 -2 -17 -4z"/>
<path d="M1000 6241 c0 -25 11 -33 27 -20 18 16 16 26 -7 32 -14 4 -20 0 -20
-12z"/>
<path d="M7473 5883 c9 -2 25 -2 35 0 9 3 1 5 -18 5 -19 0 -27 -2 -17 -5z"/>
<path d="M5443 5853 c20 -2 54 -2 75 0 20 2 3 4 -38 4 -41 0 -58 -2 -37 -4z"/>
<path d="M5405 5720 c-3 -6 4 -10 17 -10 13 0 45 -13 71 -30 29 -18 61 -30 82
-30 47 0 44 17 -4 25 -21 3 -54 17 -72 31 -34 25 -83 32 -94 14z"/>
<path d="M5641 5599 c8 -5 43 -8 79 -8 79 1 69 6 -24 12 -42 3 -63 1 -55 -4z"/>
<path d="M5813 5583 c15 -2 37 -2 50 0 12 2 0 4 -28 4 -27 0 -38 -2 -22 -4z"/>
<path d="M0 4954 l0 -201 243 -7 c133 -3 327 -11 430 -17 104 -6 191 -8 194
-5 6 5 -10 185 -29 324 l-11 82 -56 0 c-31 0 -173 4 -316 10 -143 5 -304 11
-358 12 l-97 3 0 -201z"/>
<path d="M1782 4375 c0 -16 2 -22 5 -12 2 9 2 23 0 30 -3 6 -5 -1 -5 -18z"/>
<path d="M0 3031 l0 -1230 42 -5 c24 -3 79 -8 123 -11 194 -13 342 -27 510
-46 99 -11 218 -24 265 -29 160 -18 311 -43 303 -51 -8 -7 -191 1 -438 21
-150 11 -181 14 -524 40 -140 11 -260 20 -268 20 -10 0 -13 -24 -13 -105 l0
-105 28 0 c23 0 184 -12 467 -35 33 -3 123 -10 200 -16 77 -5 160 -14 185 -19
41 -8 98 -13 450 -41 63 -5 162 -14 220 -20 211 -21 307 -30 393 -34 49 -3 97
-10 108 -16 15 -7 19 -6 19 5 0 14 -130 360 -170 451 -12 28 -58 145 -102 260
-138 363 -189 486 -264 636 -40 81 -80 149 -89 153 -9 3 -32 6 -51 6 -51 0
-171 20 -246 41 -36 11 -74 19 -83 19 -58 0 -346 180 -361 225 -4 11 -19 47
-34 80 -34 72 -55 219 -46 315 10 98 45 231 72 271 13 19 24 42 24 50 0 20 82
97 160 150 35 24 68 47 73 50 4 3 3 35 -4 71 l-12 65 -161 11 c-89 7 -206 14
-261 17 -55 3 -154 10 -220 15 -66 5 -159 12 -207 15 l-88 5 0 -1229z m208
1082 c-10 -2 -26 -2 -35 0 -10 3 -2 5 17 5 19 0 27 -2 18 -5z m310 -10 c-21
-2 -57 -2 -80 0 -24 2 -7 4 37 4 44 0 63 -2 43 -4z m941 -1482 c22 -6 22 -8 7
-20 -12 -10 -32 -12 -72 -7 -40 4 -61 3 -72 -6 -12 -10 -16 -10 -19 0 -3 6
-11 12 -19 12 -8 0 -14 5 -14 11 0 7 10 9 24 5 14 -3 28 -2 31 4 7 11 96 12
134 1z m-165 -127 c7 -60 4 -70 -14 -59 -7 4 -9 18 -6 31 6 21 3 24 -19 24
-30 0 -34 26 -5 35 11 3 20 11 20 16 0 5 4 9 9 9 4 0 11 -25 15 -56z m136 37
c28 -8 38 -35 21 -55 -10 -12 -26 -13 -87 -7 -16 1 -46 49 -39 61 7 11 67 12
105 1z m120 -171 c0 -5 -7 -10 -16 -10 -8 0 -12 5 -9 10 3 6 10 10 16 10 5 0
9 -4 9 -10z m-221 -6 c42 -5 59 -10 53 -18 -4 -6 -9 -24 -11 -41 -4 -47 -43
-109 -71 -115 -17 -3 -25 -12 -26 -27 0 -13 3 -23 8 -23 5 0 5 -7 0 -16 -10
-18 -4 -64 9 -64 5 0 9 -10 9 -22 0 -28 15 -52 26 -45 5 3 27 1 49 -3 l40 -8
-36 -1 c-20 0 -50 -4 -67 -7 -27 -6 -31 -3 -41 28 -13 40 -51 349 -44 361 5 9
22 9 102 1z m21 -253 c0 -6 -10 -17 -22 -25 -25 -18 -44 -7 -35 18 7 17 57 23
57 7z m70 -52 c-7 -16 -16 -29 -21 -29 -12 0 -12 1 7 46 9 22 19 33 21 26 3
-7 0 -26 -7 -43z m-40 16 c0 -14 -40 -38 -49 -29 -6 5 30 44 41 44 4 0 8 -7 8
-15z"/>
<path d="M1418 2503 c7 -3 16 -2 19 1 4 3 -2 6 -13 5 -11 0 -14 -3 -6 -6z"/>
<path d="M2280 1206 c0 -9 5 -16 10 -16 6 0 10 4 10 9 0 6 -4 13 -10 16 -5 3
-10 -1 -10 -9z"/>
<path d="M0 553 l0 -553 1144 0 1145 0 8 47 c4 27 8 136 7 243 -1 203 -14 299
-75 535 -39 152 -33 143 -85 137 -25 -2 -179 5 -342 17 -163 12 -364 26 -447
32 -82 6 -202 15 -265 20 -63 5 -232 18 -375 29 -143 11 -314 24 -380 29 -66
6 -168 12 -227 13 l-108 4 0 -553z m1353 390 c-7 -2 -21 -2 -30 0 -10 3 -4 5
12 5 17 0 24 -2 18 -5z m-370 -20 c-7 -2 -21 -2 -30 0 -10 3 -4 5 12 5 17 0
24 -2 18 -5z m-450 -30 c-13 -2 -35 -2 -50 0 -16 2 -5 4 22 4 28 0 40 -2 28
-4z m912 -3 c4 -7 -13 -10 -49 -8 -31 2 -56 6 -56 11 0 11 98 8 105 -3z m-37
-57 c-10 -2 -26 -2 -35 0 -10 3 -2 5 17 5 19 0 27 -2 18 -5z m-1185 -10 c-7
-2 -21 -2 -30 0 -10 3 -4 5 12 5 17 0 24 -2 18 -5z m2 -43 c23 -6 12 -8 -42
-9 -43 -1 -73 3 -73 9 0 11 70 11 115 0z m1545 0 c0 -5 -4 -10 -10 -10 -5 0
-10 5 -10 10 0 6 5 10 10 10 6 0 10 -4 10 -10z m-295 -30 c4 -6 -17 -9 -57 -8
l-63 1 55 7 c30 4 56 7 57 8 1 1 5 -2 8 -8z m-1022 -37 c-7 -2 -19 -2 -25 0
-7 3 -2 5 12 5 14 0 19 -2 13 -5z m927 -83 c-30 -4 -64 -3 -75 1 -12 5 10 7
55 7 l75 -1 -55 -7z m58 -57 c-10 -2 -26 -2 -35 0 -10 3 -2 5 17 5 19 0 27 -2
18 -5z"/>
<path d="M2316 949 c3 -19 18 -88 34 -154 50 -205 62 -299 64 -475 0 -91 -3
-200 -7 -243 l-8 -77 708 0 708 0 -41 23 c-23 12 -52 30 -65 39 -24 17 -23 17
41 19 l65 2 -66 7 c-75 7 -132 27 -126 44 4 13 132 15 241 4 39 -4 128 -10
198 -12 132 -6 178 -18 197 -54 8 -16 2 -17 -82 -15 l-92 2 55 -14 c30 -8 93
-14 140 -14 84 1 84 1 51 15 -18 8 -31 17 -29 19 2 2 51 9 108 15 58 6 120 13
138 17 17 3 32 1 32 -3 0 -11 -113 -64 -138 -64 -9 -1 -28 -7 -42 -15 -24 -14
-22 -14 38 -15 57 0 67 3 112 37 28 21 50 40 50 44 0 8 107 77 159 102 26 13
37 14 47 6 21 -17 17 -25 -18 -48 -18 -11 -40 -25 -48 -30 -8 -5 -44 -27 -80
-47 -36 -21 -71 -44 -78 -51 -23 -23 42 -16 71 7 20 16 125 60 142 60 2 0 5
-9 8 -19 6 -23 44 -31 182 -35 61 -2 101 -8 103 -15 3 -8 397 -11 1463 -11
l1459 0 -2 243 -3 242 -245 16 c-135 10 -265 20 -290 23 -25 3 -144 13 -265
21 -121 9 -323 25 -450 35 -126 11 -315 27 -420 35 -104 9 -235 20 -290 25
-95 9 -213 18 -510 40 -159 11 -354 27 -500 41 -60 6 -189 16 -285 24 -96 7
-251 20 -345 29 -93 8 -235 20 -315 26 -449 33 -619 46 -820 65 -85 8 -236 19
-335 26 -99 6 -223 15 -275 20 -52 5 -144 12 -203 15 -99 6 -109 9 -127 32
l-20 25 6 -34z m379 -174 c6 -2 -18 -4 -53 -4 -35 -1 -61 3 -58 8 5 8 85 5
111 -4z m88 -12 c-7 -2 -21 -2 -30 0 -10 3 -4 5 12 5 17 0 24 -2 18 -5z m157
-173 c11 -7 1 -10 -35 -9 -37 0 -45 3 -30 9 27 12 47 12 65 0z m40 -59 l45 -8
-40 -1 c-22 0 -60 3 -85 7 l-45 8 40 1 c22 0 60 -3 85 -7z m1073 -58 c-7 -2
-21 -2 -30 0 -10 3 -4 5 12 5 17 0 24 -2 18 -5z m-310 -40 c-13 -2 -33 -2 -45
0 -13 2 -3 4 22 4 25 0 35 -2 23 -4z m607 -13 c0 -5 -6 -10 -14 -10 -8 0 -18
5 -21 10 -3 6 3 10 14 10 12 0 21 -4 21 -10z m-623 -36 c-3 -3 -12 -4 -19 -1
-8 3 -5 6 6 6 11 1 17 -2 13 -5z m-147 -34 c0 -5 -4 -10 -9 -10 -6 0 -13 5
-16 10 -3 6 1 10 9 10 9 0 16 -4 16 -10z m4010 -80 c0 -25 -27 -37 -43 -21 -9
10 -8 16 7 27 27 19 36 18 36 -6z"/>
<path d="M3903 73 c9 -2 23 -2 30 0 6 3 -1 5 -18 5 -16 0 -22 -2 -12 -5z"/>
<path d="M4073 3 c20 -2 54 -2 75 0 20 2 3 4 -38 4 -41 0 -58 -2 -37 -4z"/>
<path d="M4713 3 c26 -2 68 -2 95 0 26 2 4 3 -48 3 -52 0 -74 -1 -47 -3z"/>
</g>
</svg>
