<?xml version="1.0" standalone="no"?>
<!DOCTYPE svg PUBLIC "-//W3C//DTD SVG 20010904//EN"
 "http://www.w3.org/TR/2001/REC-SVG-20010904/DTD/svg10.dtd">
<svg version="1.0" xmlns="http://www.w3.org/2000/svg"
 width="1024.000000pt" height="1024.000000pt" viewBox="0 0 1024.000000 1024.000000"
 preserveAspectRatio="xMidYMid meet">

<g transform="translate(0.000000,1024.000000) scale(0.100000,-0.100000)"
fill="#000000" stroke="none">
<path d="M5498 8943 c-18 -15 -71 -63 -118 -107 -47 -45 -113 -106 -146 -136
-34 -30 -110 -101 -170 -158 -96 -91 -108 -107 -108 -137 0 -19 6 -45 13 -59
22 -40 638 -616 671 -628 26 -9 36 -7 69 15 21 14 67 57 102 96 59 66 89 86
89 60 0 -6 25 -35 55 -64 l54 -53 -128 -125 c-101 -97 -139 -128 -176 -141
-55 -18 -131 -65 -164 -100 -22 -23 -23 -28 -11 -58 15 -40 417 -440 506 -504
34 -24 71 -44 82 -44 22 0 23 4 37 113 4 26 19 85 35 130 23 67 33 83 52 87
16 4 219 200 234 228 1 2 13 -16 27 -40 14 -24 41 -58 61 -77 l36 -35 -95 -97
c-74 -75 -95 -102 -95 -124 0 -29 65 -97 480 -501 194 -189 246 -234 271 -234
12 0 126 101 299 266 250 238 280 270 280 298 0 49 -26 82 -190 236 -85 80
-233 222 -329 316 -97 95 -186 177 -198 183 -35 18 -66 -1 -175 -106 l-100
-98 -16 25 c-9 14 -38 46 -64 73 l-48 47 67 63 c38 35 87 81 111 102 58 52 62
76 22 126 l-32 40 20 22 c27 29 52 89 52 125 0 28 -16 78 -43 130 -6 13 -25
31 -42 39 -81 43 -158 34 -212 -24 l-33 -34 -27 26 c-16 15 -41 33 -56 41 -37
20 -50 11 -183 -118 l-100 -97 -58 55 -58 55 90 88 c106 104 126 132 117 162
-4 11 -156 169 -338 350 -362 361 -354 355 -419 302z m150 -262 c45 -43 82
-80 82 -83 0 -3 -24 -29 -54 -59 -29 -30 -55 -60 -57 -67 -3 -10 -18 -2 -44
25 -22 21 -64 60 -94 87 -48 44 -51 50 -35 59 14 7 119 110 119 116 0 0 37
-34 83 -78z m-186 -346 c-9 -5 -41 -34 -71 -64 l-54 -53 -83 84 -83 85 62 64
62 64 92 -85 c78 -72 89 -86 75 -95z m487 43 c45 -45 81 -84 81 -87 0 -2 -24
-27 -54 -55 -29 -28 -56 -58 -59 -66 -3 -11 -30 10 -91 71 l-87 85 63 66 c35
36 64 66 65 67 1 0 38 -36 82 -81z m-261 -239 l81 -82 -66 -64 c-59 -57 -68
-62 -77 -46 -5 10 -36 45 -68 79 -32 33 -58 64 -58 69 0 5 24 34 53 66 28 31
52 57 53 58 0 0 37 -36 82 -80z m772 -497 c-58 -53 -136 -129 -173 -169 l-68
-72 -82 81 -81 80 30 22 c45 32 237 210 284 263 l43 48 76 -78 76 -79 -105
-96z m-486 -311 l68 -68 -28 -52 -27 -52 -31 38 c-17 21 -50 59 -73 84 -24 25
-43 50 -43 54 0 10 51 65 60 65 3 0 36 -31 74 -69z m1078 -36 c11 -15 51 -53
89 -86 l70 -59 -35 -21 c-20 -11 -48 -38 -63 -59 l-28 -37 -94 86 -93 87 58
57 c33 31 63 57 68 57 4 0 17 -11 28 -25z m-191 -287 c49 -45 89 -85 89 -89 0
-4 -14 -16 -30 -26 -17 -10 -47 -41 -67 -70 l-36 -52 -24 37 c-14 20 -52 64
-84 98 l-60 61 58 61 c32 33 59 61 61 61 2 1 44 -36 93 -81z m634 -194 c-16
-12 -45 -40 -63 -63 l-33 -41 -37 42 c-20 24 -59 64 -86 89 l-49 46 63 60 63
60 86 -86 86 -86 -30 -21z m-365 -55 c14 -22 51 -65 82 -96 l58 -54 -33 -32
c-19 -18 -46 -51 -61 -74 l-28 -42 -38 48 c-21 26 -63 69 -94 95 l-56 49 67
72 c38 41 70 74 73 74 3 0 16 -18 30 -40z"/>
<path d="M6869 8301 c-25 -25 -39 -48 -39 -64 0 -14 -4 -29 -10 -32 -5 -3 -10
-24 -10 -46 0 -33 3 -39 23 -40 12 -1 32 -3 45 -4 54 -6 142 67 142 117 0 34
-63 108 -92 108 -11 0 -38 -17 -59 -39z"/>
<path d="M4399 7341 c-47 -50 -55 -85 -33 -140 26 -66 51 -77 199 -90 202 -18
345 -62 487 -149 271 -166 470 -406 572 -690 31 -87 62 -259 71 -393 6 -88 9
-99 33 -122 57 -55 119 -57 166 -8 37 39 49 98 41 211 -20 289 -97 512 -264
763 -264 393 -728 656 -1165 657 -68 0 -70 -1 -107 -39z"/>
<path d="M4444 6841 c-27 -12 -72 -66 -80 -97 -11 -42 6 -96 39 -129 31 -30
36 -32 132 -38 57 -3 128 -14 165 -26 91 -29 206 -99 278 -170 106 -104 192
-320 192 -481 0 -88 15 -135 49 -160 56 -39 152 -15 180 47 42 93 9 341 -70
510 -117 254 -320 430 -598 517 -90 29 -249 43 -287 27z"/>
<path d="M3814 6616 c-114 -53 -170 -136 -168 -251 1 -91 65 -204 130 -231
l33 -14 3 -196 c2 -108 1 -198 -1 -200 -2 -2 -110 -4 -240 -4 -218 0 -238 -2
-269 -20 -43 -26 -55 -61 -48 -135 3 -33 6 -217 7 -410 l1 -349 -274 3 c-307
3 -344 -2 -379 -50 -19 -26 -21 -40 -16 -96 4 -54 15 -84 62 -176 129 -251
221 -345 390 -396 l70 -21 1904 2 1903 3 141 145 c77 80 219 237 316 350 97
113 207 239 244 280 113 124 131 185 71 241 l-26 24 -506 0 c-322 0 -573 5
-689 14 -220 16 -211 20 -328 -120 -44 -53 -102 -120 -130 -150 l-50 -54 -633
3 -632 3 3 433 c3 325 1 437 -8 449 -31 43 -51 45 -366 39 l-299 -5 0 207 0
206 25 0 c34 0 63 32 108 123 45 93 48 145 12 216 -68 135 -232 197 -361 137z
m172 -190 c42 -42 43 -69 5 -107 -35 -35 -72 -37 -119 -9 -40 24 -57 62 -41
93 34 65 102 76 155 23z m74 -1046 c16 -16 20 -33 20 -89 0 -85 -15 -101 -99
-101 -76 0 -91 16 -91 94 0 89 6 104 44 109 78 10 106 7 126 -13z m-390 -9 c5
-11 10 -49 10 -85 0 -79 -17 -96 -94 -96 -74 0 -86 16 -86 110 0 42 3 80 7 83
3 4 39 7 79 7 62 0 75 -3 84 -19z m795 -46 c12 -118 1 -135 -98 -135 -38 0
-53 5 -74 26 -23 23 -25 31 -21 84 6 83 15 90 108 90 l78 0 7 -65z m-791 -357
c9 -12 16 -41 16 -63 0 -22 -7 -51 -16 -63 -13 -19 -24 -22 -85 -22 -65 0 -70
2 -79 26 -17 43 -12 102 10 124 30 30 133 29 154 -2z m391 2 c28 -31 31 -100
5 -132 -19 -24 -29 -28 -75 -28 -44 0 -55 4 -67 23 -32 49 -26 141 10 150 47
13 109 6 127 -13z m383 -7 c20 -28 15 -110 -8 -133 -27 -27 -89 -27 -124 1
-22 18 -26 28 -26 74 0 44 4 57 23 70 29 21 116 13 135 -12z m2135 -204 c72
-37 89 -99 41 -144 -51 -47 -116 -25 -143 47 -25 67 40 129 102 97z m447 -37
c26 -32 25 -82 -1 -116 -47 -60 -169 -15 -169 64 0 77 121 115 170 52z"/>
<path d="M4575 6271 c-23 -10 -53 -32 -68 -50 -68 -82 -37 -240 56 -284 43
-21 116 -22 162 -3 38 16 89 87 105 146 21 79 -33 165 -121 193 -65 21 -84 21
-134 -2z"/>
<path d="M2830 3864 c-14 -3 -85 -34 -157 -69 -104 -51 -136 -71 -148 -94 -23
-45 -19 -79 14 -112 45 -45 84 -40 209 27 97 52 108 56 157 52 40 -3 71 -15
123 -47 112 -67 164 -84 251 -78 65 4 86 11 195 66 147 74 176 77 256 26 126
-80 156 -90 266 -90 l100 0 118 58 c155 75 179 76 296 7 101 -60 133 -70 222
-70 72 0 153 25 220 67 112 70 195 71 307 4 93 -57 133 -70 208 -71 72 0 141
23 253 84 102 55 154 56 236 3 110 -71 157 -88 237 -89 83 0 163 27 270 90 45
27 73 37 116 40 52 3 61 0 141 -47 125 -75 155 -84 252 -79 86 5 107 13 268
103 79 44 141 34 274 -47 103 -62 149 -65 195 -13 61 70 39 108 -105 181 -60
31 -127 66 -149 77 -82 43 -242 20 -345 -49 -100 -68 -192 -68 -309 -1 -97 55
-119 64 -172 72 -62 9 -128 -8 -253 -67 -149 -70 -182 -70 -335 1 -173 81
-238 79 -415 -12 -70 -35 -90 -41 -146 -41 -59 -1 -74 4 -173 53 -165 84 -235
82 -411 -8 -70 -36 -101 -46 -150 -49 -58 -3 -67 0 -176 54 -111 56 -118 58
-196 59 -78 0 -83 -1 -198 -59 -158 -79 -177 -79 -328 -3 -182 92 -238 92
-427 2 -149 -70 -178 -72 -288 -13 -43 22 -95 50 -116 60 -38 19 -140 31 -187
22z"/>
<path d="M7297 3428 c-43 -5 -89 -24 -172 -68 -101 -54 -118 -60 -171 -60 -48
0 -71 7 -124 35 -156 84 -164 87 -254 84 -71 -4 -92 -9 -147 -38 -150 -80
-159 -84 -212 -85 -45 0 -70 8 -172 59 -108 54 -127 60 -194 64 -73 3 -75 3
-190 -55 -157 -80 -182 -80 -341 -4 -113 54 -117 55 -205 55 -89 0 -91 -1
-213 -59 -114 -55 -127 -58 -174 -53 -31 4 -95 27 -162 59 -106 51 -115 53
-191 52 -77 0 -84 -2 -195 -58 -111 -56 -117 -57 -182 -54 -59 3 -81 11 -180
63 -109 57 -116 59 -188 59 -72 0 -80 -3 -190 -59 -102 -51 -122 -58 -177 -59
-55 -1 -72 4 -165 52 -183 93 -230 92 -426 -6 -138 -69 -162 -91 -162 -146 0
-31 42 -82 74 -90 33 -8 65 5 167 70 120 75 164 73 294 -16 84 -57 125 -72
199 -73 88 -1 128 12 241 79 50 29 104 56 121 60 38 7 104 -20 174 -71 78 -57
134 -77 215 -78 80 0 129 18 250 94 61 38 77 44 126 44 52 0 62 -4 141 -59
168 -114 262 -111 472 20 104 65 166 60 277 -22 97 -71 205 -92 300 -59 24 9
81 38 127 66 137 84 162 84 291 0 101 -66 142 -82 215 -83 86 -2 129 13 240
83 95 60 99 61 156 57 49 -4 70 -12 136 -56 117 -76 144 -85 239 -80 88 5 120
18 236 95 108 72 164 69 291 -14 37 -24 79 -48 93 -53 61 -23 118 -5 144 47
29 57 1 112 -71 143 -29 12 -78 37 -109 55 -50 29 -122 57 -174 67 -11 2 -46
0 -78 -4z"/>
</g>
</svg>
