<?xml version="1.0" standalone="no"?>
<!DOCTYPE svg PUBLIC "-//W3C//DTD SVG 20010904//EN"
 "http://www.w3.org/TR/2001/REC-SVG-20010904/DTD/svg10.dtd">
<svg version="1.0" xmlns="http://www.w3.org/2000/svg"
 width="1024.000000pt" height="1024.000000pt" viewBox="0 0 1024.000000 1024.000000"
 preserveAspectRatio="xMidYMid meet">

<g transform="translate(0.000000,1024.000000) scale(0.100000,-0.100000)"
fill="#000000" stroke="none">
<path d="M2633 7436 c-17 -8 -44 -34 -60 -57 -24 -37 -28 -52 -28 -115 0 -81
18 -116 71 -144 16 -8 33 -19 37 -25 4 -5 7 -173 5 -371 l-3 -362 -44 -5
c-102 -11 -94 -125 8 -129 l44 -1 -6 -261 c-4 -144 -7 -305 -7 -358 l0 -98
-38 0 c-41 0 -64 -18 -76 -57 -11 -34 32 -73 81 -73 l38 0 2 -375 2 -375 -38
0 c-42 0 -56 -11 -66 -52 -9 -36 23 -68 69 -68 l35 0 -2 -356 -2 -356 -35 -12
c-30 -9 -35 -16 -38 -44 -4 -40 12 -62 43 -62 26 0 22 25 42 -252 5 -60 4
-179 -2 -273 l-10 -167 -31 -13 c-121 -50 -104 -245 24 -283 77 -23 98 -17
160 46 l57 57 185 3 c102 1 249 3 328 5 102 1 141 -1 138 -9 -2 -6 -7 -32 -11
-57 -6 -38 -4 -48 14 -66 29 -29 84 -28 111 2 18 18 21 31 18 77 l-4 56 358
-1 358 0 0 -61 c0 -46 4 -65 18 -77 27 -25 69 -21 99 9 23 23 25 31 20 81 -6
53 -5 55 16 49 12 -3 173 -6 359 -6 l336 0 -5 -39 c-11 -77 16 -121 72 -121
61 0 98 88 64 152 -10 19 -9 20 30 13 23 -4 190 -7 372 -7 l330 -1 -6 -51 c-6
-43 -3 -55 15 -79 28 -36 72 -36 107 -1 23 23 25 31 20 77 l-5 52 364 0 364 0
0 -56 c0 -61 13 -85 50 -94 54 -13 100 55 82 120 l-9 30 277 -3 c153 -2 300 1
328 6 50 9 51 9 63 -20 6 -15 27 -42 46 -58 29 -26 42 -30 92 -30 98 0 151 50
151 143 0 55 -10 79 -53 125 -57 59 -150 63 -209 8 -26 -23 -26 -23 -359 -28
l-334 -5 -2 374 -2 374 387 -4 c213 -3 398 -5 412 -6 29 -1 80 48 80 78 0 10
-10 31 -22 46 -20 26 -24 27 -77 21 -31 -4 -216 -8 -412 -11 l-356 -4 -7 356
c-4 195 -5 357 -3 360 11 11 546 14 677 4 124 -9 147 -9 167 4 31 21 32 86 2
116 -19 19 -28 20 -73 14 -28 -4 -213 -7 -411 -7 l-360 -1 -3 367 -2 366 342
2 c412 2 383 3 435 -7 39 -7 45 -5 74 24 25 25 30 37 25 59 -11 46 -44 65 -96
56 -25 -4 -209 -8 -410 -8 l-365 -1 3 335 c1 184 2 347 2 363 l0 27 356 0
c243 0 369 -4 396 -12 34 -10 42 -9 66 9 39 29 44 95 7 119 -21 14 -38 15 -97
9 -40 -3 -220 -3 -401 1 l-329 7 2 316 c2 174 2 326 1 339 -1 24 -10 24 -98 6
l-23 -4 0 -330 0 -330 -370 0 -370 0 -2 159 -3 158 -62 -30 -63 -29 0 -129 0
-129 -208 0 c-186 0 -211 -2 -224 -17 -18 -20 -41 -94 -32 -102 3 -3 108 -6
232 -6 125 0 228 -4 230 -8 1 -4 2 -169 2 -366 l0 -360 -364 2 -363 2 -7 118
c-7 110 0 405 10 454 l4 22 -67 -24 -68 -23 -3 -271 -2 -270 -353 -3 c-274 -2
-361 0 -395 10 -31 11 -50 11 -73 3 -27 -9 -24 -3 37 65 116 129 200 200 588
494 360 273 488 360 818 559 408 245 663 356 1066 462 178 47 290 61 552 68
l255 6 32 -27 c86 -72 214 -52 265 42 29 53 21 138 -18 186 -42 52 -88 74
-155 74 -65 0 -98 -20 -119 -71 -13 -30 -15 -31 -64 -26 -77 7 -420 -11 -511
-27 -214 -39 -492 -117 -690 -193 -259 -100 -954 -480 -1104 -605 -31 -26 -85
-67 -121 -91 -36 -24 -101 -73 -145 -108 -44 -35 -138 -106 -208 -158 -268
-195 -479 -385 -822 -737 -330 -338 -302 -308 -374 -402 -33 -42 -101 -126
-151 -187 -125 -151 -375 -547 -551 -871 -40 -74 -138 -316 -160 -394 -7 -25
-16 -49 -21 -55 -10 -11 -11 485 -1 783 l6 212 56 -3 c31 -1 86 -1 123 1 l66
2 11 52 c7 28 16 56 20 62 7 8 -34 12 -135 13 l-145 3 -2 367 -2 368 367 3
367 2 -5 -72 c-3 -40 -6 -91 -9 -113 -3 -30 -1 -36 6 -22 6 9 29 27 52 38 70
35 77 45 77 111 l0 58 64 0 64 0 21 50 c12 28 19 55 16 60 -3 6 -44 10 -91 10
l-85 0 3 363 3 362 363 0 363 1 -3 -108 c-2 -59 -2 -108 -1 -108 1 0 30 20 65
43 61 42 63 45 64 88 2 96 -6 88 91 91 l88 3 18 40 c11 22 26 48 35 58 14 16
8 17 -112 17 l-127 0 1 373 1 372 365 0 364 0 0 -182 c0 -101 4 -183 8 -183 4
0 13 5 18 10 6 6 30 20 55 33 l44 22 3 152 3 152 92 -6 c117 -7 307 5 311 21
2 6 8 27 14 45 9 25 9 37 1 42 -6 3 -101 10 -210 14 l-199 7 0 74 c0 66 -3 78
-25 99 -31 32 -69 32 -102 -1 -24 -24 -25 -29 -19 -100 l7 -74 -361 0 -360 0
1 80 c3 86 -6 106 -46 110 -35 4 -44 1 -65 -22 -16 -18 -20 -35 -20 -96 l0
-75 -357 6 -358 6 4 79 c3 74 1 81 -20 96 -32 22 -75 20 -99 -4 -17 -17 -20
-33 -20 -99 l0 -80 -352 -3 c-194 -2 -355 -2 -357 -1 -2 1 2 24 9 51 9 40 9
56 -3 83 -31 73 -106 106 -174 75z m1500 -328 l227 5 0 -376 0 -377 -358 0
-359 0 -5 253 c-3 138 -4 308 -2 377 2 68 4 124 4 125 0 0 60 -3 132 -6 73 -3
235 -3 361 -1z m-621 -368 c3 -201 3 -368 1 -372 -2 -5 -166 -8 -363 -8 l-360
0 -2 373 -3 372 361 0 361 0 5 -365z m3 -866 l0 -361 -140 -7 c-179 -8 -421
-8 -516 0 l-74 7 0 361 0 361 365 0 365 0 0 -361z m3425 -7 l0 -367 -370 2
-370 3 0 365 0 365 370 0 370 0 0 -368z m-2670 -452 c-10 -12 -7 -15 17 -20
67 -15 78 -22 77 -43 0 -12 -1 -174 -2 -360 l-2 -338 -277 4 c-320 4 -313 6
-321 -77 l-5 -52 299 1 299 2 3 -359 2 -359 -362 2 -363 2 -3 262 -2 261 -23
-7 c-12 -3 -39 -16 -61 -28 l-38 -21 4 -235 3 -235 -68 3 c-37 3 -97 1 -133
-3 -72 -7 -75 -11 -89 -93 l-7 -44 146 4 146 3 0 -370 0 -370 -344 -3 c-290
-3 -344 -2 -349 10 -7 20 39 309 62 388 71 239 174 484 296 700 26 47 61 110
77 140 36 69 144 235 222 343 33 45 78 111 99 147 22 36 65 94 97 130 31 36
63 76 70 90 7 14 23 36 35 50 13 14 64 70 113 125 122 135 254 265 327 319 64
49 74 54 55 31z m940 -395 l0 -370 -365 0 -365 0 0 198 c0 108 3 275 7 370 l6
172 359 0 358 0 0 -370z m862 -1 l-2 -369 -364 0 -363 0 -6 173 c-8 192 -9
551 -3 558 2 2 170 5 373 6 l368 1 -3 -369z m563 361 l300 0 3 -365 3 -365
-364 0 -364 0 -7 61 c-3 34 -6 201 -6 372 l0 310 68 -6 c37 -4 202 -7 367 -7z
m-1425 -1210 l0 -360 -365 0 -365 0 0 360 0 360 365 0 365 0 0 -360z m869 0
l-4 -360 -370 0 -370 0 -2 360 -3 360 376 0 376 0 -3 -360z m860 1 l2 -360
-363 -3 c-200 -2 -366 -2 -370 0 -10 4 -11 610 -2 676 l7 46 362 0 363 0 1
-359z m-2579 -853 l0 -368 -93 0 c-52 0 -216 -3 -365 -7 l-272 -6 0 374 0 374
365 0 365 0 0 -367z m850 -4 l0 -371 -365 -1 -365 0 0 372 0 371 365 0 365 0
0 -371z m865 306 c-1 -33 -2 -199 -3 -368 l-2 -308 -367 -2 -368 -2 0 208 c0
114 1 281 2 372 l3 165 367 -2 368 -2 0 -61z m865 -310 l0 -370 -370 0 -370 0
0 278 c0 154 3 320 6 370 l7 92 363 0 364 0 0 -370z"/>
<path d="M6092 7408 c-13 -13 -15 -71 -6 -130 6 -33 10 -38 35 -38 15 0 39 4
53 10 24 9 26 14 26 74 0 56 -3 67 -22 80 -27 19 -69 21 -86 4z"/>
</g>
</svg>
