<?xml version="1.0" standalone="no"?>
<!DOCTYPE svg PUBLIC "-//W3C//DTD SVG 20010904//EN"
 "http://www.w3.org/TR/2001/REC-SVG-20010904/DTD/svg10.dtd">
<svg version="1.0" xmlns="http://www.w3.org/2000/svg"
 width="1024.000000pt" height="1024.000000pt" viewBox="0 0 1024.000000 1024.000000"
 preserveAspectRatio="xMidYMid meet">

<g transform="translate(0.000000,1024.000000) scale(0.100000,-0.100000)"
fill="#000000" stroke="none">
<path d="M4798 8779 c-15 -11 -36 -35 -47 -53 -20 -32 -21 -48 -21 -387 0
-317 2 -358 18 -389 24 -48 75 -80 128 -80 36 0 51 6 84 36 22 20 45 52 51 73
7 23 9 155 7 381 -3 316 -5 347 -22 372 -44 66 -142 89 -198 47z"/>
<path d="M3797 8575 c-47 -33 -67 -72 -67 -132 0 -38 12 -73 61 -173 33 -69
92 -195 131 -280 107 -233 126 -258 211 -267 75 -8 147 63 147 145 0 21 -28
93 -74 190 -41 87 -95 207 -120 267 -66 157 -106 226 -145 252 -45 31 -96 30
-144 -2z"/>
<path d="M5802 8578 c-34 -24 -65 -81 -199 -373 -154 -335 -154 -335 -118
-409 33 -68 105 -93 178 -62 18 7 40 22 50 33 10 11 53 100 97 197 44 98 111
240 150 317 77 154 86 199 51 253 -45 68 -143 89 -209 44z"/>
<path d="M6702 8020 c-18 -4 -56 -29 -85 -56 -101 -93 -460 -459 -483 -493
-41 -58 -27 -148 30 -200 34 -32 110 -35 149 -5 14 10 79 78 146 149 66 72
179 184 251 250 143 132 177 180 167 242 -14 86 -88 134 -175 113z"/>
<path d="M2969 7997 c-44 -29 -73 -87 -65 -130 11 -59 39 -94 258 -319 120
-123 225 -233 234 -246 18 -26 84 -62 114 -62 63 0 122 55 136 126 14 77 -1
98 -268 370 -139 140 -265 262 -280 270 -40 21 -90 17 -129 -9z"/>
<path d="M4641 7615 c-132 -20 -349 -87 -461 -143 -256 -126 -474 -325 -619
-566 -80 -133 -129 -255 -170 -421 -70 -284 -64 -492 25 -803 61 -216 239
-502 407 -655 63 -58 211 -159 307 -210 127 -68 352 -137 525 -162 206 -30
507 -7 690 53 233 77 417 168 531 264 175 147 390 462 460 677 33 100 73 338
81 476 11 220 -38 428 -157 670 -151 304 -353 511 -646 658 -146 74 -195 93
-354 134 -128 33 -146 35 -330 39 -136 2 -223 -1 -289 -11z m465 -240 c204
-36 427 -132 551 -237 32 -27 78 -59 102 -71 37 -19 60 -46 137 -157 51 -74
107 -158 123 -185 42 -72 109 -262 126 -363 51 -290 -36 -676 -209 -931 l-57
-83 20 -22 c15 -16 21 -36 21 -68 0 -38 -5 -50 -27 -67 -52 -41 -83 -39 -147
11 l-28 23 -17 -25 c-26 -41 -56 -64 -156 -125 -110 -66 -176 -92 -365 -143
-126 -34 -144 -36 -280 -36 -294 1 -565 90 -798 263 -70 52 -80 57 -97 45 -30
-22 -95 -18 -122 8 -32 30 -30 70 7 107 28 28 29 30 10 36 -48 15 -184 233
-230 368 -54 160 -65 234 -64 442 l1 190 41 147 c23 82 59 183 82 229 38 75
134 209 151 209 3 0 28 23 55 51 62 64 184 165 249 206 78 49 233 121 307 144
163 48 442 63 614 34z"/>
<path d="M4685 7225 c-301 -55 -586 -242 -749 -492 -118 -180 -169 -362 -169
-593 0 -280 70 -473 254 -694 109 -131 181 -187 365 -279 173 -88 377 -133
553 -124 242 13 533 141 715 315 53 51 155 180 189 238 15 27 39 67 52 89 66
107 113 351 102 528 -11 181 -95 413 -202 562 -121 167 -360 337 -582 413
-144 50 -373 66 -528 37z m455 -274 c137 -44 244 -113 365 -235 118 -119 169
-208 211 -372 23 -89 25 -112 21 -229 -6 -138 -35 -272 -78 -358 -109 -215
-338 -391 -586 -448 -81 -19 -112 -21 -212 -16 -220 12 -360 61 -516 180 -92
70 -206 203 -249 291 -59 120 -80 219 -79 381 1 119 5 155 27 240 49 180 136
303 305 431 95 71 188 114 325 150 81 21 107 24 231 20 122 -3 152 -8 235 -35z"/>
<path d="M4790 6620 c-117 -22 -192 -62 -272 -148 -77 -82 -138 -227 -138
-327 1 -129 63 -278 155 -370 94 -94 196 -135 340 -135 134 0 253 42 330 117
50 49 130 170 150 228 40 118 27 274 -32 375 -59 101 -183 207 -278 240 -66
23 -190 33 -255 20z m115 -240 c33 -31 48 -82 43 -145 -8 -94 -80 -162 -163
-153 -58 7 -96 27 -122 67 -54 79 -13 188 92 245 42 23 118 16 150 -14z"/>
<path d="M7492 7280 c-43 -26 -72 -76 -72 -123 0 -48 10 -68 71 -138 178 -208
297 -459 334 -708 21 -139 19 -364 -4 -503 -44 -255 -124 -425 -307 -648 -77
-95 -83 -172 -18 -229 28 -25 44 -31 81 -31 90 0 159 64 278 260 180 296 252
529 262 842 6 162 -7 335 -32 446 -43 184 -169 458 -305 660 -121 181 -198
227 -288 172z"/>
<path d="M2478 7208 c-108 -29 -141 -164 -59 -245 15 -15 54 -39 87 -52 84
-35 325 -153 419 -206 60 -33 91 -45 123 -45 153 0 196 175 64 258 -26 17
-119 67 -207 113 -88 45 -194 101 -236 124 -71 39 -134 66 -148 64 -3 -1 -23
-5 -43 -11z"/>
<path d="M7072 6973 c-53 -26 -72 -58 -72 -122 0 -67 7 -79 105 -181 98 -102
150 -185 185 -299 60 -192 61 -379 4 -576 -43 -148 -94 -237 -209 -365 -68
-76 -95 -121 -95 -162 0 -41 39 -105 74 -122 90 -43 162 1 288 174 185 255
262 483 261 780 -1 255 -74 479 -228 695 -105 148 -162 195 -234 195 -25 0
-61 -8 -79 -17z"/>
<path d="M6725 6635 c-71 -25 -109 -98 -86 -167 6 -18 39 -67 73 -108 33 -41
75 -104 92 -140 40 -87 41 -187 2 -308 -24 -74 -35 -91 -96 -156 -77 -81 -94
-115 -85 -166 21 -113 138 -154 239 -83 60 43 159 197 196 308 78 235 58 439
-62 638 -100 165 -176 215 -273 182z"/>
<path d="M2240 6233 c-43 -23 -80 -76 -80 -117 0 -43 30 -97 71 -124 l33 -23
367 3 c412 3 389 -1 430 80 34 66 18 126 -43 169 -32 23 -35 24 -388 27 -327
3 -358 2 -390 -15z"/>
<path d="M3025 5563 c-11 -3 -94 -41 -185 -85 -91 -45 -219 -106 -285 -138
-66 -31 -131 -69 -143 -83 -71 -77 -30 -217 69 -233 29 -5 54 4 149 54 63 33
203 101 310 152 107 50 206 102 219 115 28 27 40 109 22 143 -26 49 -106 87
-156 75z"/>
<path d="M6203 4979 c-40 -12 -80 -59 -89 -104 -15 -81 -7 -93 215 -319 114
-116 232 -238 262 -270 78 -85 134 -104 206 -69 20 9 44 30 54 47 21 35 25
106 7 139 -11 22 -530 557 -552 568 -23 13 -72 17 -103 8z"/>
<path d="M3473 4965 c-42 -18 -495 -454 -541 -520 -31 -45 -34 -55 -30 -103 6
-65 32 -102 85 -121 70 -25 83 -16 288 192 105 107 228 227 273 267 95 84 112
111 112 173 0 52 -27 93 -76 113 -42 17 -70 17 -111 -1z"/>
<path d="M4104 4530 c-42 -17 -89 -78 -135 -175 -165 -350 -229 -504 -229
-550 0 -105 83 -175 173 -146 50 17 70 44 125 171 27 63 93 206 147 317 53
111 99 220 102 241 7 49 -26 116 -67 137 -31 16 -83 19 -116 5z"/>
<path d="M5538 4524 c-35 -19 -68 -82 -68 -131 0 -24 19 -80 49 -148 122 -277
161 -365 190 -436 18 -42 46 -94 64 -114 28 -32 40 -38 84 -42 74 -8 99 2 134
50 27 37 30 48 27 97 -4 56 -8 66 -153 380 -36 80 -80 177 -96 217 -41 98 -91
143 -157 143 -26 -1 -59 -8 -74 -16z"/>
<path d="M4806 4411 c-16 -11 -38 -34 -49 -51 -19 -31 -20 -47 -18 -403 2
-414 3 -420 70 -464 68 -46 152 -18 191 61 20 43 21 55 18 424 -3 364 -4 381
-23 402 -47 52 -135 66 -189 31z"/>
<path d="M3934 3125 c-139 -24 -308 -94 -391 -161 -46 -38 -69 -89 -58 -132 7
-30 62 -92 81 -92 7 0 59 24 116 53 178 91 300 120 503 120 105 -1 166 -6 245
-23 152 -32 201 -51 435 -165 380 -187 620 -236 934 -189 194 28 350 97 463
204 50 48 58 60 58 92 0 56 -34 89 -96 95 -45 5 -58 0 -154 -51 -131 -71 -263
-113 -394 -128 -86 -9 -118 -8 -206 6 -135 22 -280 71 -416 139 -210 105 -369
168 -551 218 -102 28 -441 36 -569 14z"/>
<path d="M4160 2583 c-159 -12 -368 -67 -495 -130 -51 -26 -125 -87 -146 -119
-37 -61 -18 -143 38 -165 27 -10 35 -7 154 59 62 35 198 80 329 108 63 14 127
19 245 19 253 -1 364 -35 655 -204 172 -100 364 -167 548 -192 115 -15 315 -6
414 20 230 60 413 190 413 293 0 31 -7 45 -28 64 -43 37 -78 31 -228 -41 -180
-88 -280 -109 -464 -102 -232 9 -341 45 -685 226 -172 91 -343 142 -536 161
-98 9 -125 10 -214 3z"/>
</g>
</svg>
